<svg width="186" height="311" viewBox="0 0 186 311" fill="none" xmlns="http://www.w3.org/2000/svg">
<path d="M50.4893 173.376C51.8126 166.861 54.2556 165.029 54.2556 165.029L56.1896 171.747C54.8663 172.358 53.8484 174.801 53.8484 174.801C51.9143 172.562 50.4893 173.376 50.4893 173.376Z" fill="url(#paint0_linear_9_8201)"/>
<path d="M182.413 170.22C182.413 170.22 182.719 165.742 180.174 163.4C180.174 163.4 180.276 166.963 182.413 170.22Z" fill="#A21642"/>
<path d="M178.952 164.418L180.581 164.011C181.802 165.64 182.108 169.61 182.108 169.61L180.479 170.017C180.275 167.268 178.952 164.418 178.952 164.418Z" fill="url(#paint1_linear_9_8201)"/>
<path d="M180.174 163.4L182.82 162.179C185.263 165.742 185.06 169.712 185.06 169.712L182.413 170.22C182.108 164.927 180.174 163.4 180.174 163.4Z" fill="url(#paint2_linear_9_8201)"/>
<path d="M143.935 185.998C141.899 182.028 138.54 171.137 138.54 171.137L175.491 159.227C182.108 163.807 181.293 176.328 181.293 176.328L164.599 180.502L143.935 185.998Z" fill="url(#paint3_linear_9_8201)"/>
<path style="mix-blend-mode:multiply" opacity="0.3" d="M145.055 184.777C145.055 184.777 140.474 173.987 140.678 171.442L157.067 166.149L178.647 165.029C178.647 165.029 179.97 167.37 180.275 170.22C180.479 172.256 180.479 175.717 180.479 175.717L145.055 184.777Z" fill="url(#paint4_linear_9_8201)"/>
<g style="mix-blend-mode:soft-light">
<path d="M150.654 182.537L150.247 180.909L180.581 171.136L180.988 174.903L150.654 182.537Z" fill="white"/>
</g>
<g style="mix-blend-mode:multiply">
<path d="M161.952 163.604C161.952 163.604 156.659 167.167 156.15 169.406C155.641 171.646 156.15 173.274 156.15 174.292C156.049 175.208 154.42 178.568 154.42 178.568L151.773 168.592L153.809 166.251L161.952 163.604Z" fill="#C98BC2"/>
</g>
<path d="M105.457 73.1101C105.457 73.1101 107.086 81.0499 109.733 83.3911C112.379 85.6306 115.942 86.8521 115.942 86.8521C118.691 90.2113 119.607 99.2708 119.607 99.2708C119.607 99.2708 108.104 93.3668 105.05 90.5166C101.997 87.6664 98.7391 81.7625 98.7391 81.7625C98.0266 77.8943 95.8889 70.0563 95.8889 70.0563C97.314 70.5652 105.457 73.1101 105.457 73.1101Z" fill="url(#paint5_linear_9_8201)"/>
<path d="M103.32 29.2374C103.32 29.2374 111.565 29.95 114.314 34.7343C116.96 39.6203 117.469 50.105 118.487 51.8354C119.607 53.4641 121.643 53.1588 121.541 58.3502C121.541 63.4398 117.673 67.5115 116.451 69.6492C115.23 71.7868 114.415 73.0084 111.362 73.4155C108.308 73.7209 98.4338 72.8048 92.5298 69.0385C86.6258 65.2721 84.081 55.8054 80.5183 49.9014C76.8537 43.9974 85.6079 29.2374 103.32 29.2374Z" fill="url(#paint6_linear_9_8201)"/>
<path d="M141.39 128.485C141.39 128.485 151.264 151.491 154.725 154.748C158.186 158.107 165.821 162.484 165.821 162.484L155.54 165.64C155.54 165.64 154.725 165.436 154.42 165.64C154.216 165.843 153.707 169.101 154.013 170.526C154.013 170.662 154.013 170.763 154.013 170.831C154.081 170.831 154.081 170.831 154.013 170.831C154.42 172.053 155.234 172.155 155.54 174.089C155.845 176.125 154.725 178.873 154.013 178.975C153.3 179.178 153.3 174.394 151.977 172.155C150.552 169.915 148.109 169.406 147.803 168.592C147.498 167.778 149.33 161.772 148.414 158.922C147.498 156.071 135.894 147.317 132.331 142.228C128.87 137.138 128.361 134.797 128.361 134.797C128.361 134.797 137.726 128.893 141.39 128.485Z" fill="url(#paint7_linear_9_8201)"/>
<path d="M104.643 40.8417C104.643 40.8417 104.338 42.9793 103.523 43.9972C103.523 43.9972 98.0266 44.7098 96.4997 45.3206C94.9728 45.8295 93.6494 47.1528 93.6494 47.1528C93.6494 47.1528 94.4638 43.6919 95.6853 42.4704C96.7032 41.656 101.793 42.3686 104.643 40.8417Z" fill="url(#paint8_linear_9_8201)"/>
<path d="M52.1182 166.25C52.3217 164.215 61.2795 158.311 63.519 154.137C65.7584 149.964 67.5907 137.748 68.2014 133.269C68.914 128.689 70.7462 124.821 70.7462 124.821C70.7462 124.821 77.261 125.533 83.4704 135.407C83.4704 135.407 80.3148 139.682 76.1413 144.976C72.0696 150.167 70.0337 157.293 70.0337 157.293C70.0337 157.293 72.4768 162.688 72.5786 164.011C72.6804 164.927 71.866 167.472 71.357 168.897C71.1535 169.406 70.9498 169.813 70.9498 169.813C70.9498 169.813 68.3032 167.777 66.6745 167.268C66.6745 167.268 63.9262 170.322 64.9441 174.088C64.9441 174.156 64.9441 174.19 64.9441 174.19C64.9441 174.19 64.9441 174.224 64.9441 174.292L66.5728 175.31L67.8961 176.226C67.8961 176.226 67.6925 176.328 67.4889 176.531C66.6746 177.142 64.9441 178.364 63.519 178.262C63.519 178.262 62.0939 177.244 61.3814 177.142C60.567 177.04 59.4473 176.939 58.8365 176.43C58.124 175.819 57.4114 175.514 57.0042 175.31C56.597 175.106 55.6809 174.088 54.5612 173.885C53.5433 173.579 52.22 168.999 52.1182 166.759C52.1182 166.556 52.1182 166.386 52.1182 166.25Z" fill="url(#paint9_linear_9_8201)"/>
<path d="M130.6 267.433C130.6 267.433 128.259 277.51 129.277 285.348C129.277 285.348 124.289 289.115 123.475 288.809C122.661 288.606 120.625 285.348 120.625 285.348C120.625 285.348 121.235 282.193 120.625 278.121C120.014 274.151 118.283 267.433 118.283 267.433C118.283 267.433 125.205 271.301 130.6 267.433Z" fill="url(#paint10_linear_9_8201)"/>
<path d="M106.374 267.433C106.374 267.433 105.966 280.259 106.374 289.624L98.7391 287.995C98.7391 287.995 97.6194 277.103 94.4639 266.109C94.4639 266.109 101.386 268.756 106.374 267.433Z" fill="url(#paint11_linear_9_8201)"/>
<path fill-rule="evenodd" clip-rule="evenodd" d="M69.6261 30.4588C70.5423 29.339 66.7759 24.5548 68.9136 21.8064C70.2369 20.0759 71.9674 19.4651 72.9853 19.2615C73.3925 18.1418 74.105 16.9203 75.4284 15.8006C79.7037 12.4414 89.0686 19.5669 89.0686 19.5669C89.0686 19.5669 88.356 15.4952 90.6973 14.5791C92.9367 13.6629 97.212 20.0759 101.284 20.4831C105.254 20.7885 102.607 27.0996 103.32 28.4229C103.32 28.4229 103.829 30.1534 113.499 28.4229C123.169 26.7942 124.391 33.7161 123.678 40.3327C123.067 46.9492 122.558 51.3263 125.001 53.464C127.546 55.6016 129.684 55.907 129.989 59.5715C130.193 63.3379 125.001 67.206 125.001 67.206C125.001 67.206 129.175 59.1644 127.852 56.4159C126.935 54.4819 124.391 54.0747 122.253 52.446C121.54 51.8353 120.93 51.2245 120.421 50.3084C120.285 50.0369 120.149 49.7655 120.014 49.494C117.876 45.0152 120.115 34.8359 111.768 32.5964C111.768 32.5964 110.445 31.8839 108.613 31.2731C107.188 30.8659 105.457 30.6624 103.727 30.8659C99.8586 31.3749 98.8407 36.3628 94.769 45.3205C90.5955 54.2783 87.1345 51.9371 87.1345 51.9371C87.1345 51.9371 88.356 58.2482 89.7811 60.1823C89.4757 59.9787 82.8592 56.6195 80.518 58.7572C80.518 58.7572 78.8893 52.7514 74.5122 48.5779C70.0333 44.4044 66.8778 42.3685 66.776 37.2789C66.5724 32.291 68.8118 31.6803 69.6261 30.4588ZM94.769 37.6861C89.7811 42.7757 86.7273 51.5299 86.7273 51.5299C90.5955 47.8654 94.769 37.6861 94.769 37.6861ZM70.8477 29.4408C70.8477 29.4408 73.7997 27.3032 73.3925 25.4709C73.1889 24.5548 72.6799 22.9261 72.7817 21.1956C71.4584 21.1956 69.9315 21.3992 69.2189 22.9261C68.0992 25.3691 70.8477 29.4408 70.8477 29.4408Z" fill="url(#paint12_linear_9_8201)"/>
<path d="M92.1225 22.2136C89.5777 19.7706 88.3562 16.0042 85.7096 15.0881C83.0629 14.172 79.7038 16.3096 79.7038 16.3096L77.4644 14.9863C77.4644 14.9863 84.3863 9.08231 88.3562 16.0042C92.2243 22.9261 97.3139 26.0817 97.3139 26.0817C97.3139 26.0817 94.5655 24.6566 92.1225 22.2136Z" fill="url(#paint13_linear_9_8201)"/>
<path d="M92.5295 69.0384C93.6493 73.4155 92.4277 73.2119 90.0865 74.5352C87.7452 75.9603 90.1883 79.6248 90.1883 79.6248C90.1883 79.6248 84.6915 74.9424 89.5775 73.5173C94.5654 71.9904 91.817 68.5294 91.817 68.5294L92.5295 69.0384Z" fill="url(#paint14_linear_9_8201)"/>
<path d="M90.7992 67.2061C90.5956 68.4276 87.6437 70.0563 85.0989 69.4455C82.554 68.733 79.0931 64.6612 78.7877 62.9308C78.5841 61.2003 79.7038 58.1465 79.7038 58.1465C84.0809 56.3142 89.1706 60.1824 89.1706 60.1824C89.1706 60.1824 91.0028 65.8828 90.7992 67.2061Z" fill="url(#paint15_linear_9_8201)"/>
<path d="M99.1462 28.423C97.5176 29.0337 92.1225 34.0216 86.9311 41.656C81.7397 49.2905 79.2966 55.0927 79.2966 55.0927L79.5002 56.0088C79.5002 56.0088 78.1769 57.5357 78.1769 55.2963C78.1769 53.1586 76.0393 51.021 76.0393 51.021L75.7339 50.0031C75.7339 50.0031 76.7518 43.2847 82.4522 36.9736C88.1526 30.6624 96.9069 27.6086 96.9069 27.6086C96.9069 27.6086 98.5354 26.1835 99.3498 26.0817C100.164 25.9799 101.691 27.405 101.691 27.405H103.218L105.05 29.1355C105.05 29.1355 100.673 27.8122 99.1462 28.423Z" fill="url(#paint16_linear_9_8201)"/>
<path d="M98.7388 26.2853C98.7388 26.2853 97.0083 22.3154 97.3137 19.3634C97.6191 16.4114 102.2 7.86082 105.05 0.735319C106.577 -3.03102 106.068 8.57338 109.834 15.0881C113.601 21.6029 100.673 26.5907 100.673 26.5907L98.7388 26.2853Z" fill="url(#paint17_linear_9_8201)"/>
<g style="mix-blend-mode:multiply">
<path d="M142.409 130.725C142.409 130.725 136.912 139.581 135.487 145.79L131.619 141.311L131.008 131.845L141.391 128.485L142.409 130.725Z" fill="#EA8BC2"/>
</g>
<path d="M131.72 95.4027C133.654 96.4206 138.337 116.779 139.151 117.899C139.965 119.019 142.001 118.611 142.307 119.222C142.612 119.833 141.289 124.515 141.289 125.737C141.289 126.959 143.121 127.366 143.223 127.875C143.325 128.282 142.103 130.114 142.103 130.114L141.39 128.485C141.39 128.485 132.738 132.048 129.99 135C127.241 137.85 122.457 127.569 122.457 127.569L131.72 95.4027Z" fill="url(#paint18_linear_9_8201)"/>
<path style="mix-blend-mode:multiply" opacity="0.5" d="M142.307 119.222C142.307 119.222 138.744 121.156 138.235 123.09C137.726 125.024 136.606 129.3 136.606 129.3C136.606 129.3 140.067 127.162 143.223 127.875C143.223 127.875 142.816 128.994 142.103 130.114L142.408 130.725C142.408 130.725 135.283 142.126 135.486 145.79L132.331 142.227L129.99 133.473L138.235 115.15C138.235 115.15 138.235 117.084 139.151 117.899C140.067 118.611 141.696 118.815 142.307 119.222Z" fill="url(#paint19_linear_9_8201)"/>
<path d="M96.9067 27.6087C96.9067 27.6087 92.4277 26.8962 89.4757 22.1119C86.5237 17.2258 85.5058 9.38779 82.452 6.334C80.6197 4.60352 89.1704 6.13043 93.0385 9.28601C96.8048 12.5434 95.6851 20.2796 95.8887 22.3155C96.0923 24.3513 97.3137 27.2015 97.3137 27.2015L96.9067 27.6087Z" fill="url(#paint20_linear_9_8201)"/>
<path d="M143.732 161.059C143.732 161.059 136.911 171.747 132.84 174.598C128.666 177.448 92.937 154.85 92.937 154.85L115.942 153.73L128.361 152.305L143.732 161.059Z" fill="#375BB8"/>
<path d="M120.014 230.482C120.116 229.769 119.709 226.614 119.2 222.237C117.571 210.429 114.619 190.07 115.23 185.286C116.146 178.669 115.128 167.065 115.128 167.065L118.182 164.927L128.361 158.005L140.474 163.604C140.474 163.604 142.714 184.166 143.121 202.183C143.528 216.434 142.001 226.105 140.882 230.889C140.882 230.957 140.848 231.025 140.78 231.093C140.644 231.636 140.542 232.111 140.474 232.518C140.407 232.653 140.339 232.789 140.271 232.925C140.203 233.264 140.135 233.536 140.067 233.739C138.947 236.488 136.708 239.643 134.57 244.631C132.433 249.517 130.601 267.433 130.601 267.433C130.601 267.433 126.325 272.013 118.385 268.043C118.385 268.043 114.823 254.709 115.23 248.092C115.739 241.374 119.709 233.23 120.014 230.482Z" fill="url(#paint21_linear_9_8201)"/>
<path d="M91.3086 249.822C92.5301 242.9 96.9072 236.793 97.6197 230.38C97.8233 228.446 97.3144 223.56 96.5 217.35C94.3624 202.285 90.4942 179.382 91.5122 173.376C92.9373 164.927 101.895 155.053 101.895 155.053C101.895 155.053 111.158 158.311 118.182 164.927C122.457 168.897 126.02 174.19 126.223 180.705C126.427 188.441 125.409 196.585 123.984 203.608C123.984 203.608 123.95 203.71 123.882 203.914C122.152 212.566 120.014 219.59 119.2 222.237C117.673 226.919 113.907 231.601 112.176 236.488C110.446 241.475 106.374 267.433 106.374 267.433C100.673 269.468 94.4642 266.109 94.4642 266.109C94.4642 266.109 90.1888 256.643 91.3086 249.822Z" fill="url(#paint22_linear_9_8201)"/>
<path d="M104.745 157.496C104.745 157.496 99.0443 168.795 98.23 177.55C97.3139 186.406 100.368 225.799 99.8587 231.195C99.4515 236.59 92.2242 244.529 91.1045 251.248L92.326 245.14C92.326 245.14 98.23 234.961 98.739 230.889C99.2479 226.817 94.5655 198.723 93.8529 184.268C92.9368 167.065 102.302 156.58 102.302 156.58L104.745 157.496Z" fill="url(#paint23_linear_9_8201)"/>
<path style="mix-blend-mode:multiply" opacity="0.9" d="M140.881 167.574C140.881 167.574 135.384 173.274 129.175 177.55L139.049 172.562L129.582 179.484L125.51 194.244C125.51 194.244 126.528 180.603 125.918 177.957C125.205 175.31 115.84 167.981 107.9 165.64C107.9 165.64 117.774 167.981 123.067 171.951C123.067 171.951 115.229 163.909 107.9 161.365C100.571 158.922 96.4995 162.179 96.4995 162.179L100.877 156.275L125.409 151.592L140.474 163.604L140.881 167.574Z" fill="url(#paint24_linear_9_8201)"/>
<path d="M115.942 86.8522C115.942 86.8522 123.17 91.5346 125.918 92.6544C128.565 93.7741 131.72 95.4028 131.72 95.4028C131.72 95.4028 131.109 101.307 131.415 102.732C131.618 104.157 137.217 108.432 138.438 110.366C139.762 112.402 134.163 136.731 134.163 136.731L135.385 137.749C135.385 137.749 133.552 140.904 132.331 142.228C132.331 142.228 141.289 153.73 143.732 161.059C143.732 161.059 135.69 166.454 133.145 171.951L128.361 158.005C128.361 158.005 127.547 167.676 125.918 171.951C125.918 171.951 114.721 162.077 107.188 158.514C99.7572 154.952 92.9371 154.85 92.9371 154.85C92.9371 154.85 100.266 146.096 107.697 140.802L105.356 138.767L108.613 136.527C108.613 136.527 104.745 126.45 97.2123 117.695C97.2123 117.695 91.9191 124.923 91.6137 127.264C91.6137 127.264 92.1227 128.18 92.0209 128.893C91.9191 129.503 88.8654 131.03 88.8654 131.437C88.7636 131.946 89.5779 132.659 89.3743 133.27C89.0689 133.779 85.2008 137.24 84.7936 137.341C84.3865 137.341 82.4524 136.832 82.4524 136.832L83.4703 135.407C83.4703 135.407 78.7878 127.366 70.7462 124.821L70.1354 126.246C70.1354 126.246 66.6745 122.887 66.4709 122.276C66.2673 121.665 71.4587 121.36 71.7641 121.156C72.0695 120.851 72.782 119.222 73.291 119.222C73.6982 119.222 77.6681 118.917 77.6681 118.51C77.6681 118.103 75.734 116.576 76.243 116.27C76.752 116.067 78.9914 115.558 79.8058 113.42C80.6201 111.181 81.9434 102.834 83.9792 97.8458C86.1169 92.7562 91.7156 89.397 92.9371 88.1755C94.2604 86.8522 98.332 79.6249 98.332 79.6249L98.7392 81.7625C98.7392 81.7625 104.134 89.4988 110.14 92.7562C116.146 95.9117 118.792 96.5225 118.792 96.5225C118.792 96.5225 118.691 91.3311 115.942 86.8522Z" fill="url(#paint25_linear_9_8201)"/>
<path d="M127.241 98.66L121.031 96.5223L123.067 89.0914L125.001 89.3968L127.241 98.66Z" fill="#376DC0"/>
<path d="M109.122 82.7803C109.122 82.7803 113.906 84.2054 114.517 84.6125C115.128 85.0197 117.062 89.0914 117.062 89.0914C117.062 89.0914 116.655 87.9717 114.517 86.7502C112.379 85.6305 110.038 84.2054 109.122 82.7803Z" fill="#375BB8"/>
<path d="M118.792 96.5223C117.876 92.4506 115.637 85.9359 114.212 84.8162C112.889 83.7982 109.428 83.1875 109.122 82.7803C108.715 82.2713 108.104 81.1516 108.104 81.1516C108.104 81.1516 113.805 82.9839 115.332 83.4929C116.96 83.9 125.511 89.0915 125.511 89.0915L127.241 98.66L125.002 89.804C121.744 92.756 120.421 100.187 120.421 100.187L118.792 96.5223Z" fill="url(#paint26_linear_9_8201)"/>
<path d="M154.42 304.893C155.234 305.503 156.863 306.928 156.863 306.928C139.965 306.928 117.062 305.096 117.062 305.096C117.062 304.384 119.505 292.881 119.708 291.456C120.014 290.031 120.217 284.839 120.217 284.839L124.187 288.606C124.187 288.606 127.852 285.755 129.277 285.348C130.804 284.941 133.349 284.025 133.858 284.534C134.367 285.043 132.738 289.624 132.738 289.624C136.301 296.749 153.605 304.384 154.42 304.893Z" fill="url(#paint27_linear_9_8201)"/>
<path d="M106.272 287.486L107.391 287.791C107.391 287.791 107.086 292.677 107.391 296.953C107.798 301.228 107.9 305.503 107.9 305.503C107.9 305.503 104.541 308.353 103.116 308.048C101.691 307.743 91.9188 300.21 87.0327 306.521C87.0327 306.521 96.8049 289.624 97.4157 287.689C98.1282 285.857 97.212 283.007 99.8586 282.702C102.505 282.396 104.541 286.672 105.355 287.791C106.17 288.911 106.272 287.486 106.272 287.486Z" fill="url(#paint28_linear_9_8201)"/>
<path d="M156.863 306.928L157.983 311H116.553C116.553 311 116.146 306.928 117.062 305.096L156.863 306.928Z" fill="url(#paint29_linear_9_8201)"/>
<path d="M107.9 305.503L108.715 311H85.9131C85.9131 311 86.422 306.827 87.0328 306.114C87.6435 305.401 91.0028 303.162 94.4637 303.467C97.8229 303.671 101.487 306.318 103.829 306.623C106.17 306.827 107.9 305.503 107.9 305.503Z" fill="url(#paint30_linear_9_8201)"/>
<path d="M154.42 165.64C154.42 165.64 156.456 163.807 158.695 163.197C160.935 162.586 162.971 163.298 162.971 163.298L155.54 165.64H154.42Z" fill="url(#paint31_linear_9_8201)"/>
<path d="M49.2678 304.485C49.2678 304.485 30.5379 303.773 27.8913 303.569C25.2447 303.365 0 299.192 0 299.192C0.101793 284.228 1.52689 273.947 1.52689 273.947L0.10183 272.013C2.95203 232.11 17.3048 216.434 17.3048 216.434C40.6154 218.063 64.5367 230.482 64.5367 230.482C58.6327 270.995 49.2678 304.485 49.2678 304.485Z" fill="url(#paint32_linear_9_8201)"/>
<path d="M41.5315 305.503C41.5315 305.503 35.0167 317.108 26.9751 304.892L41.5315 305.503Z" fill="url(#paint33_linear_9_8201)"/>
<path d="M16.3884 303.977C16.3884 303.977 11.8077 319.551 3.5625 302.857L16.3884 303.977Z" fill="url(#paint34_linear_9_8201)"/>
<path style="mix-blend-mode:multiply" opacity="0.5" d="M104.847 53.464C104.847 53.464 104.847 55.3981 104.542 56.5178C104.236 57.6375 102.506 57.7393 99.5538 57.0267C96.6018 56.416 94.7695 53.973 94.7695 53.973L104.847 53.464Z" fill="url(#paint35_linear_9_8201)"/>
<path style="mix-blend-mode:multiply" opacity="0.5" d="M117.876 50.6138C117.876 50.6138 118.385 52.2425 118.182 53.1586C118.08 53.6676 117.673 54.9909 117.673 54.9909C117.673 54.9909 116.451 55.398 114.721 53.7694C113.092 52.1407 117.876 50.6138 117.876 50.6138Z" fill="url(#paint36_linear_9_8201)"/>
<path d="M58.1238 227.428L68.812 178.262C70.5425 177.244 72.9855 178.975 72.9855 178.975L61.6865 229.057L58.1238 227.428Z" fill="url(#paint37_linear_9_8201)"/>
<path d="M36.1362 219.895L50.4891 173.376C52.016 172.46 53.8482 174.801 53.8482 174.801L41.1241 221.219L36.1362 219.895Z" fill="url(#paint38_linear_9_8201)"/>
<path d="M66.6742 167.268C66.6742 167.268 69.3209 167.472 71.3567 168.897C71.8996 169.236 72.3746 169.678 72.7818 170.22C72.9175 170.424 73.0194 170.594 73.0872 170.729C74.1052 172.663 72.9854 178.975 72.9854 178.975C72.9854 178.975 70.5424 177.957 68.5065 179.484C68.5065 179.484 68.3029 178.364 67.794 177.244C67.7261 177.041 67.6243 176.803 67.4886 176.532C67.2172 176.057 66.9118 175.649 66.5725 175.31C66.0635 174.801 65.5546 174.496 64.9438 174.292C64.9438 174.224 64.9438 174.19 64.9438 174.19C64.9438 174.19 64.9438 174.156 64.9438 174.089C64.7402 173.478 63.6204 169.406 66.6742 167.268Z" fill="url(#paint39_linear_9_8201)"/>
<g style="mix-blend-mode:multiply">
<path d="M52.3214 179.484L49.573 175.921L50.4892 173.376C50.4892 173.376 51.3035 169.304 52.2197 167.879C52.2197 167.879 52.8304 172.358 54.459 173.681L53.8483 174.801L52.3214 179.484Z" fill="#9C4657"/>
</g>
<g style="mix-blend-mode:multiply">
<path d="M49.268 304.485L28.4004 303.366C28.4004 303.366 27.8915 293.695 32.2686 272.319C36.5439 250.942 49.268 228.344 52.0164 228.039C54.7648 227.632 64.5369 230.482 64.5369 230.482C60.3634 259.187 49.268 304.485 49.268 304.485Z" fill="#D697C2"/>
</g>
<g style="mix-blend-mode:multiply">
<path d="M58.1237 227.428C58.1237 227.428 46.0104 224.68 43.5674 225.189C41.1243 225.698 31.7594 258.678 24.6339 270.995C17.5084 283.312 1.52687 273.947 1.52687 273.947L0.101807 272.013C0.101807 272.013 5.80221 278.324 17.9156 275.067C29.9271 271.81 38.6813 226.715 41.0226 224.374C43.3638 221.931 56.1897 226.614 56.1897 226.614L58.1237 227.428Z" fill="#D697C2"/>
</g>
<path d="M105.254 40.9436C105.254 40.9436 104.643 42.9795 103.524 43.9974C103.524 43.9974 105.559 43.5902 105.254 40.9436Z" fill="url(#paint40_linear_9_8201)"/>
<path d="M113.906 51.8353C113.092 46.3385 115.637 44.4044 115.637 44.4044C116.146 45.0152 117.062 47.2546 117.062 47.2546L113.906 51.8353Z" fill="#922631"/>
<path d="M116.654 42.4705C114.619 43.8956 113.906 45.3207 113.906 45.3207C114.11 42.3687 115.738 38.5006 115.738 38.5006C118.08 39.6203 116.654 42.4705 116.654 42.4705Z" fill="url(#paint41_linear_9_8201)"/>
<path style="mix-blend-mode:multiply" d="M120.624 61.0986C120.421 61.0986 120.183 61.0307 119.912 60.895C120.93 60.5896 120.624 59.2663 119.912 57.943C120.319 57.7394 121.032 57.6376 121.439 57.3323C121.642 58.1466 121.846 60.6914 120.624 61.0986ZM119.81 52.9552C119.912 53.1588 121.032 55.2964 121.439 57.3323C121.032 57.6376 120.319 57.7394 119.912 57.943C119.199 56.7215 118.08 55.3982 117.672 55.2964C116.553 54.8892 115.738 56.9251 114.517 56.009C115.535 55.3982 116.655 55.2964 117.876 54.7874C118.894 54.2785 119.708 52.7516 119.81 52.9552ZM109.936 51.8354C112.379 49.7996 115.229 54.0749 116.858 54.7874C117.265 54.991 117.571 54.991 117.876 54.7874C116.655 55.2964 115.535 55.3982 114.517 56.009C110.954 53.2605 109.529 55.9072 105.864 56.9251C104.541 57.3323 103.32 57.3323 101.996 57.3323C102.607 56.5179 103.93 56.0089 104.745 55.3982C107.9 55.6018 108.104 53.3623 109.936 51.8354ZM101.284 55.1946C102.573 55.2625 103.727 55.3303 104.745 55.3982C103.93 56.0089 102.607 56.5179 101.996 57.3323C99.5534 57.1287 97.1103 56.6197 94.8709 57.3323C95.0745 56.7215 95.4477 56.2465 95.9906 55.9072C97.1103 55.1946 98.9426 55.0928 101.284 55.1946ZM119.912 60.895C119.199 60.3861 118.283 58.9609 117.571 57.5358C117.571 57.5358 118.08 58.8592 116.553 59.8771C117.672 59.3681 118.487 58.7574 119.912 57.943C120.624 59.2663 120.93 60.5896 119.912 60.895ZM117.672 55.2964C118.08 55.3982 119.199 56.7215 119.912 57.943C118.487 58.7574 117.672 59.3681 116.553 59.8771C116.485 59.945 116.417 59.9789 116.349 59.9789C114.517 61.0986 110.649 60.386 109.834 59.5717C111.463 58.5538 112.786 56.9251 114.517 56.009C115.738 56.9251 116.553 54.8892 117.672 55.2964ZM105.864 56.9251C109.529 55.9072 110.954 53.2605 114.517 56.009C112.786 56.9251 111.463 58.5538 109.834 59.5717C109.325 59.0627 109.427 58.5538 108.715 58.3502C108.308 58.1466 104.338 59.0627 102.912 62.6255C102.607 63.4398 102.098 64.0506 101.487 64.4578C101.386 63.1345 100.673 58.961 101.996 57.3323C103.32 57.3323 104.541 57.3323 105.864 56.9251ZM101.996 57.3323C100.673 58.961 101.386 63.1345 101.487 64.4578C99.9606 65.6793 97.8229 65.4757 96.296 63.9488C94.8709 62.3201 94.0565 59.2663 94.8709 57.3323C97.1103 56.6197 99.5534 57.1287 101.996 57.3323Z" fill="url(#paint42_linear_9_8201)"/>
<path d="M113.906 50.6139C114.11 48.0691 114.822 46.0332 115.739 46.0332C116.01 46.0332 116.248 46.135 116.451 46.3386C116.587 46.5422 116.723 46.7797 116.858 47.0511C117.673 48.3744 117.978 50.8175 118.08 51.3264C118.182 52.6497 117.469 53.7695 116.757 54.2784C116.689 54.3463 116.655 54.3802 116.655 54.3802C116.383 54.5159 116.18 54.5499 116.044 54.482C115.23 54.3802 113.601 53.1587 113.906 50.6139Z" fill="url(#paint43_linear_9_8201)"/>
<path d="M101.488 48.0691C102.031 48.0691 102.505 48.137 102.913 48.2727C103.388 48.4084 103.761 48.612 104.032 48.8834C105.458 50.0032 105.356 52.2426 105.254 53.4641C105.152 54.482 104.44 55.5 103.32 56.1107C103.048 56.3143 102.743 56.484 102.404 56.6197C101.929 56.7554 101.454 56.8233 100.979 56.8233C98.841 56.7215 94.5657 54.2785 94.3621 53.4641C94.1585 52.6498 97.5177 48.1709 101.488 48.0691Z" fill="url(#paint44_linear_9_8201)"/>
<path d="M94.7695 52.4462C94.7695 52.4462 96.0928 48.0691 100.674 46.0332C100.674 46.0332 103.015 46.4404 104.643 49.2906C104.643 49.2906 100.572 46.7458 94.7695 52.4462Z" fill="#922631"/>
<path d="M102.913 48.2725C103.388 48.4082 103.761 48.6118 104.032 48.8832C105.457 50.0029 105.356 52.2424 105.254 53.4639C105.152 54.4818 104.439 55.4998 103.32 56.1105C103.048 56.3141 102.743 56.4838 102.404 56.6195C100.164 50.9191 101.589 48.985 102.913 48.2725Z" fill="#8C1A2A"/>
<path d="M116.451 46.3384C116.587 46.542 116.723 46.7795 116.858 47.0509C117.673 48.3742 117.978 50.8173 118.08 51.3262C118.182 52.6495 117.469 53.7693 116.757 54.2782C116.349 54.5836 116.044 54.4818 116.044 54.4818C114.619 49.9011 115.84 47.0509 116.451 46.3384Z" fill="#8C1A2A"/>
<g style="mix-blend-mode:multiply">
<path d="M104.542 48.3744C104.61 48.443 104.644 48.4773 104.644 48.4773C104.644 48.4773 104.61 48.443 104.542 48.3744Z" fill="#C99DC2"/>
</g>
<g style="mix-blend-mode:multiply">
<path d="M104.032 48.8833C105.457 50.003 105.356 52.2425 105.254 53.464C105.152 54.4819 104.439 55.4998 103.32 56.1106C101.793 51.8353 103.218 49.6976 104.032 48.8833Z" fill="#C99DC2"/>
</g>
<g style="mix-blend-mode:multiply">
<path d="M116.858 47.0511C117.672 48.3745 117.978 50.8175 118.079 51.3264C118.181 52.6498 117.469 53.7695 116.756 54.2784C115.229 50.1049 116.451 47.6619 116.858 47.0511Z" fill="#C99DC2"/>
</g>
<path d="M103.524 53.5658C103.524 53.5658 101.08 52.1407 99.8589 53.0568C99.8589 53.0568 101.997 54.1765 103.524 53.5658Z" fill="white"/>
<path d="M116.655 51.9372C116.655 51.9372 115.739 50.7157 114.619 51.1229C114.619 51.1229 115.026 51.9372 116.655 51.9372Z" fill="white"/>
<path d="M94.7695 52.4461C94.7695 52.4461 96.7036 48.8834 100.674 47.8655C103.524 47.1529 105.661 48.069 105.661 48.069L104.643 49.4941C100.775 46.5422 94.7695 52.4461 94.7695 52.4461Z" fill="#6D0F31"/>
<path d="M115.738 46.3386C114.211 46.4404 113.906 50.6139 113.906 50.6139C113.906 50.6139 113.906 45.9315 115.433 45.3207C116.654 44.9135 118.079 46.0333 118.079 46.0333L117.265 47.8655C117.265 47.8655 116.756 46.2368 115.738 46.3386Z" fill="#6D0F31"/>
<path style="mix-blend-mode:multiply" opacity="0.5" d="M110.649 56.0089C110.649 56.0089 109.631 57.0268 109.224 58.0448C108.817 59.1645 109.936 59.9788 111.158 59.2663C112.278 58.5537 112.787 58.5537 112.685 59.0627C112.583 59.5717 113.295 60.0806 115.128 59.877C116.858 59.7753 118.487 58.0448 117.876 56.4161C117.876 56.4161 119.098 59.2663 115.026 60.386C111.056 61.4039 110.242 59.6735 108.817 59.1645C107.391 58.6555 110.649 56.0089 110.649 56.0089Z" fill="url(#paint45_linear_9_8201)"/>
<path style="mix-blend-mode:multiply" opacity="0.5" d="M110.343 59.775C110.343 59.775 111.565 58.8589 112.176 58.9607C112.888 59.0624 112.481 59.775 111.87 60.0804C111.259 60.3858 110.343 59.775 110.343 59.775Z" fill="url(#paint46_linear_9_8201)"/>
<path style="mix-blend-mode:multiply" opacity="0.5" d="M108.511 58.5536C108.511 58.5536 108.817 58.859 111.26 58.5536C114.008 58.2482 115.942 58.4518 117.978 57.8411C117.978 57.8411 116.96 61.9128 114.517 62.1164C111.26 62.4217 108.511 58.5536 108.511 58.5536Z" fill="url(#paint47_linear_9_8201)"/>
<path d="M116.858 66.2898C116.858 66.2898 116.451 67.1042 116.349 67.7149C116.146 68.3257 116.655 69.9544 115.535 71.4812C114.415 73.1099 110.14 71.1759 107.9 69.2418C105.763 67.3077 105.05 64.5593 105.05 64.5593C105.05 64.5593 105.457 65.4755 107.9 65.7809C110.445 66.0862 112.074 65.2719 113.906 65.2719C115.84 65.1701 116.858 66.2898 116.858 66.2898Z" fill="#840F20"/>
<path d="M115.535 66.0865C115.535 66.0865 114.924 67.1044 114.619 67.2062C114.212 67.308 111.26 67.308 108.511 66.0865C108.511 66.0865 112.583 65.9847 113.805 65.7811C115.026 65.5775 115.535 66.0865 115.535 66.0865Z" fill="#560015"/>
<path d="M115.331 65.8828C115.331 65.8828 115.23 66.799 114.212 67.2061C113.194 67.5115 109.936 66.0864 109.936 66.0864C109.936 66.0864 113.703 65.8828 114.415 65.8828C115.026 65.9846 115.331 65.8828 115.331 65.8828Z" fill="#FFD3CC"/>
<path d="M116.349 66.2898C116.349 66.2898 115.637 65.9844 114.822 65.8827C114.11 65.7809 109.631 66.5952 107.697 65.9845C105.864 65.2719 104.846 64.3558 104.846 64.3558C104.846 64.3558 106.272 65.5773 108.511 65.2719C110.649 64.9665 114.11 62.1163 115.942 62.5235C117.774 62.9307 117.062 66.2898 117.062 66.2898H116.349Z" fill="#700A20"/>
<path style="mix-blend-mode:multiply" d="M106.577 62.9308C106.577 62.9308 104.643 64.0505 104.338 66.29C104.338 66.29 103.829 64.0505 104.643 63.6433C105.457 63.1344 106.577 62.9308 106.577 62.9308Z" fill="url(#paint48_linear_9_8201)"/>
<path style="mix-blend-mode:multiply" d="M87.5419 63.1343C87.033 63.7451 87.9491 66.0863 87.4402 66.4935C86.9312 66.9007 84.2846 66.1881 84.2846 64.763C84.2846 63.4397 85.5061 62.7271 85.2007 62.5236C84.9971 62.2182 84.081 61.811 83.0631 62.1164C81.9434 62.5236 81.3326 63.6433 81.4344 64.763C81.6379 65.9845 82.8595 67.206 82.8595 67.206C82.8595 67.206 80.8236 65.4755 80.62 64.5594C80.4164 63.7451 80.62 61.4038 80.62 61.4038C83.4702 60.3859 89.476 62.5236 89.476 62.5236C89.476 62.5236 88.1527 62.6254 87.5419 63.1343Z" fill="url(#paint49_linear_9_8201)"/>
<path style="mix-blend-mode:multiply" d="M85.0989 69.4455C88.7634 69.7509 90.7993 66.5953 90.7993 66.5953V67.2061C89.0688 70.2599 85.0989 69.4455 85.0989 69.4455Z" fill="url(#paint50_linear_9_8201)"/>
<g style="mix-blend-mode:multiply">
<path d="M106.679 77.7925C106.679 77.7925 102.709 82.1696 97.6192 76.6728L96.0923 70.7688C96.0923 70.7688 101.08 72.8047 105.457 73.11L106.679 77.7925Z" fill="#C98BC2"/>
</g>
<g style="mix-blend-mode:multiply">
<path d="M115.026 36.261C115.026 36.261 110.038 32.9018 104.439 33.7161C98.7389 34.5305 96.0923 42.2667 96.0923 42.2667C96.0923 42.2667 98.9424 29.7462 102.403 29.4408C105.864 29.1355 112.786 32.9018 112.786 32.9018C112.786 32.9018 114.415 34.5305 115.026 36.261Z" fill="#C98BC2"/>
</g>
<path style="mix-blend-mode:multiply" opacity="0.5" d="M99.3499 26.0818C99.3499 26.0818 98.2302 20.6868 99.8589 17.9384C101.386 15.19 105.254 12.6451 105.254 12.6451C105.254 12.6451 108.715 15.6989 108.104 18.7527C107.392 21.8065 99.3499 26.0818 99.3499 26.0818Z" fill="url(#paint51_linear_9_8201)"/>
<path style="mix-blend-mode:multiply" opacity="0.5" d="M92.7333 22.519C91.7154 18.6509 91.919 13.3576 91.919 13.3576C91.919 13.3576 93.7512 12.6451 94.7692 17.9383C95.6853 23.2315 97.3139 27.2014 97.3139 27.2014C97.3139 27.2014 93.7512 26.3871 92.7333 22.519Z" fill="url(#paint52_linear_9_8201)"/>
<path style="mix-blend-mode:multiply" opacity="0.5" d="M76.0393 51.021C77.7698 42.1651 87.4401 36.9736 83.572 43.7937C79.8057 50.6139 78.177 55.2963 78.177 55.2963C78.0752 53.2605 76.0393 51.021 76.0393 51.021Z" fill="url(#paint53_linear_9_8201)"/>
<path style="mix-blend-mode:multiply" d="M73.3926 27.2014C73.3926 27.2014 73.2908 22.9261 76.9554 22.01C80.6199 20.992 84.488 26.0817 84.488 26.0817C84.488 26.0817 77.159 19.8723 73.3926 27.2014Z" fill="url(#paint54_linear_9_8201)"/>
<path style="mix-blend-mode:multiply" d="M95.6851 28.0158C95.6851 28.0158 88.4578 30.0517 86.7274 27.2015C84.9969 24.3513 86.7274 17.8365 86.7274 17.8365L87.8471 18.7527C87.8471 18.7527 89.2722 23.7405 91.4099 25.2674C93.6493 26.8961 96.4995 27.7105 96.4995 27.7105L95.6851 28.0158Z" fill="url(#paint55_linear_9_8201)"/>
<path style="mix-blend-mode:multiply" d="M72.0695 29.9498C72.0695 29.9498 71.4588 27.405 74.6144 25.8781C77.8717 24.3512 83.4703 26.0817 83.4703 26.0817C71.7641 25.5727 72.0695 29.9498 72.0695 29.9498Z" fill="url(#paint56_linear_9_8201)"/>
<path style="mix-blend-mode:multiply" d="M80.5183 39.1112C80.5183 39.1112 79.2968 39.5183 77.4645 41.656C75.6322 43.7936 72.6802 46.9492 69.6264 43.9972C66.5727 41.0452 66.7763 37.6861 66.7763 37.6861C66.7763 37.6861 67.4888 43.3865 72.273 42.2667C77.1591 41.2488 82.4523 36.9735 82.4523 36.9735L80.5183 39.1112Z" fill="url(#paint57_linear_9_8201)"/>
<path style="mix-blend-mode:multiply" d="M79.2969 31.6803C73.9019 30.8659 71.9678 35.8538 71.9678 35.8538C71.9678 35.8538 70.4409 31.4767 76.0395 30.8659C81.5363 30.2552 85.5062 34.0215 85.5062 34.0215C85.5062 34.0215 83.4704 32.291 79.2969 31.6803Z" fill="url(#paint58_linear_9_8201)"/>
<path style="mix-blend-mode:multiply" d="M117.978 30.4589C123.577 30.6625 123.475 36.8719 122.864 41.3507C122.253 45.7278 122.253 52.4462 122.253 52.4462L120.421 50.3085C120.285 50.0371 120.15 49.7656 120.014 49.4942C117.876 45.0153 120.116 34.836 111.769 32.5965C111.769 32.5965 110.445 31.884 108.613 31.2732L108.104 30.8661C108.104 30.8661 112.379 30.1535 117.978 30.4589Z" fill="url(#paint59_linear_9_8201)"/>
<path style="mix-blend-mode:multiply" d="M120.93 97.8458C120.93 97.8458 121.745 101.816 122.457 102.426C123.068 103.139 132.331 109.247 132.127 110.366C131.924 111.486 131.517 119.731 131.109 122.785C130.804 125.941 129.99 140.497 129.888 147.215C129.786 153.934 131.415 166.76 131.517 167.065C131.618 167.269 128.361 158.005 128.361 158.005L129.175 146.299C129.175 146.299 129.277 140.395 129.175 139.784C129.074 139.072 132.331 113.42 130.804 110.57C129.175 107.72 123.882 104.666 122.152 102.528C120.421 100.391 118.793 96.5225 118.793 96.5225L116.655 89.397L120.727 94.792L120.93 97.8458Z" fill="url(#paint60_linear_9_8201)"/>
<path style="mix-blend-mode:multiply" d="M115.535 96.726C115.535 96.726 108.104 96.5224 105.966 97.5403C103.727 98.5582 100.673 103.139 100.673 103.139C100.673 103.139 102.302 90.1094 103.523 89.3969C104.745 88.6843 115.535 96.726 115.535 96.726Z" fill="url(#paint61_linear_9_8201)"/>
<path d="M105.152 89.4986C110.343 93.3668 118.792 96.5223 118.792 96.5223L120.014 99.4743C120.014 99.4743 117.367 97.5403 113.804 95.8098C110.343 94.0793 105.457 90.9237 104.541 91.4327C103.625 92.0435 100.673 103.139 100.673 103.139C93.5474 99.0672 91.8169 90.2112 91.8169 90.2112C94.1581 85.8341 98.2298 79.4211 98.2298 79.4211C98.2298 79.4211 99.8586 85.7323 105.152 89.4986Z" fill="url(#paint62_linear_9_8201)"/>
<path style="mix-blend-mode:multiply" opacity="0.5" d="M97.2124 117.695C97.2124 117.695 101.997 120.342 105.152 122.174C108.206 123.905 108.613 136.527 108.613 136.527C108.613 136.527 104.033 126.348 97.2124 117.695Z" fill="url(#paint63_linear_9_8201)"/>
<path style="mix-blend-mode:multiply" opacity="0.5" d="M91.6135 127.264C91.6135 127.264 89.7812 121.971 84.1826 116.983C84.1826 116.983 90.9009 117.899 93.8529 122.683L91.6135 127.264Z" fill="url(#paint64_linear_9_8201)"/>
<path style="mix-blend-mode:multiply" opacity="0.5" d="M76.2429 116.27C76.2429 116.27 84.1827 119.935 87.9491 126.246C87.9491 126.246 82.1469 120.851 77.668 118.51C77.668 118.51 75.8357 116.881 76.2429 116.27Z" fill="url(#paint65_linear_9_8201)"/>
<path style="mix-blend-mode:multiply" opacity="0.5" d="M88.8652 131.437C88.8652 131.437 84.8952 125.635 81.1289 123.192C81.1289 123.192 89.0688 127.976 89.7813 128.485C90.4939 128.893 91.8172 129.198 91.8172 129.198C91.8172 129.198 88.967 130.521 88.8652 131.437Z" fill="url(#paint66_linear_9_8201)"/>
<path style="mix-blend-mode:multiply" opacity="0.5" d="M66.4709 122.276C66.4709 122.276 70.0337 121.462 76.1413 125.737C82.3506 130.012 84.7937 137.341 84.7937 137.341L82.4524 136.832C82.4524 136.832 80.9255 133.88 78.5843 131.437C76.243 128.994 69.8301 127.162 69.8301 127.162L70.0337 126.042C70.0337 126.042 66.6745 123.294 66.4709 122.276Z" fill="url(#paint67_linear_9_8201)"/>
<path style="mix-blend-mode:multiply" opacity="0.5" d="M105.356 138.766C112.787 139.581 120.625 149.353 120.625 149.353C116.655 145.383 107.697 140.802 107.697 140.802L105.356 138.766Z" fill="url(#paint68_linear_9_8201)"/>
<path style="mix-blend-mode:multiply" opacity="0.5" d="M120.014 109.247C120.014 109.247 119.912 114.845 118.487 115.66C116.655 116.576 102.302 111.079 102.302 111.079L120.014 109.247Z" fill="url(#paint69_linear_9_8201)"/>
<path style="mix-blend-mode:multiply" opacity="0.5" d="M138.54 113.42L132.127 108.636L138.642 111.079L138.54 113.42Z" fill="url(#paint70_linear_9_8201)"/>
<path style="mix-blend-mode:multiply" opacity="0.4" d="M127.038 158.005C127.038 158.005 126.529 166.963 125.307 167.574C124.086 168.185 112.685 160.448 112.685 160.448C112.685 160.448 120.625 163.604 123.068 163.197C125.409 162.891 127.038 158.005 127.038 158.005Z" fill="url(#paint71_linear_9_8201)"/>
<g style="mix-blend-mode:multiply" opacity="0.5">
<path d="M106.883 117.186L119.607 137.748L113.906 122.276L107.901 117.186C108.376 117.186 108.783 117.186 109.122 117.186C115.942 117.186 116.451 116.576 120.727 115.659C124.9 114.641 131.109 111.893 131.109 111.893L132.84 112.3L138.642 111.079C138.54 118.51 134.163 136.629 134.163 136.629L130.601 143.143C130.601 143.143 125.714 146.91 120.727 144.976C115.637 143.042 108.613 136.527 108.613 136.527C105.865 127.875 97.2124 117.695 97.2124 117.695C97.2124 117.695 103.015 117.288 106.883 117.186Z" fill="#D5A4CF"/>
</g>
<path d="M129.99 107.312C129.99 107.312 133.349 107.007 135.385 106.193C135.385 106.193 139.558 108.229 142.408 112.3C142.408 112.3 138.133 111.588 135.69 110.468C133.145 109.45 129.99 107.312 129.99 107.312Z" fill="#93D4F6"/>
<path d="M116.655 115.151C113.295 115.151 100.673 110.468 100.673 110.468C108.613 108.127 120.014 107.923 120.014 107.923C120.014 107.923 120.014 115.252 116.655 115.151Z" fill="#93D4F6"/>
<path style="mix-blend-mode:multiply" opacity="0.5" d="M120.014 230.482C120.115 229.769 119.708 226.614 119.199 222.237C121.642 215.315 123.576 205.644 123.882 203.914C123.95 203.71 123.984 203.609 123.984 203.609C123.984 203.609 122.558 215.824 125.205 223.153C127.75 230.584 134.265 237.098 137.013 236.691C138.743 236.488 139.762 234.554 140.27 232.925C140.203 233.264 140.135 233.536 140.067 233.739C138.947 236.488 136.708 239.643 134.57 244.631C132.432 249.517 130.6 267.433 130.6 267.433C130.6 267.433 126.325 272.013 118.385 268.043C118.385 268.043 114.822 254.709 115.229 248.092C115.738 241.374 119.708 233.23 120.014 230.482Z" fill="url(#paint72_linear_9_8201)"/>
<path style="mix-blend-mode:multiply" opacity="0.5" d="M91.3086 249.822C92.5301 242.9 96.9072 236.793 97.6197 230.38C97.8233 228.446 97.3144 223.56 96.5 217.35C96.6018 218.063 98.8413 229.26 100.47 232.518C102.099 235.877 106.069 237.913 110.446 233.027C114.619 228.446 118.894 222.542 119.2 222.237C117.673 226.919 113.907 231.601 112.176 236.488C110.446 241.475 106.374 267.433 106.374 267.433C100.673 269.468 94.4642 266.109 94.4642 266.109C94.4642 266.109 90.1888 256.643 91.3086 249.822Z" fill="url(#paint73_linear_9_8201)"/>
<g style="mix-blend-mode:multiply">
<path d="M130.6 267.433L130.295 269.061C130.295 269.061 125.103 271.403 118.792 269.672L118.385 268.043C118.385 268.043 124.289 272.624 130.6 267.433Z" fill="#EA8BC2"/>
</g>
<g style="mix-blend-mode:multiply">
<path d="M106.374 267.433L106.272 267.942C106.272 267.942 100.164 269.265 94.7692 267.433L94.4639 266.109C94.4639 266.109 99.9606 269.061 106.374 267.433Z" fill="#EA8BC2"/>
</g>
<g style="mix-blend-mode:multiply">
<path d="M132.738 289.623C132.738 289.623 128.666 289.114 125.307 291.964C125.307 291.964 125.816 287.995 128.768 286.264C131.72 284.635 133.145 284.534 133.756 285.043C134.265 285.552 132.738 289.623 132.738 289.623Z" fill="#BF8BC2"/>
</g>
<g style="mix-blend-mode:multiply">
<path d="M106.374 290.743C106.374 290.743 101.793 287.486 97.8231 288.198C97.8231 288.198 96.7033 282.702 99.8589 283.109C103.014 283.618 106.374 290.743 106.374 290.743Z" fill="#BF8BC2"/>
</g>
<path d="M157.677 310.084L116.451 308.455L116.655 307.234L157.474 309.168L157.677 310.084Z" fill="url(#paint74_linear_9_8201)"/>
<path d="M108.409 309.677C108.409 309.677 106.475 309.881 104.745 309.779C103.014 309.677 86.0149 310.084 86.0149 310.084L86.2185 308.964C86.2185 308.964 90.6974 308.455 95.4817 308.659C100.266 308.863 108.409 309.168 108.409 309.168V309.677Z" fill="url(#paint75_linear_9_8201)"/>
<g style="mix-blend-mode:multiply" opacity="0.5">
<path d="M116.553 311C116.146 308.15 117.062 305.096 117.062 305.096L117.978 300.414C117.978 300.414 123.577 298.072 129.175 300.006C134.774 301.941 143.935 311 143.935 311H116.553Z" fill="#C98BC2"/>
</g>
<g style="mix-blend-mode:multiply" opacity="0.5">
<path d="M101.997 311C101.997 311 102.302 306.216 102.811 303.366C103.32 300.617 107.392 296.953 107.392 296.953L107.901 305.503L108.715 311H101.997Z" fill="#C98BC2"/>
</g>
<g style="mix-blend-mode:multiply">
<path d="M54.2559 169.304C54.9684 169.61 56.3935 170.729 56.9024 171.238C57.4114 171.849 59.1419 171.951 60.058 172.358C61.0759 172.867 62.7046 173.172 62.7046 173.172C62.7046 173.172 63.6208 168.083 64.5369 167.065C65.453 165.945 72.5786 164.011 72.5786 164.011C72.6804 164.927 71.866 167.472 71.357 168.897C71.8999 169.236 72.3749 169.677 72.7821 170.22C69.2194 169.711 67.7943 177.244 67.7943 177.244C67.7264 177.04 67.6247 176.803 67.4889 176.531C66.6746 177.142 64.9441 178.364 63.519 178.262C63.519 178.262 62.0939 177.244 61.3814 177.142C60.567 177.04 59.4473 176.939 58.8365 176.43C58.124 175.819 57.4114 175.514 57.0042 175.31C56.597 175.106 55.6809 174.088 54.5612 173.885C53.5433 173.579 52.22 168.999 52.1182 166.759C52.1182 166.759 53.4415 168.999 54.2559 169.304Z" fill="#E78BA9"/>
</g>
<g style="mix-blend-mode:multiply">
<path d="M151.773 168.592C152.995 169.406 153.911 170.729 154.013 170.831C154.081 170.831 154.081 170.831 154.013 170.831C154.42 172.053 155.234 172.155 155.54 174.089C155.845 176.124 154.725 178.873 154.013 178.975C153.3 179.178 153.3 174.394 151.977 172.155C150.552 169.915 148.109 169.406 147.803 168.592C147.803 168.592 150.45 167.777 151.773 168.592Z" fill="#EA8BC2"/>
</g>
<g style="mix-blend-mode:multiply">
<path d="M125.612 177.346L132.84 174.598L129.175 177.55L126.223 185.591C126.223 185.591 126.019 179.687 125.612 177.346Z" fill="#C98BC2"/>
</g>
<path style="mix-blend-mode:multiply" opacity="0.8" d="M29.7236 303.467C29.7236 303.467 41.2263 271.708 47.1303 272.013C53.0342 272.319 49.2679 304.485 49.2679 304.485L29.7236 303.467Z" fill="url(#paint76_linear_9_8201)"/>
<path style="mix-blend-mode:multiply" opacity="0.5" d="M133.45 235.062C133.45 235.062 127.343 227.835 127.037 227.224C126.63 226.614 123.474 237.607 133.45 235.062Z" fill="url(#paint77_linear_9_8201)"/>
<path style="mix-blend-mode:multiply" opacity="0.5" d="M115.128 228.039C115.128 228.039 114.11 232.212 111.972 234.554C109.835 236.997 104.134 238.116 104.134 238.116C104.134 238.116 109.326 233.739 111.056 232.314C112.888 230.889 115.128 228.039 115.128 228.039Z" fill="url(#paint78_linear_9_8201)"/>
<path style="mix-blend-mode:multiply" d="M98.6375 231.296C98.0268 229.464 98.5357 226.715 98.5357 226.715C99.7573 231.703 101.182 233.739 101.182 233.739C101.182 233.739 99.2483 233.23 98.6375 231.296Z" fill="url(#paint79_linear_9_8201)"/>
<g style="mix-blend-mode:multiply">
<path d="M22.0892 302.449C22.0892 302.449 22.191 289.318 18.6283 283.719C15.1673 278.223 1.11987 277.408 1.11987 277.408C1.11987 277.408 14.1494 277.612 18.9336 283.007C23.6161 288.3 24.634 302.856 24.634 302.856L22.0892 302.449Z" fill="#D697C2"/>
</g>
<path d="M50.3873 264.684L40.1062 263.259L42.1421 254.709L51.9142 257.05L50.3873 264.684Z" fill="#FF939F"/>
<path d="M22.9036 260.613L10.9939 259.696L12.1136 254.709L23.9215 255.93L22.9036 260.613Z" fill="#FFD29F"/>
<g style="mix-blend-mode:multiply">
<path d="M41.3279 262.547L42.4476 255.523L50.7946 257.66L49.5731 263.666L41.3279 262.547Z" fill="#EA8BC2"/>
</g>
<g style="mix-blend-mode:multiply">
<path d="M12.4187 258.577L13.1313 255.93L22.598 257.05L22.2926 259.697L12.4187 258.577Z" fill="#EA8BC2"/>
</g>
<path d="M11.706 284.025L12.8258 290.642L3.5626 292.779L2.8501 286.977L11.706 284.025Z" fill="#FFD29F"/>
<g style="mix-blend-mode:multiply">
<path d="M11.2993 285.348L11.8082 290.132L4.68272 291.557L3.66479 287.893L11.2993 285.348Z" fill="#EA8BC2"/>
</g>
<path d="M41.0225 224.374C41.0225 224.374 20.1549 224.171 17.3047 216.434C17.3047 216.434 34.2023 217.249 54.9681 226.206C54.9681 226.206 47.3336 223.662 41.0225 224.374Z" fill="url(#paint80_linear_9_8201)"/>
<path d="M52.0161 228.039L44.3816 225.189L57.3093 227.225L64.5366 230.482C64.5366 230.482 56.0878 230.38 52.0161 228.039Z" fill="url(#paint81_linear_9_8201)"/>
<path style="mix-blend-mode:multiply" opacity="0.5" d="M85.0988 95.708C85.0988 95.708 91.2064 97.9475 94.7692 104.157C94.7692 104.157 89.9849 98.2528 84.488 96.7259L85.0988 95.708Z" fill="url(#paint82_linear_9_8201)"/>
<path d="M49.2678 304.485V305.707L28.9092 305.096L0 303.976V299.192L28.4002 303.366L49.2678 304.485Z" fill="url(#paint83_linear_9_8201)"/>
<g style="mix-blend-mode:multiply">
<path d="M115.942 87.6664C116.858 88.7861 118.487 95.4027 118.487 95.4027L113.397 86.1395C113.397 86.1395 114.924 86.5467 115.942 87.6664Z" fill="#C98BC2"/>
</g>
<g style="mix-blend-mode:multiply">
<path d="M89.7816 60.1824C83.1651 56.4161 80.2131 58.0448 80.2131 58.0448L80.0095 57.3322C85.7099 56.3143 87.2368 52.4462 87.2368 52.4462C87.3386 54.0749 89.7816 60.1824 89.7816 60.1824Z" fill="#C98BC2"/>
</g>
<defs>
<linearGradient id="paint0_linear_9_8201" x1="58.2255" y1="174.801" x2="58.2255" y2="165.029" gradientUnits="userSpaceOnUse">
<stop stop-color="#FF4C59"/>
<stop offset="1" stop-color="#FF813B"/>
</linearGradient>
<linearGradient id="paint1_linear_9_8201" x1="181.09" y1="171.951" x2="183.024" y2="171.442" gradientUnits="userSpaceOnUse">
<stop stop-color="#B39AD1"/>
<stop offset="1" stop-color="#958EFF"/>
</linearGradient>
<linearGradient id="paint2_linear_9_8201" x1="182.617" y1="172.46" x2="185.772" y2="171.544" gradientUnits="userSpaceOnUse">
<stop stop-color="#FF273D"/>
<stop offset="1" stop-color="#FF3748"/>
</linearGradient>
<linearGradient id="paint3_linear_9_8201" x1="143.325" y1="188.747" x2="182.515" y2="177.957" gradientUnits="userSpaceOnUse">
<stop stop-color="#D0C7F8"/>
<stop offset="1" stop-color="#E1D6FF"/>
</linearGradient>
<linearGradient id="paint4_linear_9_8201" x1="144.953" y1="187.525" x2="182.311" y2="177.346" gradientUnits="userSpaceOnUse">
<stop stop-color="#8B8BE0"/>
<stop offset="1" stop-color="#A177B7"/>
</linearGradient>
<linearGradient id="paint5_linear_9_8201" x1="121.643" y1="99.2708" x2="121.643" y2="70.0563" gradientUnits="userSpaceOnUse">
<stop stop-color="#933B23"/>
<stop offset="1" stop-color="#8B2A24"/>
</linearGradient>
<linearGradient id="paint6_linear_9_8201" x1="123.475" y1="73.212" x2="123.475" y2="29.3392" gradientUnits="userSpaceOnUse">
<stop stop-color="#933B23"/>
<stop offset="1" stop-color="#AE4031"/>
</linearGradient>
<linearGradient id="paint7_linear_9_8201" x1="167.857" y1="178.873" x2="167.857" y2="128.485" gradientUnits="userSpaceOnUse">
<stop stop-color="#932A23"/>
<stop offset="1" stop-color="#A43A1C"/>
</linearGradient>
<linearGradient id="paint8_linear_9_8201" x1="104.643" y1="38.8058" x2="93.6494" y2="38.8058" gradientUnits="userSpaceOnUse">
<stop stop-color="#600E19"/>
<stop offset="1" stop-color="#741B17"/>
</linearGradient>
<linearGradient id="paint9_linear_9_8201" x1="85.5062" y1="178.262" x2="85.5062" y2="124.821" gradientUnits="userSpaceOnUse">
<stop stop-color="#933B23"/>
<stop offset="1" stop-color="#AE4031"/>
</linearGradient>
<linearGradient id="paint10_linear_9_8201" x1="132.636" y1="288.606" x2="132.636" y2="267.433" gradientUnits="userSpaceOnUse">
<stop stop-color="#933B23"/>
<stop offset="1" stop-color="#933835"/>
</linearGradient>
<linearGradient id="paint11_linear_9_8201" x1="108.409" y1="289.624" x2="108.409" y2="266.109" gradientUnits="userSpaceOnUse">
<stop stop-color="#933B23"/>
<stop offset="1" stop-color="#933835"/>
</linearGradient>
<linearGradient id="paint12_linear_9_8201" x1="98.3318" y1="67.206" x2="98.3318" y2="14.4773" gradientUnits="userSpaceOnUse">
<stop stop-color="#600E19"/>
<stop offset="1" stop-color="#741B17"/>
</linearGradient>
<linearGradient id="paint13_linear_9_8201" x1="99.3498" y1="26.0817" x2="99.3498" y2="15.4953" gradientUnits="userSpaceOnUse">
<stop stop-color="#600E19"/>
<stop offset="1" stop-color="#741B17"/>
</linearGradient>
<linearGradient id="paint14_linear_9_8201" x1="94.0564" y1="79.6248" x2="94.0564" y2="68.5294" gradientUnits="userSpaceOnUse">
<stop stop-color="#600E19"/>
<stop offset="1" stop-color="#741B17"/>
</linearGradient>
<linearGradient id="paint15_linear_9_8201" x1="92.7333" y1="69.1401" x2="92.7333" y2="58.7573" gradientUnits="userSpaceOnUse">
<stop stop-color="#933B23"/>
<stop offset="1" stop-color="#8B2A24"/>
</linearGradient>
<linearGradient id="paint16_linear_9_8201" x1="105.05" y1="24.1477" x2="75.7339" y2="24.1477" gradientUnits="userSpaceOnUse">
<stop stop-color="#FFB159"/>
<stop offset="1" stop-color="#FFA73B"/>
</linearGradient>
<linearGradient id="paint17_linear_9_8201" x1="108.002" y1="-1.8095" x2="97.5173" y2="-1.8095" gradientUnits="userSpaceOnUse">
<stop stop-color="#FFB159"/>
<stop offset="1" stop-color="#FFA73B"/>
</linearGradient>
<linearGradient id="paint18_linear_9_8201" x1="145.259" y1="133.27" x2="145.259" y2="95.4027" gradientUnits="userSpaceOnUse">
<stop stop-color="#4781CF"/>
<stop offset="1" stop-color="#64A2FF"/>
</linearGradient>
<linearGradient id="paint19_linear_9_8201" x1="145.259" y1="145.79" x2="145.259" y2="115.15" gradientUnits="userSpaceOnUse">
<stop stop-color="white"/>
<stop offset="1" stop-color="#885286"/>
</linearGradient>
<linearGradient id="paint20_linear_9_8201" x1="97.3137" y1="3.68739" x2="83.5717" y2="3.68739" gradientUnits="userSpaceOnUse">
<stop stop-color="#FFB159"/>
<stop offset="1" stop-color="#FFA73B"/>
</linearGradient>
<linearGradient id="paint21_linear_9_8201" x1="145.157" y1="267.331" x2="145.157" y2="158.005" gradientUnits="userSpaceOnUse">
<stop stop-color="#C3043D"/>
<stop offset="1" stop-color="#EF235C"/>
</linearGradient>
<linearGradient id="paint22_linear_9_8201" x1="128.158" y1="266.72" x2="128.158" y2="155.053" gradientUnits="userSpaceOnUse">
<stop stop-color="#CD0451"/>
<stop offset="1" stop-color="#FF4F68"/>
</linearGradient>
<linearGradient id="paint23_linear_9_8201" x1="106.781" y1="251.248" x2="106.781" y2="156.58" gradientUnits="userSpaceOnUse">
<stop stop-color="#FFB698"/>
<stop offset="1" stop-color="#FFF2CC"/>
</linearGradient>
<linearGradient id="paint24_linear_9_8201" x1="142.917" y1="194.244" x2="142.917" y2="151.592" gradientUnits="userSpaceOnUse">
<stop stop-color="white"/>
<stop offset="1" stop-color="#9F3D59"/>
</linearGradient>
<linearGradient id="paint25_linear_9_8201" x1="145.768" y1="171.951" x2="145.768" y2="79.6249" gradientUnits="userSpaceOnUse">
<stop stop-color="#47A4E0"/>
<stop offset="1" stop-color="#64B6FF"/>
</linearGradient>
<linearGradient id="paint26_linear_9_8201" x1="129.277" y1="100.187" x2="129.277" y2="81.1516" gradientUnits="userSpaceOnUse">
<stop stop-color="#6FBDF6"/>
<stop offset="1" stop-color="#97CEFF"/>
</linearGradient>
<linearGradient id="paint27_linear_9_8201" x1="158.899" y1="306.928" x2="158.899" y2="284.738" gradientUnits="userSpaceOnUse">
<stop stop-color="#D191FF"/>
<stop offset="1" stop-color="#CF95FF"/>
</linearGradient>
<linearGradient id="paint28_linear_9_8201" x1="109.936" y1="307.844" x2="109.936" y2="282.905" gradientUnits="userSpaceOnUse">
<stop stop-color="#D191FF"/>
<stop offset="1" stop-color="#CF95FF"/>
</linearGradient>
<linearGradient id="paint29_linear_9_8201" x1="157.983" y1="303.06" x2="116.756" y2="303.06" gradientUnits="userSpaceOnUse">
<stop stop-color="#FFC4BA"/>
<stop offset="1" stop-color="#FFE7E5"/>
</linearGradient>
<linearGradient id="paint30_linear_9_8201" x1="108.715" y1="301.432" x2="85.9131" y2="301.432" gradientUnits="userSpaceOnUse">
<stop stop-color="#FFC4BA"/>
<stop offset="1" stop-color="#FFE7E5"/>
</linearGradient>
<linearGradient id="paint31_linear_9_8201" x1="165.007" y1="165.64" x2="165.007" y2="163.298" gradientUnits="userSpaceOnUse">
<stop stop-color="#933B23"/>
<stop offset="1" stop-color="#8B2A24"/>
</linearGradient>
<linearGradient id="paint32_linear_9_8201" x1="66.5726" y1="304.485" x2="66.5726" y2="216.434" gradientUnits="userSpaceOnUse">
<stop stop-color="#FF4C59"/>
<stop offset="1" stop-color="#FF813B"/>
</linearGradient>
<linearGradient id="paint33_linear_9_8201" x1="41.5315" y1="303.976" x2="26.9751" y2="303.976" gradientUnits="userSpaceOnUse">
<stop stop-color="#7F0E19"/>
<stop offset="1" stop-color="#6F2233"/>
</linearGradient>
<linearGradient id="paint34_linear_9_8201" x1="16.3884" y1="301.941" x2="3.5625" y2="301.941" gradientUnits="userSpaceOnUse">
<stop stop-color="#7F0E19"/>
<stop offset="1" stop-color="#6F2233"/>
</linearGradient>
<linearGradient id="paint35_linear_9_8201" x1="104.847" y1="51.5299" x2="94.7695" y2="51.5299" gradientUnits="userSpaceOnUse">
<stop stop-color="#AE184F"/>
<stop offset="1" stop-color="white"/>
</linearGradient>
<linearGradient id="paint36_linear_9_8201" x1="118.182" y1="48.7815" x2="115.331" y2="48.7815" gradientUnits="userSpaceOnUse">
<stop stop-color="#AE184F"/>
<stop offset="1" stop-color="white"/>
</linearGradient>
<linearGradient id="paint37_linear_9_8201" x1="72.9855" y1="175.921" x2="58.1238" y2="175.921" gradientUnits="userSpaceOnUse">
<stop stop-color="#7F0E19"/>
<stop offset="1" stop-color="#8B3D4C"/>
</linearGradient>
<linearGradient id="paint38_linear_9_8201" x1="53.8482" y1="171.137" x2="36.1362" y2="171.137" gradientUnits="userSpaceOnUse">
<stop stop-color="#7F0E19"/>
<stop offset="1" stop-color="#8B3D4C"/>
</linearGradient>
<linearGradient id="paint39_linear_9_8201" x1="75.2249" y1="179.484" x2="75.2249" y2="167.268" gradientUnits="userSpaceOnUse">
<stop stop-color="#FF4C59"/>
<stop offset="1" stop-color="#FF813B"/>
</linearGradient>
<linearGradient id="paint40_linear_9_8201" x1="106.985" y1="43.9974" x2="106.985" y2="40.9436" gradientUnits="userSpaceOnUse">
<stop stop-color="#600E19"/>
<stop offset="1" stop-color="#741B17"/>
</linearGradient>
<linearGradient id="paint41_linear_9_8201" x1="118.69" y1="45.3207" x2="118.69" y2="38.5006" gradientUnits="userSpaceOnUse">
<stop stop-color="#600E19"/>
<stop offset="1" stop-color="#741B17"/>
</linearGradient>
<linearGradient id="paint42_linear_9_8201" x1="120.421" y1="61.2004" x2="119.708" y2="58.452" gradientUnits="userSpaceOnUse">
<stop stop-color="white"/>
<stop offset="1" stop-color="#FF9CA4"/>
</linearGradient>
<linearGradient id="paint43_linear_9_8201" x1="119.912" y1="54.482" x2="119.912" y2="46.0332" gradientUnits="userSpaceOnUse">
<stop stop-color="#FFC4BA"/>
<stop offset="1" stop-color="#FFD9D6"/>
</linearGradient>
<linearGradient id="paint44_linear_9_8201" x1="107.29" y1="56.8233" x2="107.29" y2="48.0691" gradientUnits="userSpaceOnUse">
<stop stop-color="#FFC4BA"/>
<stop offset="1" stop-color="#FFD9D6"/>
</linearGradient>
<linearGradient id="paint45_linear_9_8201" x1="108.511" y1="54.8892" x2="116.247" y2="52.9551" gradientUnits="userSpaceOnUse">
<stop stop-color="#DB666A"/>
<stop offset="1" stop-color="#C11C51"/>
</linearGradient>
<linearGradient id="paint46_linear_9_8201" x1="109.732" y1="57.6373" x2="111.768" y2="57.1284" gradientUnits="userSpaceOnUse">
<stop stop-color="#8C1363"/>
<stop offset="1" stop-color="#DB6F53"/>
</linearGradient>
<linearGradient id="paint47_linear_9_8201" x1="108.003" y1="56.7213" x2="117.062" y2="54.4819" gradientUnits="userSpaceOnUse">
<stop stop-color="white"/>
<stop offset="1" stop-color="#C11C51"/>
</linearGradient>
<linearGradient id="paint48_linear_9_8201" x1="106.577" y1="60.8949" x2="104.44" y2="60.8949" gradientUnits="userSpaceOnUse">
<stop stop-color="#AE184F"/>
<stop offset="1" stop-color="white"/>
</linearGradient>
<linearGradient id="paint49_linear_9_8201" x1="89.476" y1="59.2662" x2="80.62" y2="59.2662" gradientUnits="userSpaceOnUse">
<stop stop-color="#AE184F"/>
<stop offset="1" stop-color="white"/>
</linearGradient>
<linearGradient id="paint50_linear_9_8201" x1="90.7993" y1="64.9666" x2="85.0989" y2="64.9666" gradientUnits="userSpaceOnUse">
<stop stop-color="#AE184F"/>
<stop offset="1" stop-color="white"/>
</linearGradient>
<linearGradient id="paint51_linear_9_8201" x1="109.936" y1="26.0818" x2="109.936" y2="12.6451" gradientUnits="userSpaceOnUse">
<stop stop-color="#E5428E"/>
<stop offset="1" stop-color="white"/>
</linearGradient>
<linearGradient id="paint52_linear_9_8201" x1="99.248" y1="27.2014" x2="99.248" y2="13.8666" gradientUnits="userSpaceOnUse">
<stop stop-color="#E5428E"/>
<stop offset="1" stop-color="white"/>
</linearGradient>
<linearGradient id="paint53_linear_9_8201" x1="86.015" y1="55.2963" x2="86.015" y2="43.5902" gradientUnits="userSpaceOnUse">
<stop stop-color="#AE184F"/>
<stop offset="1" stop-color="white"/>
</linearGradient>
<linearGradient id="paint54_linear_9_8201" x1="84.488" y1="20.3813" x2="73.5962" y2="20.3813" gradientUnits="userSpaceOnUse">
<stop stop-color="white"/>
<stop offset="1" stop-color="#AE184F"/>
</linearGradient>
<linearGradient id="paint55_linear_9_8201" x1="98.3318" y1="27.6087" x2="98.3318" y2="17.8365" gradientUnits="userSpaceOnUse">
<stop stop-color="#AE184F"/>
<stop offset="1" stop-color="white"/>
</linearGradient>
<linearGradient id="paint56_linear_9_8201" x1="83.4703" y1="23.5369" x2="72.4767" y2="23.5369" gradientUnits="userSpaceOnUse">
<stop stop-color="white"/>
<stop offset="1" stop-color="#AE184F"/>
</linearGradient>
<linearGradient id="paint57_linear_9_8201" x1="82.4523" y1="35.3448" x2="66.878" y2="35.3448" gradientUnits="userSpaceOnUse">
<stop stop-color="white"/>
<stop offset="1" stop-color="#AE184F"/>
</linearGradient>
<linearGradient id="paint58_linear_9_8201" x1="85.5062" y1="29.0337" x2="72.9857" y2="29.0337" gradientUnits="userSpaceOnUse">
<stop stop-color="white"/>
<stop offset="1" stop-color="#AE184F"/>
</linearGradient>
<linearGradient id="paint59_linear_9_8201" x1="125.104" y1="52.4462" x2="125.104" y2="30.5607" gradientUnits="userSpaceOnUse">
<stop stop-color="white"/>
<stop offset="1" stop-color="#AE184F"/>
</linearGradient>
<linearGradient id="paint60_linear_9_8201" x1="134.163" y1="166.76" x2="134.163" y2="89.397" gradientUnits="userSpaceOnUse">
<stop stop-color="#885286"/>
<stop offset="1" stop-color="white"/>
</linearGradient>
<linearGradient id="paint61_linear_9_8201" x1="117.571" y1="103.139" x2="117.571" y2="90.0076" gradientUnits="userSpaceOnUse">
<stop stop-color="white"/>
<stop offset="1" stop-color="#885286"/>
</linearGradient>
<linearGradient id="paint62_linear_9_8201" x1="122.049" y1="103.139" x2="122.049" y2="79.4211" gradientUnits="userSpaceOnUse">
<stop stop-color="#6FBDF6"/>
<stop offset="1" stop-color="#97CEFF"/>
</linearGradient>
<linearGradient id="paint63_linear_9_8201" x1="110.649" y1="136.527" x2="110.649" y2="117.695" gradientUnits="userSpaceOnUse">
<stop stop-color="white"/>
<stop offset="1" stop-color="#885286"/>
</linearGradient>
<linearGradient id="paint64_linear_9_8201" x1="95.8888" y1="127.264" x2="95.8888" y2="116.983" gradientUnits="userSpaceOnUse">
<stop stop-color="#885286"/>
<stop offset="1" stop-color="white"/>
</linearGradient>
<linearGradient id="paint65_linear_9_8201" x1="89.8831" y1="126.246" x2="89.8831" y2="116.27" gradientUnits="userSpaceOnUse">
<stop stop-color="white"/>
<stop offset="1" stop-color="#885286"/>
</linearGradient>
<linearGradient id="paint66_linear_9_8201" x1="93.853" y1="131.437" x2="93.853" y2="123.192" gradientUnits="userSpaceOnUse">
<stop stop-color="#885286"/>
<stop offset="1" stop-color="white"/>
</linearGradient>
<linearGradient id="paint67_linear_9_8201" x1="86.8295" y1="137.341" x2="86.8295" y2="122.989" gradientUnits="userSpaceOnUse">
<stop stop-color="white"/>
<stop offset="1" stop-color="#885286"/>
</linearGradient>
<linearGradient id="paint68_linear_9_8201" x1="122.661" y1="149.353" x2="122.661" y2="138.766" gradientUnits="userSpaceOnUse">
<stop stop-color="white"/>
<stop offset="1" stop-color="#885286"/>
</linearGradient>
<linearGradient id="paint69_linear_9_8201" x1="122.05" y1="115.049" x2="122.05" y2="109.247" gradientUnits="userSpaceOnUse">
<stop stop-color="#885286"/>
<stop offset="1" stop-color="white"/>
</linearGradient>
<linearGradient id="paint70_linear_9_8201" x1="140.678" y1="113.42" x2="140.678" y2="108.636" gradientUnits="userSpaceOnUse">
<stop stop-color="#885286"/>
<stop offset="1" stop-color="white"/>
</linearGradient>
<linearGradient id="paint71_linear_9_8201" x1="129.074" y1="167.065" x2="129.074" y2="158.005" gradientUnits="userSpaceOnUse">
<stop stop-color="#885286"/>
<stop offset="1" stop-color="white"/>
</linearGradient>
<linearGradient id="paint72_linear_9_8201" x1="142.306" y1="267.433" x2="142.306" y2="203.609" gradientUnits="userSpaceOnUse">
<stop stop-color="#9F3D59"/>
<stop offset="1" stop-color="white"/>
</linearGradient>
<linearGradient id="paint73_linear_9_8201" x1="121.134" y1="266.822" x2="121.134" y2="217.35" gradientUnits="userSpaceOnUse">
<stop stop-color="#9F3D59"/>
<stop offset="1" stop-color="white"/>
</linearGradient>
<linearGradient id="paint74_linear_9_8201" x1="159.713" y1="310.084" x2="159.713" y2="307.234" gradientUnits="userSpaceOnUse">
<stop stop-color="#FF1651"/>
<stop offset="1" stop-color="#FF4B48"/>
</linearGradient>
<linearGradient id="paint75_linear_9_8201" x1="110.445" y1="310.084" x2="110.445" y2="308.761" gradientUnits="userSpaceOnUse">
<stop stop-color="#FF1651"/>
<stop offset="1" stop-color="#FF4B48"/>
</linearGradient>
<linearGradient id="paint76_linear_9_8201" x1="52.2199" y1="304.485" x2="52.2199" y2="272.319" gradientUnits="userSpaceOnUse">
<stop stop-color="#D6316B"/>
<stop offset="1" stop-color="white"/>
</linearGradient>
<linearGradient id="paint77_linear_9_8201" x1="134.875" y1="233.841" x2="134.875" y2="227.632" gradientUnits="userSpaceOnUse">
<stop stop-color="#AE184F"/>
<stop offset="1" stop-color="white"/>
</linearGradient>
<linearGradient id="paint78_linear_9_8201" x1="117.164" y1="238.116" x2="117.164" y2="228.039" gradientUnits="userSpaceOnUse">
<stop stop-color="#AE184F"/>
<stop offset="1" stop-color="white"/>
</linearGradient>
<linearGradient id="paint79_linear_9_8201" x1="103.015" y1="233.739" x2="103.015" y2="226.715" gradientUnits="userSpaceOnUse">
<stop stop-color="white"/>
<stop offset="1" stop-color="#AE184F"/>
</linearGradient>
<linearGradient id="paint80_linear_9_8201" x1="54.9681" y1="214.398" x2="17.3047" y2="214.398" gradientUnits="userSpaceOnUse">
<stop stop-color="#FFB159"/>
<stop offset="1" stop-color="#FFA73B"/>
</linearGradient>
<linearGradient id="paint81_linear_9_8201" x1="64.5366" y1="223.153" x2="44.3816" y2="223.153" gradientUnits="userSpaceOnUse">
<stop stop-color="#FFB159"/>
<stop offset="1" stop-color="#FFA73B"/>
</linearGradient>
<linearGradient id="paint82_linear_9_8201" x1="94.7692" y1="93.6721" x2="84.488" y2="93.6721" gradientUnits="userSpaceOnUse">
<stop stop-color="white"/>
<stop offset="1" stop-color="#885286"/>
</linearGradient>
<linearGradient id="paint83_linear_9_8201" x1="49.2678" y1="297.156" x2="0" y2="297.156" gradientUnits="userSpaceOnUse">
<stop stop-color="#7F0E19"/>
<stop offset="1" stop-color="#8B3D4C"/>
</linearGradient>
</defs>
</svg>
