<svg width="139" height="311" viewBox="0 0 139 311" fill="none" xmlns="http://www.w3.org/2000/svg">
<path d="M39.7852 272.095C39.7852 272.095 38.2132 280.191 38.6062 290.36L29.5667 287.892L31.1387 271.602C31.1387 271.602 35.5602 269.528 39.7852 272.095Z" fill="url(#paint0_linear_9_5914)"/>
<path d="M75.8451 273.675C75.8451 273.675 75.2556 280.487 75.8451 287.201C75.8451 287.201 70.048 289.768 69.1637 289.866C68.3776 289.965 65.823 287.201 65.823 287.201V273.675C65.823 273.675 71.4236 274.366 75.8451 273.675Z" fill="url(#paint1_linear_9_5914)"/>
<path d="M91.7628 301.418C99.0338 303.886 102.178 305.959 102.178 305.959C96.7739 305.564 81.446 310.303 72.2099 309.908C62.9739 309.513 61.0088 304.676 61.0088 304.676L65.332 287.201C65.332 287.201 63.5634 285.424 63.7599 284.831C63.8582 284.338 66.0198 284.041 66.0198 284.041C66.0198 284.041 69.0658 289.274 70.1466 288.78C71.1291 288.287 78.5966 282.659 79.8739 282.659C81.1512 282.659 77.9088 289.866 77.9088 289.866C77.9088 289.866 84.5902 298.851 91.7628 301.418Z" fill="url(#paint2_linear_9_5914)"/>
<path d="M16.9899 305.959C17.3829 304.972 21.6079 302.109 24.2608 297.962C27.5032 292.828 26.5207 286.016 29.8614 284.634C33.2021 283.35 37.1323 290.064 37.8201 289.866C38.6061 289.768 38.4096 284.733 38.4096 284.733L40.08 286.608C40.08 286.608 39.1957 287.596 39.0974 289.274C39.0319 290.525 39.0319 291.644 39.0974 292.631C39.4904 298.456 41.4556 301.22 41.4556 301.22C41.4556 301.22 41.4228 301.253 41.3573 301.319C41.3573 301.319 41.3573 301.352 41.3573 301.418C41.3573 301.418 41.3573 301.451 41.3573 301.516C41.3573 301.582 41.3573 301.615 41.3573 301.615C41.0625 303.294 39.7852 309.217 37.6236 309.908C37.1323 310.106 36.4445 309.908 35.7567 309.513C33.3986 308.23 30.3527 304.676 26.8154 304.083C22.2957 303.294 16.8916 306.354 16.8916 306.354C16.8916 306.354 16.9244 306.222 16.9899 305.959Z" fill="url(#paint3_linear_9_5914)"/>
<path d="M16.99 305.959C17.9726 304.873 22.4923 303.886 24.654 303.392C29.272 302.405 32.6127 305.466 35.1673 306.946C35.1673 306.946 35.1673 306.979 35.1673 307.045C36.0516 307.539 36.7394 307.835 37.4272 307.736C39.7854 307.539 41.0627 302.997 41.3575 301.615C41.3575 301.615 41.3575 301.582 41.3575 301.516C41.3575 301.451 41.3575 301.418 41.3575 301.418C41.3575 301.352 41.3575 301.319 41.3575 301.319C41.423 301.253 41.4557 301.22 41.4557 301.22C41.4557 301.22 43.4208 306.354 42.9295 310.007L35.6586 310.106H35.5604L15.0249 310.501C15.0249 310.501 15.2214 308.032 16.99 305.959Z" fill="url(#paint4_linear_9_5914)"/>
<path d="M85.769 307.736C95.7911 305.07 102.178 305.959 102.178 305.959L102.964 310.5H58.6504C59.1417 305.959 61.4016 302.997 61.4016 302.997C63.0719 306.058 75.7469 310.5 85.769 307.736Z" fill="url(#paint5_linear_9_5914)"/>
<g style="mix-blend-mode:multiply">
<path d="M75.7468 275.847L65.823 278.809V274.169L75.8451 273.774L75.7468 275.847Z" fill="#EA8BC2"/>
</g>
<g style="mix-blend-mode:multiply">
<path d="M38.901 278.809L30.6475 276.637L30.9422 273.576L39.7853 272.984C39.7853 272.984 39.0975 277.229 38.901 278.809Z" fill="#EA8BC2"/>
</g>
<path d="M92.4506 92.6074C92.4506 92.6074 91.4681 108.996 85.8675 120.844C85.8675 120.844 84.6884 102.382 92.4506 92.6074Z" fill="#C21651"/>
<path d="M47.9405 129.236C47.9405 129.236 32.4161 127.656 27.2085 115.611C27.2085 115.611 43.519 115.118 47.9405 129.236Z" fill="#C21651"/>
<path d="M28.879 38.6032C26.9138 33.963 26.5208 18.6602 28.879 15.5009C31.2371 12.3416 32.6127 13.2301 35.7569 11.2555C38.8028 9.37971 38.3115 0.19799 44.2069 0.000533985C50.1022 -0.0981942 63.5633 13.5263 63.5633 13.5263C63.5633 13.5263 30.8441 43.3422 28.879 38.6032Z" fill="url(#paint6_linear_9_5914)"/>
<path d="M23.3769 57.0654L21.7065 56.0782C30.9426 -3.75109 78.9897 3.94971 78.9897 3.94971L81.3478 4.44335L23.3769 57.0654Z" fill="url(#paint7_linear_9_5914)"/>
<path d="M39.3924 19.2526C53.836 4.54208 81.3476 4.44336 81.3476 4.44336C81.3476 4.44336 80.8563 29.9152 61.7947 44.3295C42.6348 58.6451 23.3767 57.0655 23.3767 57.0655C23.3767 57.0655 24.9488 33.9631 39.3924 19.2526Z" fill="url(#paint8_linear_9_5914)"/>
<path d="M113.87 72.072C113.87 72.072 112.986 63.0878 118.39 58.8424C123.892 54.4984 126.447 55.5844 126.447 55.5844L123.991 62.8903L124.482 65.0623C120.65 66.8394 118.39 70.4924 118.39 70.4924L113.87 72.072Z" fill="url(#paint9_linear_9_5914)"/>
<g style="mix-blend-mode:multiply">
<path d="M32.6128 49.6609C32.6128 49.6609 33.9884 44.6257 35.6587 36.3326C37.7221 25.4725 41.9471 22.7081 48.825 18.8577C55.7029 14.9085 70.0483 12.934 70.8343 14.02C71.5221 15.106 71.8169 18.1666 71.8169 18.1666C66.6093 30.2114 32.6128 49.6609 32.6128 49.6609Z" fill="#EA8BC2"/>
</g>
<path d="M71.1289 69.4063C71.1289 69.4063 62.0894 67.6292 54.2289 67.1355C46.4667 66.6419 36.4446 70.3936 36.4446 70.3936C36.4446 70.3936 30.5493 68.2215 29.1737 65.0622C27.7981 62.0017 31.1388 54.7945 34.283 44.5268C37.4272 34.2591 39.5888 29.4214 39.5888 29.4214C39.5888 29.4214 48.2353 18.1664 58.0609 18.1664C67.9847 18.1664 72.0132 20.9308 73.3888 24.1888C74.6661 27.4468 74.2731 34.3578 75.4521 38.2082C76.7295 42.0586 79.9719 49.0683 78.6946 54.0047C77.4173 58.9411 71.1289 69.4063 71.1289 69.4063Z" fill="url(#paint10_linear_9_5914)"/>
<path d="M67.9847 18.1665C72.308 21.1283 73.1922 25.966 73.1922 29.4215C73.1922 32.9757 72.2097 37.4184 73.9783 41.2688C75.8451 45.1192 76.4347 49.9569 73.094 54.0048C69.655 58.1514 68.7707 59.9285 67.1986 60.7183C65.5283 61.5081 57.8643 61.0145 49.2178 56.7692C40.6696 52.4251 36.6411 40.1828 38.0167 32.8769C39.4905 25.4723 56.6853 10.7618 67.9847 18.1665Z" fill="url(#paint11_linear_9_5914)"/>
<path d="M42.7332 51.043C42.7332 51.043 40.4733 53.5112 36.7396 52.129C32.9076 50.648 30.2547 42.6511 33.5954 40.479C36.9361 38.4057 40.9646 42.4536 40.9646 42.4536C42.4384 44.8231 42.7332 51.043 42.7332 51.043Z" fill="url(#paint12_linear_9_5914)"/>
<path d="M56.5873 59.6323C56.5873 59.6323 56.8821 69.8013 58.5524 71.0848C60.321 72.467 63.2687 73.3555 63.2687 73.3555C63.2687 73.3555 64.8408 79.2792 60.2227 79.0818C55.6047 78.8843 47.253 70.5912 47.253 70.5912C47.253 70.5912 48.6286 68.4191 48.9233 67.037C49.2181 65.6548 46.7617 55.1896 46.7617 55.1896C49.1199 57.2629 56.5873 59.6323 56.5873 59.6323Z" fill="url(#paint13_linear_9_5914)"/>
<path d="M90.78 94.0885L95.1032 95.7669C95.1032 95.7669 99.23 91.7191 104.536 86.5852C109.842 81.4513 115.246 69.4065 115.246 69.4065L118.39 70.4925C118.39 70.4925 115.737 82.0437 111.61 91.4229C106.599 102.579 99.1317 113.242 96.577 112.847C94.0224 112.452 86.7515 108.404 86.7515 108.404C87.5375 102.382 90.78 94.0885 90.78 94.0885Z" fill="url(#paint14_linear_9_5914)"/>
<path d="M114.853 108.404L114.951 110.774C111.316 111.662 105.126 109.885 105.126 109.885C105.126 109.885 97.4616 79.4767 96.3808 66.0497C95.3983 52.6226 97.6581 26.2622 97.6581 26.2622C99.918 19.0551 108.859 15.5009 108.859 15.5009L106.206 26.361C109.056 25.966 114.656 27.1508 114.656 27.1508L113.87 30.3101L138.238 37.221C138.238 37.221 122.615 55.8807 121.633 64.47C120.65 73.1581 120.847 107.417 120.847 107.417C118.194 108.503 114.853 108.404 114.853 108.404Z" fill="url(#paint15_linear_9_5914)"/>
<path style="mix-blend-mode:multiply" opacity="0.5" d="M110.922 27.0521C110.922 27.0521 104.831 52.0303 104.045 59.9285C103.259 67.9255 104.438 106.726 104.438 106.726C104.438 106.726 96.6754 68.7153 97.5597 61.1133C98.5423 53.5112 106.206 26.361 106.206 26.361L110.922 27.0521Z" fill="url(#paint16_linear_9_5914)"/>
<path style="mix-blend-mode:multiply" opacity="0.5" d="M115.639 30.8038C115.639 30.8038 116.229 38.5046 117.211 41.3677C118.096 44.2308 125.759 54.5973 125.759 54.5973C122.222 59.0401 121.436 67.8269 121.436 67.8269L115.836 66.346C115.836 66.346 113.772 80.0691 113.379 81.945C113.084 83.9195 115.836 108.404 115.836 108.404H114.853C114.853 108.404 110.923 67.1358 110.923 61.1134C110.923 55.0909 113.871 30.3102 113.871 30.3102L115.639 30.8038Z" fill="url(#paint17_linear_9_5914)"/>
<path d="M122.812 48.6736C122.812 48.6736 125.563 53.4125 129.002 55.8807C129.002 55.8807 129.002 57.6579 126.054 58.1515L126.545 59.04C126.545 59.04 126.152 59.9286 125.366 60.521C125.366 60.521 125.759 62.1993 124.777 62.9892C124.58 63.3841 120.355 60.4222 118.783 58.5464C117.211 56.6706 117.408 54.0049 117.408 54.0049C117.408 54.0049 116.818 53.2151 117.211 51.0431L125.563 57.6579L125.759 56.868C125.759 56.868 123.205 54.8935 122.517 52.8202C121.731 50.7469 122.812 48.6736 122.812 48.6736Z" fill="url(#paint18_linear_9_5914)"/>
<path d="M124.875 64.1737C124.875 64.1737 124.973 65.5559 123.696 66.0495C123.696 66.0495 121.043 65.7534 119.766 64.3712C118.488 62.8902 118.292 60.3233 118.685 60.1259C118.685 60.1259 121.633 62.594 124.875 64.1737Z" fill="url(#paint19_linear_9_5914)"/>
<path fill-rule="evenodd" clip-rule="evenodd" d="M36.3462 47.4888C38.9009 40.2816 36.1497 36.135 38.3113 30.0139C40.473 23.8927 54.5235 15.797 61.8927 15.5008C69.2619 15.1059 72.0131 18.0678 74.0764 21.8194C76.1398 25.5711 79.4805 26.8546 79.3822 30.6062C79.284 34.3579 77.3189 35.4439 76.8276 38.6032C76.3363 41.7625 81.5439 49.8582 81.3474 58.1514C81.2491 66.4446 73.3887 70.1962 73.3887 70.1962L75.452 67.5306C75.3538 67.6293 74.3712 68.5178 71.1288 69.4064L69.4584 68.0242C69.4584 68.0242 77.7119 57.6578 77.7119 49.2659C77.7119 40.874 75.059 39.9854 74.273 35.4439C73.3887 31.0012 74.0764 27.1508 72.7009 25.4724C69.4584 21.2271 55.2113 20.1411 55.2113 20.1411C55.2113 20.1411 52.1654 27.7431 47.1543 31.9884C47.1543 31.9884 43.3224 42.2562 42.7328 53.3137C42.1433 64.3713 47.7439 67.8268 47.7439 67.8268C47.7439 67.8268 44.5014 68.5178 41.1607 65.556C41.1607 65.556 41.3573 68.0242 44.3049 70.4924C44.3049 70.4924 36.4445 71.4797 34.0863 69.4064C34.2828 69.6039 35.9532 71.1835 37.7218 72.0721C37.427 72.0721 35.1671 71.4797 32.6125 68.9128C30.0578 66.1484 33.7916 54.6959 36.3462 47.4888ZM75.452 31.2973C75.845 35.049 76.2381 37.7147 76.2381 37.7147C76.1398 36.0363 78.6945 32.877 78.1049 29.7177C77.5154 26.6571 75.059 24.1889 75.059 24.1889C75.059 24.1889 75.1572 27.5457 75.452 31.2973Z" fill="url(#paint20_linear_9_5914)"/>
<path d="M72.8977 77.8971C72.8977 77.8971 76.3366 81.55 82.232 86.3877C88.1273 91.2254 92.4506 92.6076 92.4506 92.6076C92.4506 92.6076 85.2779 108.305 85.8674 120.844C85.8674 120.844 76.6314 120.153 73.5855 110.971C70.4413 101.789 71.7186 83.1297 71.7186 83.1297L72.8977 77.8971Z" fill="url(#paint21_linear_9_5914)"/>
<path fill-rule="evenodd" clip-rule="evenodd" d="M31.1388 268.146C32.7109 266.567 31.2371 267.653 31.2371 267.653C31.2371 267.653 34.1847 240.009 34.7743 235.961C35.3638 231.913 39.1958 210.588 39.7853 201.801C40.3748 193.113 41.1609 167.246 41.7504 160.829C42.34 154.51 56.194 130.42 56.194 130.42C56.194 130.42 52.0673 128.545 55.8993 125.385L76.14 124.595H76.4347C76.4347 124.595 77.9086 124.299 78.7929 125.385C79.5789 126.471 77.6138 128.347 77.6138 128.347C77.6138 128.347 84.4917 138.911 85.8673 139.898C87.1446 140.886 89.994 142.465 89.994 142.465C89.994 142.465 94.3173 162.803 94.4156 166.752C94.4156 170.307 92.0574 208.811 91.1731 217.301C91.0748 218.19 90.9766 218.782 90.8783 218.881C90.2888 220.263 87.9307 224.311 87.4394 226.779C86.9481 229.346 82.0353 260.84 82.0353 260.84C82.0353 260.84 83.2144 262.815 83.2144 263.21C83.2144 263.605 78.3016 267.258 78.3016 267.258C78.3016 267.258 79.3824 270.713 79.0876 272.293C79.0876 272.293 74.4696 274.958 69.8516 275.156C65.2336 275.353 62.1876 270.812 62.1876 270.812L64.251 265.875C64.251 265.875 63.1702 262.716 63.1702 262.025C63.1702 261.334 64.3493 254.324 64.7423 249.19C65.1353 244.254 65.037 229.544 65.2336 227.47C65.2336 227.404 65.2336 227.339 65.2336 227.273C65.2336 227.273 65.2336 227.24 65.2336 227.174C65.5283 225.989 67.6899 220.263 68.5743 218.091C68.6398 217.894 68.7053 217.729 68.7708 217.597C68.8363 217.466 68.869 217.367 68.869 217.301C68.869 217.235 68.869 217.202 68.869 217.202L67.7882 195.778C67.7882 195.778 60.026 216.511 59.4365 218.782C58.8469 221.053 56.3905 225.101 56.2923 225.989C56.194 226.779 56.8818 232.9 56.2923 235.665C55.7028 238.33 46.2702 263.407 46.2702 263.407L44.0103 266.961C44.0103 266.961 45.7789 268.541 45.8772 269.035C45.9754 269.627 40.0801 273.675 35.4621 274.267C30.7458 274.958 29.7632 272.392 29.7632 272.392C29.7632 272.392 29.4685 269.627 31.1388 268.146ZM76.4347 124.99C76.4347 124.99 76.4347 126.471 77.319 127.854C77.319 127.854 78.9894 125.583 76.4347 124.99ZM56.7836 130.026L56.2923 125.879C56.2923 125.879 55.408 126.768 55.408 128.051C55.408 129.236 56.7836 130.026 56.7836 130.026Z" fill="url(#paint22_linear_9_5914)"/>
<path d="M52.0672 74.4415C55.2114 77.0084 62.9736 79.4766 63.0719 77.0084C63.1701 74.5402 61.205 72.6644 61.205 72.6644C61.205 72.6644 61.6963 71.3809 62.2858 71.5784C62.8754 71.7758 63.3666 72.072 64.1527 73.158C65.037 74.3428 72.6027 77.4033 72.8975 77.897C73.1922 78.3906 73.094 83.2283 73.487 85.3016C73.7817 87.2762 81.937 96.8528 82.2318 100.802C82.5265 104.652 75.9434 117.981 75.4521 119.659C75.0591 121.337 77.6137 122.72 77.5155 123.608C77.4172 124.497 73.6835 125.978 71.3254 127.064C68.9672 128.051 70.4411 128.15 66.7073 128.15C62.9736 128.15 57.4713 126.076 57.4713 126.076C57.4713 126.076 55.2114 125.188 55.2114 124.892C55.1131 124.595 57.4713 123.509 57.4713 123.509C54.7201 119.067 50.0038 111.859 50.0038 111.859L47.9405 129.236C44.7963 120.548 27.2085 115.611 27.2085 115.611C31.1387 105.541 36.4446 85.4003 37.4271 83.5245C38.4097 81.6487 45.5823 72.7631 46.0736 71.8746C46.4666 70.986 45.6806 69.6038 46.0736 69.4064C46.4666 69.2089 47.9405 69.4064 47.9405 69.4064C47.9405 69.4064 49.0213 71.7758 52.0672 74.4415Z" fill="url(#paint23_linear_9_5914)"/>
<path d="M56.2925 125.879C56.2925 125.879 64.3494 128.446 67.5919 127.854C70.8343 127.261 76.4349 124.99 76.4349 124.99L77.3192 127.854C77.3192 127.854 72.996 130.914 67.1006 131.309C61.2053 131.803 56.7838 130.026 56.7838 130.026L56.2925 125.879Z" fill="url(#paint24_linear_9_5914)"/>
<path style="mix-blend-mode:multiply" opacity="0.5" d="M60.3208 38.6033C60.3208 38.6033 60.8121 42.1575 60.2225 43.1448C59.633 44.2308 55.3098 44.527 53.3446 43.6384C51.3795 42.7499 50.397 40.4791 50.397 40.4791L60.3208 38.6033Z" fill="url(#paint25_linear_9_5914)"/>
<path d="M65.037 127.853C65.037 127.853 62.6788 129.038 63.4649 132.099L62.0893 131.704C62.0893 131.704 60.4189 128.446 63.2683 127.557L65.037 127.853Z" fill="url(#paint26_linear_9_5914)"/>
<path style="mix-blend-mode:multiply" opacity="0.5" d="M58.3558 139.8C58.3558 139.8 55.7029 149.277 54.0326 152.733C52.4605 156.09 47.2529 159.15 47.2529 159.15C47.2529 159.15 49.4145 146.118 58.3558 139.8Z" fill="url(#paint27_linear_9_5914)"/>
<path style="mix-blend-mode:multiply" opacity="0.5" d="M85.8673 139.898C85.8673 139.898 79.6772 135.851 77.8103 133.876L81.937 134.863L85.8673 139.898Z" fill="url(#paint28_linear_9_5914)"/>
<path style="mix-blend-mode:multiply" opacity="0.5" d="M47.2529 159.841L50.4954 168.036L48.825 180.673L47.2529 159.841Z" fill="url(#paint29_linear_9_5914)"/>
<path style="mix-blend-mode:multiply" opacity="0.5" d="M67.7883 195.778L77.1226 161.717L79.972 156.09C79.972 156.09 79.0878 144.341 77.8104 141.478C76.6314 138.615 73.8802 129.631 73.8802 129.631C73.8802 129.631 78.4 141.379 78.793 142.169C79.2843 142.959 80.6598 156.386 80.6598 156.386L68.4761 210.094L67.7883 195.778Z" fill="url(#paint30_linear_9_5914)"/>
<g style="mix-blend-mode:multiply">
<path d="M67.7883 195.778L75.4523 168.036C75.4523 168.036 74.4697 183.832 72.7994 191.039C71.2273 198.148 67.7883 195.778 67.7883 195.778Z" fill="#FFB5C2"/>
</g>
<path d="M73.1924 29.4215C70.8343 30.705 69.0657 32.5808 69.0657 32.5808C69.557 29.2241 72.7012 25.4724 72.7012 25.4724C73.4872 26.6571 73.1924 29.4215 73.1924 29.4215Z" fill="url(#paint31_linear_9_5914)"/>
<path d="M60.5174 25.9661C60.5174 25.9661 60.4191 28.0394 59.0436 29.5204C59.0436 29.5204 56.0959 29.4216 54.0325 29.8166C51.9691 30.3102 48.825 31.9886 48.825 31.9886C48.825 31.9886 51.1831 28.0394 54.229 26.756C57.1767 25.3738 60.5174 25.9661 60.5174 25.9661Z" fill="url(#paint32_linear_9_5914)"/>
<path style="mix-blend-mode:multiply" opacity="0.5" d="M48.8248 43.1448C48.8248 43.1448 46.958 34.4567 48.8248 31.9885C50.6917 29.4216 60.3208 27.0521 60.3208 27.0521C62.2859 30.9025 61.6963 43.7372 61.6963 43.7372C55.8992 48.3774 48.8248 43.1448 48.8248 43.1448Z" fill="url(#paint33_linear_9_5914)"/>
<path d="M59.9279 41.96C59.0436 43.2435 55.8994 43.6384 53.2465 42.9473C50.6918 42.1575 50.1023 39.5906 50.1023 39.5906C50.1023 39.5906 52.7552 32.5809 57.275 32.9758C61.7947 33.3707 60.3209 41.3677 59.9279 41.96Z" fill="url(#paint34_linear_9_5914)"/>
<path d="M51.5762 36.7273C52.4605 33.6668 56.5872 31.9884 57.1768 31.9884C57.668 31.8897 58.6506 33.0744 58.6506 33.0744L51.5762 36.7273Z" fill="url(#paint35_linear_9_5914)"/>
<path d="M59.6333 34.4567C54.0328 34.8516 50.9868 37.7147 50.9868 37.7147C52.9519 33.4694 61.2054 32.5808 61.2054 32.5808L59.8298 34.7528L59.6333 34.4567Z" fill="#95344D"/>
<path d="M60.2227 35.8389C60.2227 35.8389 60.321 36.6287 60.4192 37.7147C60.5175 39.3931 60.4192 41.6638 59.5349 42.3549C58.6506 43.1448 57.1768 43.2435 56.1942 43.2435C55.6047 43.2435 55.2117 43.2435 55.2117 43.2435C55.7029 36.7274 60.2227 35.8389 60.2227 35.8389Z" fill="#908D66"/>
<g style="mix-blend-mode:multiply">
<path d="M60.4191 37.7147C60.5174 39.3931 60.4191 41.6638 59.5348 42.3549C58.6505 43.1447 57.1766 43.2435 56.1941 43.2435C57.2749 37.5172 60.4191 37.7147 60.4191 37.7147Z" fill="#EABFC2"/>
</g>
<path d="M57.8645 39.8867C57.8645 39.8867 56.5871 38.6033 55.3098 39.0969C55.3098 39.0969 55.8993 40.2816 57.8645 39.8867Z" fill="white"/>
<path style="mix-blend-mode:multiply" opacity="0.5" d="M72.4065 39.5905C72.4065 39.5905 72.4064 42.8485 72.1117 43.2434C71.7186 43.6383 69.557 44.0332 69.164 41.7625C68.771 39.4917 72.4065 39.5905 72.4065 39.5905Z" fill="url(#paint36_linear_9_5914)"/>
<path d="M72.7995 38.702C72.7995 38.702 72.2099 42.5524 70.8344 43.046C69.3605 43.5397 68.378 40.5778 68.8693 37.7147C69.4588 34.9503 71.3257 31.791 71.9152 31.6923C72.4065 31.4948 72.996 35.9376 72.7995 38.702Z" fill="url(#paint37_linear_9_5914)"/>
<path d="M69.1638 36.6288C69.1638 36.6288 70.3429 32.0873 72.4063 30.8038C72.4063 30.8038 72.8976 33.4695 72.8976 34.4568C72.8976 34.4568 70.8342 35.2466 69.1638 36.6288Z" fill="url(#paint38_linear_9_5914)"/>
<path d="M69.1638 36.6287C69.1638 36.6287 71.7185 34.0618 74.4696 33.5681L72.7993 35.6414L72.701 35.049C72.701 35.049 70.7359 35.2465 69.1638 36.6287Z" fill="#95344D"/>
<path d="M72.7994 36.4313C72.7994 36.7275 72.8977 37.4186 72.7994 38.2084C72.7011 39.5906 72.4064 41.5651 71.5221 42.4537C70.8343 43.1448 70.343 43.2435 70.0482 43.0461C69.6552 42.8486 69.5569 42.5524 69.5569 42.5524C69.3604 36.7275 72.7994 36.4313 72.7994 36.4313Z" fill="#908D66"/>
<g style="mix-blend-mode:multiply">
<path d="M72.7993 38.2084C72.701 39.5906 72.4062 41.5651 71.5219 42.4537C70.8341 43.1448 70.3429 43.2435 70.0481 43.046C70.2446 39.0969 72.5045 38.3071 72.7993 38.2084Z" fill="#EABFC2"/>
</g>
<path d="M71.4237 39.6892C71.4237 39.6892 70.4411 38.2082 69.1638 38.4057C69.1638 38.4057 70.1464 39.8866 71.4237 39.6892Z" fill="white"/>
<path style="mix-blend-mode:multiply" opacity="0.5" d="M64.546 45.1193C64.546 45.1193 63.5634 46.1065 63.1704 47.0938C62.8756 48.1798 63.9564 48.9697 65.0373 48.2786C66.2163 47.5875 66.6093 47.5875 66.5111 48.0811C66.4128 48.5747 67.1989 49.0684 68.8692 48.9697C70.6378 48.7722 72.2099 47.0938 71.6204 45.5142C71.6204 45.5142 72.7995 48.3773 68.8692 49.3646C64.939 50.3518 64.2512 48.6735 62.8756 48.1798C61.4018 47.6862 64.546 45.1193 64.546 45.1193Z" fill="url(#paint39_linear_9_5914)"/>
<path style="mix-blend-mode:multiply" opacity="0.5" d="M64.251 48.7723C64.251 48.7723 65.5283 47.9824 66.1178 47.9824C66.7074 48.0812 66.3143 48.871 65.7248 49.0684C65.1353 49.3646 64.251 48.7723 64.251 48.7723Z" fill="url(#paint40_linear_9_5914)"/>
<path style="mix-blend-mode:multiply" opacity="0.5" d="M62.4827 47.5873C62.4827 47.5873 62.7774 47.8835 65.1356 47.5873C67.7885 47.2912 69.7536 47.4886 71.6204 46.8962C71.6204 46.8962 70.7362 50.8454 68.378 51.0428C65.2338 51.339 62.4827 47.5873 62.4827 47.5873Z" fill="url(#paint41_linear_9_5914)"/>
<path d="M70.0481 52.6226C70.0481 52.6226 68.5743 55.4857 67.1005 56.1768C65.6266 56.8679 60.8121 54.1035 59.4365 50.8455C59.4365 50.8455 63.1702 52.4251 65.3319 52.5238C67.4935 52.6226 70.0481 52.6226 70.0481 52.6226Z" fill="#FF524C"/>
<path d="M71.4239 51.7342C71.4239 51.7342 69.3605 53.3138 67.6902 53.61C66.0198 54.0049 62.4826 52.8202 61.2053 52.2278C59.928 51.6355 58.8472 50.1545 58.8472 50.1545C58.8472 50.1545 59.8297 51.438 60.9105 51.6355C61.9914 51.9316 67.0024 51.9317 68.1815 51.9317C69.2623 51.8329 69.2623 52.2278 69.8518 52.3266C70.4414 52.4253 71.4239 51.7342 71.4239 51.7342Z" fill="#E0223B"/>
<path style="mix-blend-mode:multiply" opacity="0.5" d="M60.4191 50.1544C60.4191 50.1544 57.5697 49.9569 56.5872 51.9315C56.5872 51.9315 56.9802 48.8709 60.4191 50.1544Z" fill="url(#paint42_linear_9_5914)"/>
<g style="mix-blend-mode:multiply">
<path d="M56.9803 65.2598C56.9803 65.2598 52.8536 66.1484 48.039 61.0145L46.7617 55.1896C46.7617 55.1896 51.6745 58.5463 56.5873 59.6323L56.9803 65.2598Z" fill="#EA8BC2"/>
</g>
<path style="mix-blend-mode:multiply" opacity="0.5" d="M73.5854 40.1829C73.5854 40.1829 73.2906 43.7371 72.6028 44.2308C71.915 44.6257 69.5569 43.8359 68.7708 41.1702C67.9848 38.5045 69.0656 32.2847 69.0656 32.2847L73.1924 28.2368C73.1924 28.2368 73.2906 30.3101 73.0941 32.3834C72.8976 34.4567 73.0941 39.0969 73.5854 40.1829Z" fill="url(#paint43_linear_9_5914)"/>
<path style="mix-blend-mode:multiply" opacity="0.5" d="M53.9344 58.8425C46.7617 56.3743 44.6001 53.3137 44.6001 53.3137C44.6001 53.3137 49.2181 56.7692 54.917 58.3489C60.5175 59.9285 66.4129 60.9158 66.4129 60.9158C66.4129 60.9158 61.1071 61.3107 53.9344 58.8425Z" fill="url(#paint44_linear_9_5914)"/>
<g style="mix-blend-mode:multiply">
<path d="M42.7329 51.0429C42.8312 46.7976 44.5998 40.479 44.5998 40.479C43.7155 48.3773 45.3858 54.1035 45.3858 54.1035C44.2067 53.7086 42.7329 51.0429 42.7329 51.0429Z" fill="#EA8BC2"/>
</g>
<path style="mix-blend-mode:multiply" opacity="0.5" d="M38.7044 5.62805C38.7044 5.62805 37.2306 12.2428 35.2655 15.5009C33.2021 18.6602 29.5667 18.0678 29.5667 17.278C29.5667 16.3894 32.023 14.2174 34.8725 11.7492C37.7219 9.37972 38.7044 5.62805 38.7044 5.62805Z" fill="url(#paint45_linear_9_5914)"/>
<path style="mix-blend-mode:multiply" opacity="0.5" d="M71.1292 69.4063C71.1292 69.4063 77.8105 64.1737 78.9896 58.6449C80.1687 53.1161 78.9896 46.8962 78.9896 46.8962C78.9896 46.8962 80.9548 53.511 80.267 58.1513C79.5792 62.7915 75.4524 67.5304 75.4524 67.5304C75.4524 67.5304 72.3082 69.6037 71.1292 69.4063Z" fill="url(#paint46_linear_9_5914)"/>
<path style="mix-blend-mode:multiply" opacity="0.5" d="M44.3051 70.4924C35.5604 68.1229 35.2656 61.5081 37.4272 54.1035C39.5889 46.7976 44.1086 35.1477 44.1086 35.1477C42.5365 41.0714 38.8028 50.2531 38.7046 55.387C38.508 60.4221 41.1609 65.556 41.1609 65.556C42.2418 68.2216 44.3051 70.4924 44.3051 70.4924Z" fill="url(#paint47_linear_9_5914)"/>
<path style="mix-blend-mode:multiply" opacity="0.5" d="M37.7219 40.479L37.5254 39.0968C40.08 38.2083 47.1545 31.9884 47.1545 31.9884C42.5364 39.1956 37.7219 40.479 37.7219 40.479Z" fill="url(#paint48_linear_9_5914)"/>
<path style="mix-blend-mode:multiply" opacity="0.5" d="M37.4272 36.6286L37.5255 33.568C45.2877 32.3833 55.2115 20.141 55.2115 20.141C49.1197 30.6062 37.4272 36.6286 37.4272 36.6286Z" fill="url(#paint49_linear_9_5914)"/>
<path style="mix-blend-mode:multiply" opacity="0.5" d="M55.2117 20.1411C55.2117 20.1411 64.0547 16.3895 68.4762 18.1666C72.8977 19.9437 72.7012 25.4725 72.7012 25.4725C67.3954 19.2526 55.2117 20.1411 55.2117 20.1411Z" fill="url(#paint50_linear_9_5914)"/>
<g style="mix-blend-mode:multiply">
<path d="M42.4383 163.099C42.4383 163.099 45.2877 167.049 45.779 170.208C46.2702 173.367 45.6807 222.633 45.779 226.878C45.8772 231.123 47.351 231.913 48.0388 236.06C48.8249 240.206 47.2528 260.544 47.2528 260.544L46.2702 263.407L44.0104 266.961C44.0104 266.961 45.8772 268.541 45.8772 269.035C45.8772 269.627 41.6522 272.885 36.2481 274.169C30.7458 275.452 29.7633 272.392 29.7633 272.392C29.7633 272.392 29.3702 270.318 31.2371 267.653L32.4162 257.681L41.7505 175.441L42.4383 163.099Z" fill="#FF9AC2"/>
</g>
<g style="mix-blend-mode:multiply">
<path d="M95.1032 95.767C95.1032 95.767 90.8782 98.6301 89.7974 102.579C88.8149 106.528 88.5201 109.391 88.5201 109.391L87.1445 108.602C87.1445 108.602 89.3061 99.2224 91.6643 94.3848L95.1032 95.767Z" fill="#EA8BC2"/>
</g>
<path d="M26.1279 167.049C27.0122 165.469 33.9884 157.373 34.5779 154.411C35.0692 151.252 31.6302 128.446 31.6302 124.398C31.6302 120.449 33.5954 117.882 33.5954 117.882C33.5954 117.882 39.982 120.449 44.0105 124.003C44.0105 124.003 42.8314 130.815 41.4558 137.726C39.982 144.539 39.6872 156.188 39.6872 156.188C39.6872 156.188 42.8314 159.94 43.1262 160.927C43.4209 161.915 42.5366 169.813 42.5366 169.813C42.5366 169.813 40.5715 166.16 39.6872 166.16C38.8029 166.16 37.8204 171.985 37.8204 171.985C37.8204 171.985 39.2942 174.157 38.9012 176.132L36.3465 175.638C36.3465 175.638 33.9884 175.342 33.3006 174.947C32.6128 174.651 31.139 174.354 30.4512 174.058C29.7634 173.762 29.2721 173.268 28.2896 173.268C27.2087 173.268 26.1279 167.838 26.1279 167.246C26.1279 167.18 26.1279 167.114 26.1279 167.049Z" fill="url(#paint51_linear_9_5914)"/>
<g style="mix-blend-mode:multiply">
<path d="M43.7156 125.879C43.7156 125.879 39.7853 119.462 32.5144 120.251L33.5952 117.882C33.5952 117.882 40.0801 120.449 44.0103 124.003L43.7156 125.879Z" fill="#EA8BC2"/>
</g>
<path d="M4.11843 229.05C4.11843 229.05 3.62715 211.081 5.10099 208.81C6.67308 206.441 23.1801 180.673 23.1801 180.673C24.4574 177.217 26.9138 170.998 26.9138 170.998C27.5033 173.071 28.2894 173.268 28.2894 173.268C28.2894 173.268 25.2434 183.141 25.3417 190.743C25.4399 198.345 28.3876 203.084 28.3876 203.084C32.5144 201.307 35.069 194.1 35.069 194.1L37.6237 193.508C39.9818 187.485 37.8202 171.985 37.8202 171.985C37.4272 167.937 39.687 166.16 39.687 166.16C41.3574 166.555 42.3399 168.727 42.9295 172.084C43.126 172.873 43.257 173.696 43.3225 174.552C44.6981 185.511 43.0277 204.861 42.9295 217.696C42.8312 236.059 43.4208 255.311 40.9644 256.891C38.6062 258.372 31.5318 257.286 23.7696 258.273C16.7934 259.261 3.92192 257.187 1.66204 256.792C1.53103 256.792 1.43277 256.792 1.36727 256.792C1.36727 256.792 1.33452 256.792 1.26902 256.792V256.694C-2.66121 243.661 4.11843 229.05 4.11843 229.05Z" fill="url(#paint52_linear_9_5914)"/>
<g style="mix-blend-mode:multiply">
<path d="M31.3356 285.325C34.4798 286.016 36.8379 290.952 36.8379 290.952C32.1216 289.373 26.9141 290.36 26.9141 290.36C26.9141 290.36 28.2896 284.732 31.3356 285.325Z" fill="#EA8BC2"/>
</g>
<g style="mix-blend-mode:multiply">
<path d="M77.9088 289.866L69.1641 290.952C69.1641 290.952 76.828 283.844 80.1687 283.153C80.1687 283.153 79.6774 285.72 77.9088 289.866Z" fill="#EA8BC2"/>
</g>
<path style="mix-blend-mode:multiply" opacity="0.5" d="M26.1279 167.048C26.4227 167.246 27.5035 168.233 28.1913 168.332C28.8791 168.529 29.8616 169.517 31.139 169.517C32.5145 169.517 33.3006 170.405 33.7919 170.603C34.2831 170.899 36.543 170.998 36.543 170.998C36.543 170.998 37.8204 167.74 38.5082 166.653C39.0977 165.666 43.1262 160.927 43.1262 160.927C43.4209 161.915 42.5366 169.813 42.5366 169.813C42.5366 169.813 40.5715 166.16 39.6872 166.16C38.8029 166.16 37.8204 171.985 37.8204 171.985C37.8204 171.985 39.2942 174.157 38.9012 176.131L36.3465 175.638C36.3465 175.638 33.9884 175.342 33.3006 174.947C32.6128 174.65 31.139 174.354 30.4512 174.058C29.7634 173.762 29.2721 173.268 28.2896 173.268C27.2087 173.268 26.1279 167.838 26.1279 167.246C26.1279 167.18 26.1279 167.114 26.1279 167.048Z" fill="url(#paint53_linear_9_5914)"/>
<path style="mix-blend-mode:multiply" opacity="0.5" d="M70.8343 130.717L72.7994 136.936L77.1227 161.717C77.1227 161.717 73.0942 141.28 72.7012 139.503C72.2099 137.628 70.343 130.717 70.343 130.717H70.8343Z" fill="url(#paint54_linear_9_5914)"/>
<g style="mix-blend-mode:multiply" opacity="0.5">
<path d="M77.3191 127.854L78.2034 129.236C78.2034 129.236 74.3714 133.284 72.308 133.876C70.1464 134.468 55.9976 130.815 55.9976 130.815L56.7836 130.026C56.7836 130.026 63.072 131.605 68.2795 131.112C73.4871 130.519 77.3191 127.854 77.3191 127.854Z" fill="#EA8BC2"/>
</g>
<path style="mix-blend-mode:multiply" opacity="0.5" d="M87.7342 225.594L79.6772 235.27C79.6772 235.27 81.1511 229.445 83.2145 226.779C85.2778 224.212 91.1732 217.301 91.1732 217.301C90.9766 218.585 87.7342 225.594 87.7342 225.594Z" fill="url(#paint55_linear_9_5914)"/>
<path style="mix-blend-mode:multiply" opacity="0.5" d="M78.3016 267.258C78.3016 267.258 76.7295 268.344 75.5505 268.837C74.3714 269.43 70.8342 269.232 70.8342 269.232L73.8801 270.812C73.8801 270.812 70.2447 269.825 68.476 269.43C66.8057 268.936 64.251 265.876 64.251 265.876C64.251 265.876 62.9737 263.012 63.1702 262.025C63.1702 262.025 65.9214 266.665 66.8057 266.962C67.7882 267.258 69.0656 267.751 69.0656 267.751C69.0656 267.751 65.9214 259.359 66.2161 257.089C66.5109 254.719 67.9848 248.993 68.7708 248.796C69.5569 248.598 70.1464 266.073 70.7359 266.665C71.2272 267.356 72.7993 255.312 73.3888 251.856C73.8801 248.302 80.6597 239.12 81.3475 239.614C82.1336 240.108 78.0069 261.729 74.6662 266.369L83.2144 263.21C83.2144 263.21 80.1685 266.073 78.3016 267.258Z" fill="url(#paint56_linear_9_5914)"/>
<path style="mix-blend-mode:multiply" opacity="0.5" d="M54.1308 228.556C51.9692 229.741 45.7791 236.948 45.7791 236.948C45.7791 236.948 50.2988 229.642 53.7378 226.285C57.1767 222.929 59.7314 217.894 59.7314 217.894C59.7314 217.894 56.2924 227.371 54.1308 228.556Z" fill="url(#paint57_linear_9_5914)"/>
<path style="mix-blend-mode:multiply" opacity="0.5" d="M44.0103 266.961C44.0103 266.961 37.9184 269.232 36.2481 269.627C34.4795 270.022 32.7109 269.627 32.7109 269.627L35.2655 271.503L31.9248 270.318L31.2371 267.653L32.7109 253.633C32.7109 253.633 32.8092 262.124 32.9074 263.407C33.0057 264.592 35.2655 267.159 35.2655 267.159C35.2655 267.159 43.4208 253.041 48.0388 249.487C48.0388 249.487 47.9405 254.719 46.958 257.089C45.8772 259.359 37.2307 267.455 37.2307 267.455C37.2307 267.455 40.0801 268.541 44.0103 266.961Z" fill="url(#paint58_linear_9_5914)"/>
<path style="mix-blend-mode:multiply" opacity="0.5" d="M56.194 130.42C56.194 130.42 51.183 145.131 50.4952 147.007C49.9057 148.883 42.4382 157.867 42.4382 157.867C42.4382 157.867 48.3336 143.453 56.194 130.42Z" fill="url(#paint59_linear_9_5914)"/>
<path style="mix-blend-mode:multiply" opacity="0.5" d="M94.4155 166.752C94.5138 168.233 92.0574 205.947 92.0574 205.947C92.0574 205.947 92.1556 184.918 92.4504 175.44C92.7452 166.061 90.9766 147.105 90.9766 147.105C90.9766 147.105 94.219 165.271 94.4155 166.752Z" fill="url(#paint60_linear_9_5914)"/>
<path style="mix-blend-mode:multiply" opacity="0.5" d="M28.3878 203.084C28.3878 203.084 17.9727 208.613 11.193 210.094C4.41339 211.575 17.0884 193.903 20.4291 189.065C23.6715 184.227 27.5035 176.131 27.5035 176.131C27.5035 176.131 22.7872 192.125 28.3878 202.689V203.084Z" fill="url(#paint61_linear_9_5914)"/>
<g style="mix-blend-mode:multiply">
<path d="M25.1453 256.694C25.1453 256.694 25.44 244.748 28.3877 233.789C31.4336 222.83 37.9185 209.206 40.0801 202.393C42.2418 195.68 42.9296 172.084 42.9296 172.084L43.3226 174.552C44.6982 185.511 43.0278 204.861 42.9296 217.696C42.8313 236.06 43.4208 255.312 40.9644 256.891C38.6063 258.372 31.5319 257.286 23.7697 258.273C16.7935 259.261 3.92199 257.187 1.66211 256.792C4.21676 257.187 19.7412 259.458 25.1453 256.694Z" fill="#D697C2"/>
</g>
<g style="mix-blend-mode:multiply">
<path d="M1.36816 256.793C1.36816 256.793 1.33521 256.793 1.26929 256.793V256.694C1.26929 256.694 1.30224 256.727 1.36816 256.793Z" fill="#D697C2"/>
</g>
<g style="mix-blend-mode:multiply">
<path d="M37.6239 193.508C37.6239 193.508 32.9076 208.317 31.0408 216.61C29.1739 224.903 26.914 238.626 26.914 238.626C10.9966 240.798 4.51172 233.591 4.51172 233.591C12.4704 240.502 26.128 238.231 26.128 238.231C26.128 238.231 26.3245 224.607 29.7635 215.326C33.2024 206.046 35.0693 194.1 35.0693 194.1L37.6239 193.508Z" fill="#D697C2"/>
</g>
<path style="mix-blend-mode:multiply" opacity="0.5" d="M1.36743 256.792C1.36743 256.792 5.8872 251.659 11.9791 250.869C18.1692 250.079 25.1454 256.694 25.1454 256.694C25.1454 256.694 19.1517 259.557 1.36743 256.792Z" fill="url(#paint62_linear_9_5914)"/>
<g style="mix-blend-mode:multiply">
<path d="M26.8156 179.093L24.7522 176.526L26.9138 170.998L28.2894 173.268L26.8156 179.093Z" fill="#EA8BC2"/>
</g>
<path style="mix-blend-mode:multiply" opacity="0.5" d="M5.10124 208.811C5.10124 208.811 5.00298 214.636 8.24543 220.46C11.3896 226.285 18.8571 238.528 18.8571 238.528C18.8571 238.528 12.0774 239.318 4.51172 233.591C4.51172 233.591 3.33264 213.352 5.10124 208.811Z" fill="url(#paint63_linear_9_5914)"/>
<path style="mix-blend-mode:multiply" opacity="0.5" d="M79.9719 156.09L77.319 171.294L72.4062 179.093L77.1225 161.717L79.9719 156.09Z" fill="url(#paint64_linear_9_5914)"/>
<path style="mix-blend-mode:multiply" opacity="0.5" d="M68.8694 217.202L70.3432 222.534L65.2339 227.273C65.2339 227.273 67.199 221.25 68.8694 217.202Z" fill="url(#paint65_linear_9_5914)"/>
<g style="mix-blend-mode:multiply">
<path d="M73.389 20.536C73.389 20.536 62.4826 19.0551 52.3623 24.1889C42.3402 29.3228 36.2483 38.4058 36.2483 38.4058L37.3291 35.2465C37.3291 35.2465 34.2832 29.4215 47.1547 20.6347C59.9279 11.8479 70.1465 16.2907 70.7361 17.1792C71.3256 18.0678 73.389 20.536 73.389 20.536Z" fill="#C98BC2"/>
</g>
<g style="mix-blend-mode:multiply">
<path d="M100.606 90.4355C101.392 93.7923 104.045 105.146 104.045 105.146C102.669 107.812 99.5251 110.971 99.5251 110.971C95.3984 100.901 99.3287 91.719 99.3287 91.719L100.606 90.4355Z" fill="#EA8BC2"/>
</g>
<path style="mix-blend-mode:multiply" opacity="0.5" d="M114.853 108.404L112.888 86.8813L120.65 107.516C120.65 107.516 117.211 108.503 114.853 108.404Z" fill="url(#paint66_linear_9_5914)"/>
<path style="mix-blend-mode:multiply" opacity="0.5" d="M38.2133 112.156C37.9186 109.49 39.4907 84.4131 39.4907 84.4131L42.4383 122.423C42.4383 122.423 38.6064 114.92 38.2133 112.156Z" fill="url(#paint67_linear_9_5914)"/>
<path style="mix-blend-mode:multiply" opacity="0.5" d="M50.0039 111.86L49.3162 102.875L57.4714 123.51L50.0039 111.86Z" fill="url(#paint68_linear_9_5914)"/>
<path style="mix-blend-mode:multiply" opacity="0.5" d="M71.3255 127.064C71.3255 127.064 64.7424 121.239 62.679 118.474C60.5174 115.809 56.5872 99.9135 56.5872 99.9135C56.5872 99.9135 64.3494 111.07 65.8232 114.92C67.297 118.771 71.3255 127.064 71.3255 127.064Z" fill="url(#paint69_linear_9_5914)"/>
<path style="mix-blend-mode:multiply" opacity="0.5" d="M72.0134 126.669C72.0134 126.669 71.2273 120.745 72.6029 116.598C73.9785 112.353 77.1227 105.64 77.1227 105.64C77.1227 105.64 77.0244 110.774 76.4349 114.426C75.8454 118.079 72.6029 126.373 72.6029 126.373L72.0134 126.669Z" fill="url(#paint70_linear_9_5914)"/>
<path style="mix-blend-mode:multiply" opacity="0.8" d="M76.8279 116.5C81.7407 106.824 82.232 100.802 82.232 100.802C82.232 100.802 82.625 106.133 81.9372 110.477C81.3476 114.821 83.018 120.251 83.018 120.251C79.0878 119.165 76.8279 116.5 76.8279 116.5Z" fill="url(#paint71_linear_9_5914)"/>
<path style="mix-blend-mode:multiply" opacity="0.5" d="M74.4697 87.2763C74.2732 86.5852 74.4697 82.6361 74.4697 82.6361L76.533 90.4356C76.533 90.4356 74.6662 87.8687 74.4697 87.2763Z" fill="url(#paint72_linear_9_5914)"/>
<g style="mix-blend-mode:multiply">
<path d="M50.0039 111.859L49.3162 100.703L53.3447 116.302L50.0039 111.859Z" fill="#C98BC2"/>
</g>
<path style="mix-blend-mode:multiply" opacity="0.5" d="M67.6899 86.8813C67.6899 86.8813 61.7945 86.5851 56.98 85.4004C52.2637 84.1169 46.0736 71.8747 46.0736 71.8747C46.0736 71.8747 46.3684 70.7886 45.9753 69.7026C45.9753 69.7026 49.2178 73.8492 53.0498 77.8971C56.8817 81.9449 67.6899 86.8813 67.6899 86.8813Z" fill="url(#paint73_linear_9_5914)"/>
<path style="mix-blend-mode:multiply" opacity="0.5" d="M66.6095 74.7379C66.6095 74.7379 69.1641 80.1679 69.0659 82.6361C69.0659 85.1043 67.3955 89.8433 67.3955 89.8433C67.3955 89.8433 67.9851 86.5852 67.3955 82.6361C66.9043 78.687 64.1531 73.1582 64.1531 73.1582L66.6095 74.7379Z" fill="url(#paint74_linear_9_5914)"/>
<path style="mix-blend-mode:multiply" opacity="0.5" d="M76.8279 116.5C76.8279 116.5 77.7122 109.786 78.2035 108.404C78.6947 107.121 82.232 101.394 82.232 101.394C82.232 104.652 76.8279 116.5 76.8279 116.5Z" fill="url(#paint75_linear_9_5914)"/>
<path style="mix-blend-mode:multiply" opacity="0.5" d="M61.0085 120.844C61.0085 120.844 57.4713 116.006 55.2114 112.847C53.0498 109.589 49.4143 101.888 49.4143 101.888L57.8643 112.057C58.8469 113.242 61.0085 120.844 61.0085 120.844Z" fill="url(#paint76_linear_9_5914)"/>
<g style="mix-blend-mode:multiply">
<path d="M61.3034 72.2695C61.3034 71.7758 62.286 71.5784 62.286 71.5784C62.286 71.5784 63.8581 74.6389 63.5633 76.7122C63.2685 78.7855 61.4999 77.9957 61.4999 77.9957C61.8929 76.5148 58.5522 71.0847 58.5522 71.0847L61.3034 72.2695Z" fill="#EA8BC2"/>
</g>
<path d="M58.6504 310.5L58.7487 309.612C58.7487 309.612 69.262 310.402 78.105 310.105C86.9481 309.809 102.669 308.822 102.669 308.822L102.964 310.5H58.6504Z" fill="url(#paint77_linear_9_5914)"/>
<path d="M42.9295 310.007L15.0249 310.501L15.1231 309.908C15.1231 309.908 15.4179 309.02 18.6604 308.822C22.0011 308.625 27.5034 309.612 30.3528 309.612C33.2022 309.612 43.0278 309.217 43.0278 309.217L42.9295 310.007Z" fill="url(#paint78_linear_9_5914)"/>
<g style="mix-blend-mode:multiply">
<path d="M39.0975 292.631C39.4905 298.456 41.4557 301.22 41.4557 301.22C41.4557 301.22 43.4208 306.354 42.9295 310.007L35.6586 310.106H35.5603C35.6913 309.908 35.7568 309.711 35.7568 309.513C36.1498 307.835 35.3638 307.144 35.1673 307.045C35.1673 306.979 35.1673 306.946 35.1673 306.946C34.9708 301.418 38.901 293.223 39.0975 292.631Z" fill="#BF8BC2"/>
</g>
<g style="mix-blend-mode:multiply">
<path d="M58.6504 310.5C58.6504 307.637 61.4016 302.997 61.4016 302.997L63.5632 294.111C63.5632 294.111 71.3254 297.172 74.2731 299.936C77.2207 302.602 81.544 310.402 81.544 310.402L58.6504 310.5Z" fill="#E0BDD8"/>
</g>
<path style="mix-blend-mode:multiply" opacity="0.3" d="M64.2511 265.875C64.2511 265.875 63.1703 262.716 63.1703 262.025C63.1703 261.334 64.3494 254.324 64.7424 249.19C65.1354 244.254 65.0372 229.543 65.2337 227.47C65.2337 227.404 65.2337 227.339 65.2337 227.273C65.2337 227.273 65.2337 227.24 65.2337 227.174C65.5284 226.088 67.6901 220.263 68.5744 218.091C68.6399 217.894 68.7054 217.729 68.7709 217.597C68.8364 217.466 68.8692 217.367 68.8692 217.301C68.8692 217.235 68.8692 217.202 68.8692 217.202L68.3779 202.097C68.3779 202.097 69.4587 217.4 70.343 218.782C71.129 220.164 80.9546 227.174 82.4284 226.285C83.9023 225.397 91.1732 217.301 91.1732 217.301C91.075 218.19 90.9767 218.782 90.8785 218.881C90.2889 220.263 87.9308 224.311 87.4395 226.779C86.9482 229.346 82.0354 260.84 82.0354 260.84C82.0354 260.84 83.2145 262.815 83.2145 263.21C83.2145 263.605 78.3017 267.258 78.3017 267.258C78.3017 267.258 79.3825 270.713 79.0878 272.293C79.0878 272.293 74.4697 274.958 69.8517 275.156C65.2337 275.353 62.1877 270.812 62.1877 270.812L64.2511 265.875Z" fill="url(#paint79_linear_9_5914)"/>
<g style="mix-blend-mode:multiply" opacity="0.3">
<path d="M75.1576 172.084L59.7314 154.411L62.5809 155.695L74.4698 151.844L79.9721 156.09L79.7757 148.191L82.232 156.09L89.11 154.411L75.1576 172.084Z" fill="#EA8BC2"/>
</g>
<path d="M60.7139 92.6076C60.5829 92.6076 60.4519 92.6076 60.3208 92.6076C60.1898 92.6076 60.0588 92.6076 59.9278 92.6076C60.0588 93.0025 60.2226 93.3645 60.4191 93.6936C60.6156 94.0885 60.8449 94.4834 61.1069 94.8783C61.3034 95.3391 61.4999 95.7669 61.6964 96.1618C61.9584 96.5567 62.1877 96.9516 62.3842 97.3465C62.6462 97.8073 62.8755 98.2351 63.072 98.63C63.334 99.0907 63.5633 99.5186 63.7598 99.9135H62.7772C62.4497 99.2553 62.0894 98.5313 61.6964 97.7414C61.3034 97.0174 60.9104 96.2605 60.5174 95.4707C60.1899 95.01 59.8951 94.5492 59.6331 94.0885C59.3711 93.562 59.109 93.1012 58.847 92.7063C58.716 92.7063 58.585 92.7063 58.454 92.7063C58.323 92.7063 58.192 92.7063 58.061 92.7063L57.4714 91.5216C57.5369 91.5216 57.6679 91.5216 57.8645 91.5216C57.9955 91.5216 58.1265 91.5216 58.2575 91.5216C58.454 91.5216 58.6178 91.5216 58.7488 91.5216C58.9453 91.5216 59.109 91.4887 59.24 91.4229C59.3711 91.4229 59.5348 91.4229 59.7313 91.4229C59.8623 91.4229 59.9606 91.4229 60.0261 91.4229L60.7139 92.6076Z" fill="white"/>
<path fill-rule="evenodd" clip-rule="evenodd" d="M64.5459 93.6936C64.677 93.9569 64.808 94.2202 64.939 94.4835C65.0045 94.8126 65.07 95.0758 65.1355 95.2733C65.201 95.5366 65.201 95.7669 65.1355 95.9644C65.1355 96.2277 65.07 96.4251 64.939 96.5568C65.463 97.1491 65.9543 97.6757 66.4128 98.1364C66.9368 98.663 67.4609 99.1566 67.9849 99.6173L66.8058 99.8148L64.4477 96.9517C64.7097 97.4124 65.0045 97.9061 65.332 98.4326C65.594 98.8933 65.856 99.3541 66.118 99.8148H65.0372C64.5787 98.9591 64.1201 98.0706 63.6616 97.1491C63.2031 96.2935 62.7118 95.4049 62.1878 94.4835C61.9258 93.9569 61.631 93.4304 61.3035 92.9038C61.0415 92.3773 60.7467 91.8507 60.4192 91.3242C60.5502 91.2583 60.714 91.2254 60.9105 91.2254C61.0415 91.1596 61.1725 91.1267 61.3035 91.1267C61.369 91.1267 61.4673 91.1267 61.5983 91.1267C61.7293 91.1925 61.893 91.2583 62.0896 91.3242C62.2206 91.3242 62.3843 91.39 62.5808 91.5216C62.7773 91.6533 63.0066 91.8178 63.2686 92.0153C63.4651 92.2127 63.6616 92.4431 63.8581 92.7064C64.0547 92.9696 64.2839 93.2987 64.5459 93.6936ZM63.9564 96.0631C64.0219 95.9973 64.0874 95.9315 64.1529 95.8657C64.1529 95.734 64.1857 95.6353 64.2512 95.5695C64.2512 95.4378 64.2184 95.3391 64.1529 95.2733C64.1529 95.1417 64.1529 95.01 64.1529 94.8784C64.0874 94.6151 63.9564 94.3518 63.7599 94.0886C63.7599 94.0886 63.7271 94.0227 63.6616 93.8911C63.6616 93.8253 63.5961 93.7266 63.4651 93.5949C63.3996 93.4633 63.3013 93.3316 63.1703 93.2C63.0393 93.0025 62.9083 92.838 62.7773 92.7064C62.6463 92.5747 62.5153 92.4431 62.3843 92.3114C62.2533 92.2456 62.0895 92.1798 61.893 92.114C62.2205 92.7064 62.5481 93.3316 62.8756 93.9898C63.1376 94.5822 63.4651 95.1746 63.8581 95.7669L63.9564 96.0631Z" fill="white"/>
<path fill-rule="evenodd" clip-rule="evenodd" d="M70.2445 99.6173C70.048 99.3541 69.8842 99.0908 69.7532 98.8275C69.5567 98.4984 69.3929 98.2022 69.2619 97.939C69.0654 97.939 68.9016 97.939 68.7706 97.939C68.6396 97.939 68.5086 97.939 68.3776 97.939C68.5086 98.2022 68.6396 98.4655 68.7706 98.7288C68.9016 99.0579 69.0326 99.3541 69.1637 99.6173H67.9846C67.3951 98.2351 66.8055 96.82 66.216 95.372C65.6264 93.9898 65.0042 92.6076 64.3491 91.2254L65.7247 91.1267C66.6418 92.5089 67.5588 93.8911 68.4759 95.2733C69.3929 96.6555 70.3427 98.0377 71.3253 99.4199L70.2445 99.6173ZM65.823 92.7064C66.216 93.4304 66.5763 94.1544 66.9038 94.8784C67.2313 95.6024 67.5588 96.3264 67.8863 97.0504C67.9518 97.0504 68.0173 97.0504 68.0828 97.0504C68.1483 97.0504 68.2139 97.0504 68.2794 97.0504H68.6724C68.2138 96.3264 67.7553 95.6024 67.2968 94.8784C66.8383 94.1544 66.347 93.4304 65.823 92.7064Z" fill="white"/>
<path d="M70.1464 91.0279C70.7359 92.4101 71.3254 93.7923 71.915 95.1745C72.5045 96.6225 73.094 98.0376 73.6836 99.4198L72.308 99.5185C71.4564 98.0705 70.5721 96.6554 69.6551 95.2732C68.738 93.891 67.7882 92.5088 66.8057 91.1267L67.9847 91.0279C68.6398 92.2127 69.3276 93.3974 70.0481 94.5821C70.7686 95.7011 71.4892 96.8529 72.2097 98.0376C71.6857 96.8529 71.1617 95.6682 70.6376 94.4834C70.1136 93.2987 69.5568 92.1139 68.9673 90.9292L70.1464 91.0279Z" fill="white"/>
<path d="M75.2557 96.0629C75.1247 96.0629 74.9937 96.0629 74.8627 96.0629C74.7972 96.0629 74.6989 96.0629 74.5679 96.0629C74.5679 96.0629 74.5351 96.0958 74.4696 96.1616C74.4041 96.1616 74.3386 96.1616 74.2731 96.1616L75.354 98.2349C75.616 98.2349 75.878 98.202 76.14 98.1362C76.3365 98.1362 76.5658 98.1033 76.8278 98.0374L77.5156 99.2222C77.3191 99.2222 77.1225 99.2222 76.926 99.2222C76.795 99.2222 76.6313 99.2222 76.4347 99.2222C76.2382 99.2222 76.009 99.2551 75.747 99.3209C75.5505 99.3209 75.3212 99.3538 75.0592 99.4196C74.6661 98.6298 74.3059 97.9058 73.9783 97.2476C73.5853 96.5236 73.1923 95.7996 72.7993 95.0756C72.4063 94.3516 72.0132 93.6605 71.6202 93.0023C71.2272 92.2783 70.8342 91.5872 70.4412 90.929C70.8342 90.929 71.1944 90.929 71.522 90.929C71.7185 90.8632 71.915 90.8303 72.1115 90.8303C72.308 90.8303 72.5373 90.7974 72.7993 90.7316L73.4871 92.1138C73.2906 92.0479 73.0941 92.015 72.8976 92.015C72.701 92.015 72.5045 92.015 72.308 92.015H72.1115C72.3735 92.5416 72.6028 93.0352 72.7993 93.496C73.0613 93.9567 73.3233 94.4503 73.5853 94.9769C73.7163 94.9769 73.8146 94.9769 73.8801 94.9769C73.9456 94.9769 74.0439 94.9769 74.1749 94.9769C74.2404 94.9769 74.3059 94.9769 74.3714 94.9769C74.4369 94.9769 74.5024 94.944 74.5679 94.8781L75.2557 96.0629Z" fill="white"/>
<path d="M80.3649 99.1237C80.1684 99.1237 80.0047 99.1237 79.8736 99.1237C79.6771 99.1237 79.5134 99.1237 79.3824 99.1237C79.1204 99.1237 78.8911 99.1237 78.6946 99.1237C78.4326 99.1895 78.1705 99.2224 77.9085 99.2224C77.581 98.4984 77.2208 97.7744 76.8277 97.0504C76.4347 96.3264 76.0417 95.6024 75.6487 94.8784C75.2556 94.2202 74.8626 93.5291 74.4696 92.8051C74.0766 92.1469 73.6836 91.4558 73.2905 90.7318C73.2905 90.7318 73.3233 90.7318 73.3888 90.7318C73.4543 90.7318 73.487 90.7318 73.487 90.7318C73.5525 90.7318 73.618 90.7318 73.6835 90.7318C73.8146 90.7318 73.9128 90.7318 73.9783 90.7318C74.1093 90.7318 74.2403 90.6989 74.3713 90.6331C74.6334 91.2254 74.9281 91.8507 75.2556 92.5089C75.5832 93.1013 75.9107 93.7265 76.2382 94.3847C76.5657 94.9771 76.926 95.6024 77.319 96.2606C77.6465 96.9187 77.9741 97.544 78.3016 98.1364C78.4981 98.0706 78.7273 98.0377 78.9894 98.0377C79.2514 97.9718 79.4806 97.906 79.6772 97.8402L80.3649 99.1237Z" fill="white"/>
<g style="mix-blend-mode:multiply" opacity="0.7">
<path d="M75.4522 119.659C75.3539 120.153 75.747 121.14 75.747 121.14L72.6028 126.373C72.6028 126.373 71.3255 127.064 66.4127 126.373C61.4999 125.78 57.4714 123.509 57.4714 123.509L50.0039 111.86L49.3162 102.875C49.3162 102.875 57.6679 104.159 57.4714 103.369C57.2749 102.678 60.9104 105.245 66.8057 104.455C71.915 103.665 74.8627 101.888 78.2034 104.257C78.8912 104.652 82.2319 100.802 82.2319 100.802C81.5441 107.219 75.6487 119.165 75.4522 119.659Z" fill="#E08BC2"/>
</g>
<path style="mix-blend-mode:multiply" d="M74.7645 50.1544C74.5025 50.2202 74.2405 50.1544 73.9785 49.9569C75.0593 49.6608 74.7645 48.1798 73.9785 46.6989C74.3715 46.5015 75.2558 46.4027 75.6488 46.1066C75.8453 46.9951 76.0418 49.8582 74.7645 50.1544ZM73.9785 41.2689C74.175 41.4663 75.3541 43.8358 75.6488 46.1066C75.2558 46.4027 74.3715 46.5015 73.9785 46.6989C73.1924 45.3167 72.1116 43.9345 71.6203 43.7371C70.4413 43.3422 69.4587 45.5142 68.0831 44.4282C69.2622 43.8358 70.5395 43.7371 71.8168 43.2434C72.9959 42.7498 73.8802 41.0714 73.9785 41.2689ZM63.2686 39.7879C65.9215 37.6159 68.9674 42.3549 70.736 43.1447C71.1291 43.3422 71.5221 43.3422 71.8168 43.2434C70.5395 43.7371 69.2622 43.8358 68.0831 44.4282C64.2511 41.3676 62.679 44.2307 58.6506 45.3167C57.1767 45.7116 55.8011 45.7116 54.4256 45.6129C55.0151 44.7244 56.5872 44.132 57.4715 43.6383C60.9104 43.8358 61.2052 41.3676 63.2686 39.7879ZM53.6395 43.2434C55.0806 43.3751 56.3579 43.5067 57.4715 43.6383C56.5872 44.132 55.0151 44.7244 54.4256 45.6129C51.7727 45.4155 49.1197 44.8231 46.5651 45.4154C46.8271 44.7573 47.2529 44.2636 47.8424 43.9345C49.1197 43.2434 51.0849 43.046 53.6395 43.2434ZM73.9785 49.9569C73.0942 49.3646 72.2099 47.7849 71.5221 46.2053C71.5221 46.2053 72.0134 47.6862 70.2447 48.7722C71.5221 48.2786 72.5046 47.5875 73.9785 46.6989C74.7645 48.1798 75.0593 49.6608 73.9785 49.9569ZM71.6203 43.7371C72.1116 43.9345 73.1924 45.3167 73.9785 46.6989C72.5046 47.5875 71.5221 48.2786 70.2447 48.7722C70.1792 48.838 70.1137 48.9038 70.0482 48.9697C68.0831 50.0557 63.7599 49.2659 62.8756 48.2786C64.7424 47.1926 66.2162 45.4154 68.0831 44.4282C69.4587 45.5142 70.4413 43.3422 71.6203 43.7371ZM58.6506 45.3167C62.679 44.2307 64.2511 41.3676 68.0831 44.4282C66.2162 45.4154 64.7424 47.1926 62.8756 48.2786C62.3843 47.6862 62.4825 47.1926 61.7947 46.8964C61.2052 46.6002 56.9802 47.5875 55.3099 51.5366C54.9168 52.3264 54.3273 53.0175 53.7378 53.5112C53.5413 51.9315 52.9517 47.39 54.4256 45.6129C55.8011 45.7116 57.1767 45.7116 58.6506 45.3167ZM54.4256 45.6129C52.9517 47.39 53.5413 51.9315 53.7378 53.5112C51.9692 54.6959 49.611 54.4984 48.0389 52.7213C46.4668 50.9442 45.6808 47.5875 46.5651 45.4154C49.1197 44.8231 51.7727 45.4155 54.4256 45.6129Z" fill="url(#paint80_linear_9_5914)"/>
<path d="M18.8568 231.222V234.184C18.8568 234.184 11.7824 234.875 7.06611 231.913L6.6731 229.642C6.6731 229.642 11.6841 231.716 18.8568 231.222Z" fill="url(#paint81_linear_9_5914)"/>
<g style="mix-blend-mode:multiply">
<path d="M125.366 60.5208L117.407 54.0048C117.407 54.0048 121.731 58.3488 125.366 60.5208Z" fill="#EA8BC2"/>
</g>
<defs>
<linearGradient id="paint0_linear_9_5914" x1="41.7504" y1="290.36" x2="41.7504" y2="271.997" gradientUnits="userSpaceOnUse">
<stop stop-color="#FFB374"/>
<stop offset="1" stop-color="#FF9577"/>
</linearGradient>
<linearGradient id="paint1_linear_9_5914" x1="77.8102" y1="289.866" x2="77.8102" y2="273.675" gradientUnits="userSpaceOnUse">
<stop stop-color="#FFB374"/>
<stop offset="1" stop-color="#FF9577"/>
</linearGradient>
<linearGradient id="paint2_linear_9_5914" x1="104.143" y1="309.513" x2="104.143" y2="282.659" gradientUnits="userSpaceOnUse">
<stop stop-color="#D191FF"/>
<stop offset="1" stop-color="#CF95FF"/>
</linearGradient>
<linearGradient id="paint3_linear_9_5914" x1="43.4207" y1="309.81" x2="43.4207" y2="285.621" gradientUnits="userSpaceOnUse">
<stop stop-color="#D191FF"/>
<stop offset="1" stop-color="#CF95FF"/>
</linearGradient>
<linearGradient id="paint4_linear_9_5914" x1="44.9929" y1="310.501" x2="44.9929" y2="301.22" gradientUnits="userSpaceOnUse">
<stop stop-color="#FFC4BA"/>
<stop offset="1" stop-color="#FFE7E5"/>
</linearGradient>
<linearGradient id="paint5_linear_9_5914" x1="104.929" y1="310.5" x2="104.929" y2="302.997" gradientUnits="userSpaceOnUse">
<stop stop-color="#FFC4BA"/>
<stop offset="1" stop-color="#FFE7E5"/>
</linearGradient>
<linearGradient id="paint6_linear_9_5914" x1="65.5284" y1="35.3452" x2="65.5284" y2="0.0992638" gradientUnits="userSpaceOnUse">
<stop stop-color="#FF8959"/>
<stop offset="1" stop-color="#FFA73B"/>
</linearGradient>
<linearGradient id="paint7_linear_9_5914" x1="81.3478" y1="1.87642" x2="21.7065" y2="1.87642" gradientUnits="userSpaceOnUse">
<stop stop-color="#FFB159"/>
<stop offset="1" stop-color="#FFA73B"/>
</linearGradient>
<linearGradient id="paint8_linear_9_5914" x1="83.3127" y1="55.5845" x2="83.3127" y2="4.44336" gradientUnits="userSpaceOnUse">
<stop stop-color="#FF4C59"/>
<stop offset="1" stop-color="#FF813B"/>
</linearGradient>
<linearGradient id="paint9_linear_9_5914" x1="128.314" y1="72.072" x2="128.314" y2="56.3742" gradientUnits="userSpaceOnUse">
<stop stop-color="#FF9577"/>
<stop offset="1" stop-color="#FFB374"/>
</linearGradient>
<linearGradient id="paint10_linear_9_5914" x1="80.8562" y1="70.3936" x2="80.8562" y2="18.1664" gradientUnits="userSpaceOnUse">
<stop stop-color="#DB3440"/>
<stop offset="1" stop-color="#922046"/>
</linearGradient>
<linearGradient id="paint11_linear_9_5914" x1="77.319" y1="60.6195" x2="77.319" y2="20.9308" gradientUnits="userSpaceOnUse">
<stop stop-color="#FFB374"/>
<stop offset="1" stop-color="#FF9577"/>
</linearGradient>
<linearGradient id="paint12_linear_9_5914" x1="44.4035" y1="51.734" x2="44.4035" y2="41.1701" gradientUnits="userSpaceOnUse">
<stop stop-color="#FFB374"/>
<stop offset="1" stop-color="#FF9577"/>
</linearGradient>
<linearGradient id="paint13_linear_9_5914" x1="65.4303" y1="78.8843" x2="65.4303" y2="55.1896" gradientUnits="userSpaceOnUse">
<stop stop-color="#FF8D5B"/>
<stop offset="1" stop-color="#FF6F6B"/>
</linearGradient>
<linearGradient id="paint14_linear_9_5914" x1="120.355" y1="112.452" x2="120.355" y2="69.4065" gradientUnits="userSpaceOnUse">
<stop stop-color="#FFB374"/>
<stop offset="1" stop-color="#FF9577"/>
</linearGradient>
<linearGradient id="paint15_linear_9_5914" x1="140.105" y1="110.379" x2="140.105" y2="15.5009" gradientUnits="userSpaceOnUse">
<stop stop-color="#FFC4BA"/>
<stop offset="1" stop-color="#FFD9D6"/>
</linearGradient>
<linearGradient id="paint16_linear_9_5914" x1="112.789" y1="106.726" x2="112.789" y2="26.361" gradientUnits="userSpaceOnUse">
<stop stop-color="white"/>
<stop offset="1" stop-color="#E5658E"/>
</linearGradient>
<linearGradient id="paint17_linear_9_5914" x1="127.725" y1="108.404" x2="127.725" y2="30.3102" gradientUnits="userSpaceOnUse">
<stop stop-color="white"/>
<stop offset="1" stop-color="#E5658E"/>
</linearGradient>
<linearGradient id="paint18_linear_9_5914" x1="130.967" y1="62.693" x2="130.967" y2="48.6736" gradientUnits="userSpaceOnUse">
<stop stop-color="#FF9577"/>
<stop offset="1" stop-color="#FF6A4A"/>
</linearGradient>
<linearGradient id="paint19_linear_9_5914" x1="126.742" y1="66.0495" x2="126.742" y2="60.1259" gradientUnits="userSpaceOnUse">
<stop stop-color="#FF9577"/>
<stop offset="1" stop-color="#FF6A4A"/>
</linearGradient>
<linearGradient id="paint20_linear_9_5914" x1="56.5869" y1="72.0721" x2="56.5869" y2="15.5008" gradientUnits="userSpaceOnUse">
<stop stop-color="#F25259"/>
<stop offset="1" stop-color="#A73646"/>
</linearGradient>
<linearGradient id="paint21_linear_9_5914" x1="94.3174" y1="120.844" x2="94.3174" y2="77.8971" gradientUnits="userSpaceOnUse">
<stop stop-color="#DD0051"/>
<stop offset="1" stop-color="#FF3734"/>
</linearGradient>
<linearGradient id="paint22_linear_9_5914" x1="62.0894" y1="275.156" x2="62.0894" y2="124.595" gradientUnits="userSpaceOnUse">
<stop stop-color="#FFB698"/>
<stop offset="1" stop-color="#FFE39F"/>
</linearGradient>
<linearGradient id="paint23_linear_9_5914" x1="84.1969" y1="129.236" x2="84.1969" y2="69.4064" gradientUnits="userSpaceOnUse">
<stop stop-color="#FF1651"/>
<stop offset="1" stop-color="#FF4B48"/>
</linearGradient>
<linearGradient id="paint24_linear_9_5914" x1="79.2843" y1="131.013" x2="79.2843" y2="124.99" gradientUnits="userSpaceOnUse">
<stop stop-color="#B54822"/>
<stop offset="1" stop-color="#CE3F4B"/>
</linearGradient>
<linearGradient id="paint25_linear_9_5914" x1="60.2225" y1="36.7274" x2="50.397" y2="36.7274" gradientUnits="userSpaceOnUse">
<stop stop-color="#E5658E"/>
<stop offset="1" stop-color="white"/>
</linearGradient>
<linearGradient id="paint26_linear_9_5914" x1="66.6091" y1="132.099" x2="66.6091" y2="127.557" gradientUnits="userSpaceOnUse">
<stop stop-color="#FFB698"/>
<stop offset="1" stop-color="#FFE39F"/>
</linearGradient>
<linearGradient id="paint27_linear_9_5914" x1="60.3209" y1="159.15" x2="60.3209" y2="139.8" gradientUnits="userSpaceOnUse">
<stop stop-color="#E5658E"/>
<stop offset="1" stop-color="white"/>
</linearGradient>
<linearGradient id="paint28_linear_9_5914" x1="87.8324" y1="139.898" x2="87.8324" y2="133.876" gradientUnits="userSpaceOnUse">
<stop stop-color="#E5658E"/>
<stop offset="1" stop-color="white"/>
</linearGradient>
<linearGradient id="paint29_linear_9_5914" x1="52.4605" y1="180.673" x2="52.4605" y2="159.841" gradientUnits="userSpaceOnUse">
<stop stop-color="white"/>
<stop offset="1" stop-color="#E5658E"/>
</linearGradient>
<linearGradient id="paint30_linear_9_5914" x1="82.625" y1="210.094" x2="82.625" y2="129.631" gradientUnits="userSpaceOnUse">
<stop stop-color="white"/>
<stop offset="1" stop-color="#E5658E"/>
</linearGradient>
<linearGradient id="paint31_linear_9_5914" x1="75.0593" y1="32.5808" x2="75.0593" y2="25.4724" gradientUnits="userSpaceOnUse">
<stop stop-color="#E05259"/>
<stop offset="1" stop-color="#A73646"/>
</linearGradient>
<linearGradient id="paint32_linear_9_5914" x1="60.5174" y1="23.9916" x2="48.825" y2="23.9916" gradientUnits="userSpaceOnUse">
<stop stop-color="#A73646"/>
<stop offset="1" stop-color="#E05259"/>
</linearGradient>
<linearGradient id="paint33_linear_9_5914" x1="63.5632" y1="43.2435" x2="63.5632" y2="27.0521" gradientUnits="userSpaceOnUse">
<stop stop-color="white"/>
<stop offset="1" stop-color="#E5658E"/>
</linearGradient>
<linearGradient id="paint34_linear_9_5914" x1="62.286" y1="42.9473" x2="62.286" y2="33.272" gradientUnits="userSpaceOnUse">
<stop stop-color="#FFC4BA"/>
<stop offset="1" stop-color="#FFD9D6"/>
</linearGradient>
<linearGradient id="paint35_linear_9_5914" x1="60.6157" y1="36.7273" x2="60.6157" y2="31.9884" gradientUnits="userSpaceOnUse">
<stop stop-color="#FF8D5B"/>
<stop offset="1" stop-color="#FF6F6B"/>
</linearGradient>
<linearGradient id="paint36_linear_9_5914" x1="72.3082" y1="37.9121" x2="69.4588" y2="37.9121" gradientUnits="userSpaceOnUse">
<stop stop-color="#E5658E"/>
<stop offset="1" stop-color="white"/>
</linearGradient>
<linearGradient id="paint37_linear_9_5914" x1="74.5681" y1="42.6511" x2="74.5681" y2="31.791" gradientUnits="userSpaceOnUse">
<stop stop-color="#FFC4BA"/>
<stop offset="1" stop-color="#FFD9D6"/>
</linearGradient>
<linearGradient id="paint38_linear_9_5914" x1="74.8627" y1="36.6288" x2="74.8627" y2="30.8038" gradientUnits="userSpaceOnUse">
<stop stop-color="#FF8D5B"/>
<stop offset="1" stop-color="#FF6F6B"/>
</linearGradient>
<linearGradient id="paint39_linear_9_5914" x1="62.4826" y1="44.0333" x2="70.0524" y2="42.1743" gradientUnits="userSpaceOnUse">
<stop stop-color="#FFC2C4"/>
<stop offset="1" stop-color="#E5658E"/>
</linearGradient>
<linearGradient id="paint40_linear_9_5914" x1="63.7597" y1="46.6989" x2="65.6273" y2="46.3077" gradientUnits="userSpaceOnUse">
<stop stop-color="#B04C8E"/>
<stop offset="1" stop-color="#FFBDAC"/>
</linearGradient>
<linearGradient id="paint41_linear_9_5914" x1="61.9914" y1="45.8102" x2="70.8392" y2="43.6578" gradientUnits="userSpaceOnUse">
<stop stop-color="white"/>
<stop offset="1" stop-color="#E5658E"/>
</linearGradient>
<linearGradient id="paint42_linear_9_5914" x1="62.3842" y1="51.9315" x2="62.3842" y2="50.4506" gradientUnits="userSpaceOnUse">
<stop stop-color="white"/>
<stop offset="1" stop-color="#E5658E"/>
</linearGradient>
<linearGradient id="paint43_linear_9_5914" x1="75.354" y1="44.0333" x2="75.354" y2="28.2368" gradientUnits="userSpaceOnUse">
<stop stop-color="white"/>
<stop offset="1" stop-color="#E5658E"/>
</linearGradient>
<linearGradient id="paint44_linear_9_5914" x1="68.378" y1="60.6196" x2="68.378" y2="53.3137" gradientUnits="userSpaceOnUse">
<stop stop-color="#E5658E"/>
<stop offset="1" stop-color="white"/>
</linearGradient>
<linearGradient id="paint45_linear_9_5914" x1="38.7044" y1="3.75222" x2="29.5667" y2="3.75222" gradientUnits="userSpaceOnUse">
<stop stop-color="#E5658E"/>
<stop offset="1" stop-color="white"/>
</linearGradient>
<linearGradient id="paint46_linear_9_5914" x1="82.3303" y1="69.2088" x2="82.3303" y2="46.8962" gradientUnits="userSpaceOnUse">
<stop stop-color="#A93656"/>
<stop offset="1" stop-color="white"/>
</linearGradient>
<linearGradient id="paint47_linear_9_5914" x1="46.0738" y1="70.4924" x2="46.0738" y2="35.1477" gradientUnits="userSpaceOnUse">
<stop stop-color="#A93656"/>
<stop offset="1" stop-color="white"/>
</linearGradient>
<linearGradient id="paint48_linear_9_5914" x1="47.1545" y1="30.0138" x2="37.5254" y2="30.0138" gradientUnits="userSpaceOnUse">
<stop stop-color="#A43648"/>
<stop offset="1" stop-color="white"/>
</linearGradient>
<linearGradient id="paint49_linear_9_5914" x1="55.2115" y1="18.1664" x2="37.4272" y2="18.1664" gradientUnits="userSpaceOnUse">
<stop stop-color="#A43648"/>
<stop offset="1" stop-color="white"/>
</linearGradient>
<linearGradient id="paint50_linear_9_5914" x1="72.603" y1="15.9946" x2="55.2117" y2="15.9946" gradientUnits="userSpaceOnUse">
<stop stop-color="white"/>
<stop offset="1" stop-color="#A43648"/>
</linearGradient>
<linearGradient id="paint51_linear_9_5914" x1="45.9756" y1="176.132" x2="45.9756" y2="117.882" gradientUnits="userSpaceOnUse">
<stop stop-color="#FFB374"/>
<stop offset="1" stop-color="#FF9577"/>
</linearGradient>
<linearGradient id="paint52_linear_9_5914" x1="45.6806" y1="257.878" x2="45.6806" y2="166.16" gradientUnits="userSpaceOnUse">
<stop stop-color="#FF4C59"/>
<stop offset="1" stop-color="#FF813B"/>
</linearGradient>
<linearGradient id="paint53_linear_9_5914" x1="45.1895" y1="176.131" x2="45.1895" y2="160.927" gradientUnits="userSpaceOnUse">
<stop stop-color="white"/>
<stop offset="1" stop-color="#E5658E"/>
</linearGradient>
<linearGradient id="paint54_linear_9_5914" x1="79.0878" y1="161.717" x2="79.0878" y2="130.717" gradientUnits="userSpaceOnUse">
<stop stop-color="white"/>
<stop offset="1" stop-color="#E5658E"/>
</linearGradient>
<linearGradient id="paint55_linear_9_5914" x1="93.1383" y1="235.27" x2="93.1383" y2="217.301" gradientUnits="userSpaceOnUse">
<stop stop-color="white"/>
<stop offset="1" stop-color="#E5658E"/>
</linearGradient>
<linearGradient id="paint56_linear_9_5914" x1="85.1795" y1="270.812" x2="85.1795" y2="240.108" gradientUnits="userSpaceOnUse">
<stop stop-color="#E5658E"/>
<stop offset="1" stop-color="white"/>
</linearGradient>
<linearGradient id="paint57_linear_9_5914" x1="61.6965" y1="236.948" x2="61.6965" y2="217.894" gradientUnits="userSpaceOnUse">
<stop stop-color="white"/>
<stop offset="1" stop-color="#E5658E"/>
</linearGradient>
<linearGradient id="paint58_linear_9_5914" x1="50.0039" y1="271.503" x2="50.0039" y2="249.487" gradientUnits="userSpaceOnUse">
<stop stop-color="#E5658E"/>
<stop offset="1" stop-color="white"/>
</linearGradient>
<linearGradient id="paint59_linear_9_5914" x1="58.1592" y1="157.867" x2="58.1592" y2="130.42" gradientUnits="userSpaceOnUse">
<stop stop-color="white"/>
<stop offset="1" stop-color="#E5658E"/>
</linearGradient>
<linearGradient id="paint60_linear_9_5914" x1="96.2824" y1="205.947" x2="96.2824" y2="147.105" gradientUnits="userSpaceOnUse">
<stop stop-color="white"/>
<stop offset="1" stop-color="#E5658E"/>
</linearGradient>
<linearGradient id="paint61_linear_9_5914" x1="29.9599" y1="208.811" x2="29.9599" y2="176.131" gradientUnits="userSpaceOnUse">
<stop stop-color="#953D8E"/>
<stop offset="1" stop-color="white"/>
</linearGradient>
<linearGradient id="paint62_linear_9_5914" x1="27.1105" y1="256.792" x2="27.1105" y2="251.362" gradientUnits="userSpaceOnUse">
<stop stop-color="#953D8E"/>
<stop offset="1" stop-color="white"/>
</linearGradient>
<linearGradient id="paint63_linear_9_5914" x1="18.8571" y1="206.836" x2="4.90473" y2="206.836" gradientUnits="userSpaceOnUse">
<stop stop-color="white"/>
<stop offset="1" stop-color="#E5658E"/>
</linearGradient>
<linearGradient id="paint64_linear_9_5914" x1="79.9719" y1="154.115" x2="72.4062" y2="154.115" gradientUnits="userSpaceOnUse">
<stop stop-color="white"/>
<stop offset="1" stop-color="#E5658E"/>
</linearGradient>
<linearGradient id="paint65_linear_9_5914" x1="72.3083" y1="227.273" x2="72.3083" y2="217.202" gradientUnits="userSpaceOnUse">
<stop stop-color="white"/>
<stop offset="1" stop-color="#E5658E"/>
</linearGradient>
<linearGradient id="paint66_linear_9_5914" x1="122.615" y1="108.404" x2="122.615" y2="86.8813" gradientUnits="userSpaceOnUse">
<stop stop-color="#E5658E"/>
<stop offset="1" stop-color="white"/>
</linearGradient>
<linearGradient id="paint67_linear_9_5914" x1="44.3052" y1="122.423" x2="44.3052" y2="84.4131" gradientUnits="userSpaceOnUse">
<stop stop-color="#AC526A"/>
<stop offset="1" stop-color="white"/>
</linearGradient>
<linearGradient id="paint68_linear_9_5914" x1="59.4365" y1="123.51" x2="59.4365" y2="102.875" gradientUnits="userSpaceOnUse">
<stop stop-color="#AC526A"/>
<stop offset="1" stop-color="white"/>
</linearGradient>
<linearGradient id="paint69_linear_9_5914" x1="73.2906" y1="127.064" x2="73.2906" y2="99.9135" gradientUnits="userSpaceOnUse">
<stop stop-color="#AC526A"/>
<stop offset="1" stop-color="white"/>
</linearGradient>
<linearGradient id="paint70_linear_9_5914" x1="78.8913" y1="126.669" x2="78.8913" y2="105.64" gradientUnits="userSpaceOnUse">
<stop stop-color="#AC526A"/>
<stop offset="1" stop-color="white"/>
</linearGradient>
<linearGradient id="paint71_linear_9_5914" x1="84.9831" y1="120.251" x2="84.9831" y2="100.802" gradientUnits="userSpaceOnUse">
<stop stop-color="#AC526A"/>
<stop offset="1" stop-color="white"/>
</linearGradient>
<linearGradient id="paint72_linear_9_5914" x1="78.3999" y1="90.4356" x2="78.3999" y2="82.6361" gradientUnits="userSpaceOnUse">
<stop stop-color="#AC526A"/>
<stop offset="1" stop-color="white"/>
</linearGradient>
<linearGradient id="paint73_linear_9_5914" x1="67.6899" y1="67.7281" x2="45.9753" y2="67.7281" gradientUnits="userSpaceOnUse">
<stop stop-color="white"/>
<stop offset="1" stop-color="#AC526A"/>
</linearGradient>
<linearGradient id="paint74_linear_9_5914" x1="71.031" y1="89.8433" x2="71.031" y2="73.1582" gradientUnits="userSpaceOnUse">
<stop stop-color="white"/>
<stop offset="1" stop-color="#AC526A"/>
</linearGradient>
<linearGradient id="paint75_linear_9_5914" x1="84.1971" y1="116.5" x2="84.1971" y2="101.394" gradientUnits="userSpaceOnUse">
<stop stop-color="white"/>
<stop offset="1" stop-color="#AC526A"/>
</linearGradient>
<linearGradient id="paint76_linear_9_5914" x1="62.9736" y1="120.844" x2="62.9736" y2="101.888" gradientUnits="userSpaceOnUse">
<stop stop-color="white"/>
<stop offset="1" stop-color="#AC526A"/>
</linearGradient>
<linearGradient id="paint77_linear_9_5914" x1="104.929" y1="310.5" x2="104.929" y2="308.822" gradientUnits="userSpaceOnUse">
<stop stop-color="#744FD8"/>
<stop offset="1" stop-color="#3996F7"/>
</linearGradient>
<linearGradient id="paint78_linear_9_5914" x1="44.9929" y1="310.501" x2="44.9929" y2="308.921" gradientUnits="userSpaceOnUse">
<stop stop-color="#744FD8"/>
<stop offset="1" stop-color="#3996F7"/>
</linearGradient>
<linearGradient id="paint79_linear_9_5914" x1="93.1383" y1="274.958" x2="93.1383" y2="202.097" gradientUnits="userSpaceOnUse">
<stop stop-color="#E5658E"/>
<stop offset="1" stop-color="white"/>
</linearGradient>
<linearGradient id="paint80_linear_9_5914" x1="74.4698" y1="50.2531" x2="73.7757" y2="47.2928" gradientUnits="userSpaceOnUse">
<stop stop-color="white"/>
<stop offset="1" stop-color="#FFC2C7"/>
</linearGradient>
<linearGradient id="paint81_linear_9_5914" x1="18.8568" y1="227.865" x2="6.6731" y2="227.865" gradientUnits="userSpaceOnUse">
<stop stop-color="#FFB698"/>
<stop offset="1" stop-color="#FFE39F"/>
</linearGradient>
</defs>
</svg>
