<svg width="100" height="312" viewBox="0 0 100 312" fill="none" xmlns="http://www.w3.org/2000/svg">
<path d="M46.7001 43.4199L46.0001 49.4199C45.2668 49.4866 44.6001 49.5199 44.0001 49.5199C41.5001 49.4199 39.9001 48.5199 39.9001 48.5199C41.3001 50.2199 43.7001 49.8199 43.7001 49.8199C43.7001 49.8199 39.2001 52.8199 36.9001 49.6199C34.6001 46.3199 33.7001 40.1199 33.7001 40.1199C32.3001 45.5199 26.6001 46.0199 26.6001 46.0199C32.9001 42.4199 34.6001 36.5199 34.6001 36.5199L44.0001 38.0199L46.7001 43.4199Z" fill="url(#paint0_linear_9_5169)"/>
<g style="mix-blend-mode:multiply">
<path d="M44.0001 49.5199C41.5001 49.4199 39.9001 48.5199 39.9001 48.5199C41.3001 50.2199 43.7001 49.8199 43.7001 49.8199C43.7001 49.8199 38.4001 51.7199 37.3001 48.7199C36.3001 45.7199 36.7001 40.5199 36.7001 40.5199L42.5001 40.0199C44.9001 42.2199 47.1001 44.6199 45.0001 49.5199H44.0001Z" fill="#CE8BC2"/>
</g>
<path d="M51.3001 140.52C51.3001 140.52 48.5001 141.22 37.4001 142.32C26.4001 143.32 6.40009 142.32 6.40009 142.32C2.90009 134.12 1.40009 124.42 1.40009 124.42L0.600098 123.92C1.1001 118.12 2.80011 111.72 2.80011 111.72L4.30011 110.82C4.60011 101.72 5.30011 90.2198 5.30011 90.2198H3.70013C2.60013 69.6198 11.7001 56.7198 11.7001 56.7198C11.7001 56.7198 15.0001 58.6198 24.0001 57.7198C33.0001 56.7198 44.4001 54.2198 44.4001 54.2198L51.3001 140.52Z" fill="url(#paint1_linear_9_5169)"/>
<path d="M18.6001 142.72C18.6001 142.72 19.9001 83.0199 25.6001 70.8199L43.2001 69.4199L42.3001 133.32L33.8001 142.32L18.6001 142.72Z" fill="#CC2C36"/>
<path d="M29.2002 56.9199C38.6002 55.5199 46.1002 53.6199 46.1002 53.6199L45.8002 57.1199L28.1002 64.5199C24.6002 61.4199 11.7002 56.7199 11.7002 56.7199C11.7002 56.7199 19.7002 58.2199 29.2002 56.9199Z" fill="url(#paint2_linear_9_5169)"/>
<path d="M95.1 184.72C95.1 184.72 85.8001 188.42 79.5001 190.82C73.2001 193.22 64.3 192.32 64.3 192.32C64.3 192.32 69.5 185.42 74.4 183.62C79.4 181.92 95.1 184.72 95.1 184.72Z" fill="url(#paint3_linear_9_5169)"/>
<path d="M71.0002 188.32C71.0002 188.32 64.9002 211.52 64.6002 212.92C64.2002 214.22 61.1002 216.22 57.8002 223.42C54.6002 230.72 47.6002 268.72 47.6002 268.72C47.6002 268.72 43.3002 271.02 37.3002 267.72C37.3002 267.72 37.4002 254.72 37.3002 246.62C37.1002 238.52 38.3002 231.52 42.5002 225.82C46.8002 220.02 54.1002 196.42 54.1002 196.42L71.0002 188.32Z" fill="url(#paint4_linear_9_5169)"/>
<g style="mix-blend-mode:multiply">
<path d="M67.3002 202.62C67.3002 202.62 56.4002 214.22 55.8002 217.62C55.3002 220.92 52.2002 213.02 52.2002 213.02L54.7002 195.42L71.0002 188.32L67.3002 202.62Z" fill="#EA8BC2"/>
</g>
<path d="M73.9 109.62C73.9 109.62 77.3 126.02 78.7 131.02C80.1 135.92 82.2 140.22 82.4 140.72C82.6 141.12 81.6 142.92 81.6 142.92L82.4 156.12L72.9 143.92C72.9 143.92 73.4 140.92 75.1 139.52C75.1 139.52 71.5 128.22 67.6 121.32C63.6 114.42 64.3 110.92 64.3 110.92C64.3 110.92 70 106.52 73.9 109.62Z" fill="url(#paint5_linear_9_5169)"/>
<path d="M69 70.6199C69 70.6199 71.2 76.1199 72.4 82.2199C73.5 88.3199 77.1 107.82 77.1 107.82L67.8 108.62C67.8 108.62 66.8 76.9199 69 70.6199Z" fill="url(#paint6_linear_9_5169)"/>
<path d="M95.1002 184.72C95.1002 184.72 84.8002 183.82 78.5002 185.52C72.1002 187.32 66.6002 191.32 66.6002 191.32L59.2002 160.82L72.9001 143.92L82.4001 154.92C82.4001 154.92 84.0002 156.62 83.8002 157.62C83.6002 158.62 82.4001 160.72 82.4001 160.72C82.4001 160.72 82.3001 165.82 82.4001 167.92C82.6001 170.02 95.1002 184.72 95.1002 184.72Z" fill="url(#paint7_linear_9_5169)"/>
<path d="M58.3 157.62C58.3 157.62 59.5 155.62 61.8 163.32C64.1 171.02 67.4 193.52 67.4 193.52C55.9 194.62 37.2001 199.72 37.2001 199.72C33.8001 185.22 32.3 167.82 32.3 167.82C37.5 166.92 58.3 157.62 58.3 157.62Z" fill="url(#paint8_linear_9_5169)"/>
<g style="mix-blend-mode:multiply">
<path d="M72.4001 145.02C72.4001 145.02 76.6001 153.12 79.1001 161.52C79.1001 161.52 73.8001 150.32 72.4001 149.92C71.0001 149.52 82.7001 168.72 82.7001 168.72C82.7001 168.72 74.3001 158.22 72.6001 158.72C70.9001 159.22 62.8001 167.02 62.8001 167.02L62.4001 165.52L60.6001 159.82C62.4001 156.82 68.3001 152.22 68.3001 152.22L72.4001 145.02Z" fill="#EA8BC2"/>
</g>
<g style="mix-blend-mode:multiply">
<path d="M61.8 163.32C61.8 163.32 49.4 165.02 44.9 167.62C40.3 170.12 32.9 172.92 32.9 172.92L32.3 167.82C32.3 167.82 54.1 165.92 60.6 159.82L61.8 163.32Z" fill="#EA8BC2"/>
</g>
<path d="M54.7001 53.8199C54.7001 53.8199 54.6001 56.4199 54.7001 57.3199C54.8001 58.1199 58.1001 61.8199 58.1001 61.8199C58.1001 61.8199 58.2001 70.5199 51.0001 69.4199C43.8001 68.3199 40.1001 58.7199 40.1001 58.7199C40.1001 58.7199 43.7001 56.7199 44.0001 54.4199C44.3001 52.1199 45.6001 41.6199 45.6001 41.6199C48.9001 48.2199 54.7001 53.8199 54.7001 53.8199Z" fill="url(#paint9_linear_9_5169)"/>
<path d="M74.1002 140.22C70.1002 154.22 60.3002 162.32 48.2002 165.72C36.0002 169.02 29.6002 167.82 29.6002 167.12C29.6002 166.42 31.3002 165.52 31.3002 165.52C31.3002 165.52 30.4002 155.32 31.3002 148.52C32.2002 141.72 36.4002 127.62 35.2002 119.12C34.0002 110.62 17.6002 73.0199 20.7002 69.5199C23.8002 66.1199 38.0002 59.2199 38.0002 59.2199C38.0002 59.2199 38.3002 57.2199 38.9002 57.1199C39.5002 57.1199 40.9002 58.2199 40.9002 58.2199C40.9002 58.2199 47.7002 70.0199 53.4002 68.4199C59.1002 66.8199 56.7002 60.1199 56.7002 60.1199C57.0002 59.2199 57.3002 58.8199 57.5002 58.8199C57.5669 58.8199 57.6336 58.8199 57.7002 58.8199C58.2002 59.1199 58.4002 61.2199 58.4002 61.2199C58.6669 61.4865 58.9336 61.7199 59.2002 61.9199C63.2002 65.2199 69.0002 70.6199 69.0002 70.6199C68.7002 74.0199 67.5002 103.62 68.3002 111.82C69.1002 120.02 70.4002 136.02 70.4002 136.02C70.4002 136.02 71.7002 135.12 72.3002 135.52C72.8002 135.92 72.6002 139.22 72.6002 139.22C72.6002 139.22 73.4002 137.52 74.1002 137.52C74.9002 137.52 74.1002 140.22 74.1002 140.22Z" fill="url(#paint10_linear_9_5169)"/>
<g style="mix-blend-mode:multiply">
<path d="M68.9 104.72H63.6L62.3 84.5199L69.1 82.1199L68.9 104.72Z" fill="#E89FC0"/>
</g>
<path style="mix-blend-mode:multiply" opacity="0.5" d="M39.2002 64.7198C39.2002 64.7198 46.0002 72.6198 50.1002 74.6198C54.1002 76.5198 65.5002 78.1198 65.5002 78.1198C65.5002 78.1198 55.9002 78.0198 50.1002 76.5198C44.3002 75.0198 39.7002 69.9198 39.7002 69.9198L39.2002 64.7198Z" fill="url(#paint11_linear_9_5169)"/>
<path style="mix-blend-mode:multiply" opacity="0.5" d="M35.2002 110.42C35.2002 110.42 37.4002 99.5199 39.1002 97.8199C40.8002 96.0199 51.3002 91.4199 51.3002 91.4199C51.3002 91.4199 41.8002 98.4199 40.6002 100.02C39.4002 101.72 36.1002 110.52 36.1002 110.52L35.2002 110.42Z" fill="url(#paint12_linear_9_5169)"/>
<g style="mix-blend-mode:multiply">
<path d="M34.1002 131.92C35.3002 126.82 35.2002 122.52 35.2002 122.52L63.1002 110.32L68.9001 111.82L69.4001 123.72C69.4001 123.72 63.9002 120.32 60.1002 121.32C56.4002 122.22 42.2002 132.32 40.5002 133.12C38.7002 133.92 38.8002 132.62 38.1002 133.52C37.4002 134.42 39.0001 137.32 38.4001 137.42C37.7001 137.62 31.7002 146.32 31.7002 146.32C31.7002 146.32 33.0002 137.02 34.1002 131.92Z" fill="#E89FC0"/>
</g>
<path d="M60.1001 62.6198L60.8001 61.7198C60.8001 61.7198 65.2001 65.5198 68.2001 65.9198C68.2001 65.9198 75.8001 80.3198 68.2001 93.7198C68.2001 93.7198 70.7001 75.4198 61.2001 64.2198L60.1001 62.6198Z" fill="url(#paint13_linear_9_5169)"/>
<g style="mix-blend-mode:multiply">
<path d="M29.5001 123.52L34.8001 119.22C34.8001 119.22 35.6001 122.42 35.2001 127.02C34.8001 131.72 32.4001 142.42 32.4001 142.42L18.6001 142.72C18.9001 135.82 19.2001 127.52 19.2001 127.52C23.3001 124.72 29.5001 123.52 29.5001 123.52Z" fill="#D98BA1"/>
</g>
<g style="mix-blend-mode:multiply">
<path d="M0.600098 123.92H12.9001L15.0001 113.42H17.8001L17.4001 142.72L14.9001 142.62L14.8001 120.12L14.2001 124.62L1.40009 124.42L0.600098 123.92Z" fill="#D98BA1"/>
</g>
<g style="mix-blend-mode:multiply">
<path d="M60.8001 61.7198C60.8001 61.7198 65.0001 66.4198 67.6001 70.6198C70.2001 74.9198 69.1001 86.5198 69.1001 86.5198L68.3001 87.5198C68.3001 87.5198 67.3001 78.2198 65.5001 72.5198C63.7001 66.9198 60.1001 62.6198 60.1001 62.6198L60.8001 61.7198Z" fill="#EA8BC2"/>
</g>
<path d="M70.4001 77.0199C70.4001 77.0199 74.2002 75.7199 76.8002 77.3199C76.8002 77.3199 73.7001 78.0199 70.4001 77.0199Z" fill="#A21642"/>
<path d="M71.0002 78.6198V77.1198C71.0002 77.1198 74.5002 76.4198 76.3002 77.1198V78.6198C76.3002 78.6198 73.4002 78.1198 71.0002 78.6198Z" fill="url(#paint14_linear_9_5169)"/>
<path d="M70.4001 77.0199L70.1001 74.6199C70.1001 74.6199 73.6001 73.4199 77.3001 74.7199L76.8001 77.3199C76.8001 77.3199 75.1001 76.0199 70.4001 77.0199Z" fill="url(#paint15_linear_9_5169)"/>
<path d="M67.1002 97.3199L66.7002 80.4199C66.7002 80.4199 73.8002 75.3199 79.8002 80.4199L78.1002 118.42C78.1002 118.42 71.6002 119.22 67.2002 118.22L67.1002 97.3199Z" fill="url(#paint16_linear_9_5169)"/>
<path style="mix-blend-mode:multiply" opacity="0.3" d="M67.6001 83.1199L78.8001 83.4199L77.3001 116.52C74.9001 117.42 68.1001 116.82 68.1001 116.82L67.6001 83.1199Z" fill="url(#paint17_linear_9_5169)"/>
<path d="M29.1001 124.32C25.1001 130.52 18.6001 134.02 18.6001 134.02V127.52C18.6001 127.52 27.2001 121.12 32.8001 110.12C34.6001 106.52 36.1001 102.42 36.9001 97.9199C39.9001 79.7199 30.4001 63.5199 30.4001 63.5199L29.1001 63.9199L29.6001 61.0199C29.6001 61.0199 34.1001 60.8199 36.1001 59.4199C36.1001 59.4199 42.0001 66.6199 43.0001 78.7199C44.1001 90.8199 33.1001 118.02 29.1001 124.32Z" fill="url(#paint18_linear_9_5169)"/>
<g style="mix-blend-mode:multiply">
<path d="M29.1 124.32C25.7 130.22 18.9 133.72 18.9 133.72L18.6 142.72L14.9 133.52L8.00006 124.52L5.30005 123.92L6.50006 111.72L9.20007 110.52L16.7001 90.2198L29.1 124.32Z" fill="#D98BA1"/>
</g>
<path d="M14.2002 113.42C14.2002 113.42 27.3002 116.22 36.0002 104.82C36.0002 104.82 27.9002 102.92 14.2002 113.42Z" fill="#006874"/>
<path d="M80.7001 100.22L79.6001 100.42C79.6001 100.42 80.8001 102.82 80.7001 103.72C80.6001 104.62 80.1001 105.12 80.1001 105.32C80.1001 105.52 80.5001 107.02 80.4001 108.02C80.3001 108.92 79.7001 110.12 79.9001 110.72C80.0001 111.32 79.1001 113.32 78.9001 113.62C78.6001 114.02 70.8001 114.02 68.3001 114.02C67.9001 114.02 67.5001 113.987 67.1001 113.92C64.7001 113.72 61.8001 112.92 60.6001 112.72C59.1001 112.62 45.6001 120.32 34.0001 123.22C22.4001 126.02 20.0001 125.42 19.3001 125.02C18.6001 124.52 17.7001 120.72 16.8001 117.72C15.9001 114.32 16.0001 111.12 16.0001 111.12C16.0001 111.12 24.2001 106.82 29.5001 106.22V110.12C29.5001 110.12 32.0001 110.02 37.7001 110.62C43.3001 111.22 55.9001 108.52 57.1001 106.92C58.4001 105.42 61.9001 98.0199 63.1001 97.5199C64.4001 97.0199 67.1001 94.9199 67.1001 94.9199V97.3199C67.1001 97.3199 79.5001 96.5199 80.0001 96.4199C80.6001 96.4199 83.9001 97.5199 84.1001 98.0199C84.4001 98.5199 84.0001 99.1199 83.7001 99.5199C83.4001 99.9199 80.7001 100.22 80.7001 100.22Z" fill="url(#paint19_linear_9_5169)"/>
<path d="M67.1002 193.52C67.1002 193.52 57.8002 197.42 52.2002 198.82C46.5002 200.32 37.2002 199.72 37.2002 199.72C37.2002 199.72 59.5002 191.02 67.1002 193.52Z" fill="url(#paint20_linear_9_5169)"/>
<path d="M36.0002 89.6199C34.9002 100.22 36.0002 104.82 36.0002 104.82C24.7002 105.62 14.2002 113.42 14.2002 113.42C14.2002 113.42 16.1001 91.8199 17.9001 81.5199C19.8001 71.2199 20.7002 69.5199 20.7002 69.5199C25.8002 68.4199 37.1002 79.0199 36.0002 89.6199Z" fill="url(#paint21_linear_9_5169)"/>
<path d="M59.5001 193.42C59.5001 193.42 59.5001 206.42 59.0001 208.72C58.5001 211.02 55.9 216.12 55.9 216.12C55.2 229.52 63.5001 265.32 63.5001 265.32C61.1001 268.02 52.6 268.72 52.6 268.72C52.6 268.72 47.5 256.02 43.4 240.12C39.4 224.22 41.1 217.22 41.8 211.42C42.5 205.52 40.8 198.42 40.8 198.42C49.4 195.22 59.5001 193.42 59.5001 193.42Z" fill="url(#paint22_linear_9_5169)"/>
<path d="M52.6002 268.52C61.3002 268.12 63.5002 265.32 63.5002 265.32L63.2002 264.02L64.5002 264.42C64.5002 264.42 63.9001 266.52 63.9001 268.12C63.9001 269.72 66.7002 279.62 66.7002 279.62C66.7002 279.62 64.0002 285.42 62.7002 285.52C61.5002 285.72 55.2002 283.62 55.2002 283.62L55.6002 281.52C55.6002 281.52 53.2002 271.12 52.5002 270.52C51.7002 270.02 50.9001 269.52 50.9001 269.52L52.4001 267.92L52.6002 268.52Z" fill="url(#paint23_linear_9_5169)"/>
<path d="M28.9001 303.22C28.9001 303.22 33.9002 289.52 34.1002 288.42C34.4002 287.32 33.7002 284.92 33.7002 284.92C33.7002 284.92 35.1002 286.22 36.0002 287.82C36.9002 289.42 40.3002 286.02 43.2002 284.92C46.1002 283.72 47.7002 283.62 48.1002 284.52C48.4002 285.52 48.3002 288.22 50.2002 290.82C52.2002 293.42 69.5002 303.22 69.5002 303.22C69.5002 303.22 59.1002 306.92 51.6002 307.62C44.1002 308.32 28.9001 303.22 28.9001 303.22Z" fill="url(#paint24_linear_9_5169)"/>
<path d="M47.5001 305.62C56.0001 306.22 69.3001 306.02 70.2001 306.72C71.2001 307.42 72.5001 311.12 72.5001 311.12C72.5001 311.12 54.6001 311.42 47.4001 311.12C40.2001 310.92 25.1001 309.42 25.1001 309.42C26.2001 305.32 30.0001 300.02 30.0001 300.02C30.0001 300.02 38.9001 305.12 47.5001 305.62Z" fill="url(#paint25_linear_9_5169)"/>
<path d="M47.8 267.72L48.8 268.72C48.8 268.72 47.8 269.42 47.4 270.22C47 271.12 45.8 282.82 45.8 282.82C45.8 282.82 46.8 283.12 47 283.52C47.2 283.82 46.8 284.92 46.8 284.92C46.8 284.92 44.1 284.32 42.3 285.52C40.5 286.82 39.5 288.12 39.5 288.12C39.5 288.12 37 288.92 36 287.82C35 286.62 34.5 285.92 34.5 285.92L35.6 285.52C35.6 285.52 36.8 271.32 36.8 269.72C36.9 268.22 35.8 266.02 35.8 266.02L37.3 265.32L37.2 267.22C37.2 267.22 44.2 269.12 47.5 268.52L47.8 267.72Z" fill="url(#paint26_linear_9_5169)"/>
<g style="mix-blend-mode:multiply">
<path d="M39.2001 88.6199C39.3001 99.7199 34.2001 110.32 34.2001 110.32L32.8001 110.12C34.6001 106.52 36.1001 102.42 36.9001 97.9199C39.9001 79.7199 29.4001 63.8199 29.4001 63.8199L29.1001 63.9199L29.6001 61.0199C29.6001 61.0199 39.2001 77.5199 39.2001 88.6199Z" fill="#EA8BC2"/>
</g>
<g style="mix-blend-mode:multiply">
<path d="M57.1002 295.82L54.1002 311.32L34.9001 310.32L54.4001 293.92L57.1002 295.82Z" fill="#BF8BC2"/>
</g>
<path d="M61.1001 284.72C62.6001 284.12 63.1001 278.02 65.5001 276.92C67.8001 275.72 66.0001 281.52 68.6001 285.52C74.3001 294.92 95.6001 305.32 95.6001 305.32C95.6001 305.32 92.5001 304.82 87.9001 307.12C83.4001 309.32 75.6001 311.72 69.5001 310.42C63.3001 309.12 55.2001 303.32 55.2001 303.32L56.9001 290.42C56.9001 290.42 54.7001 285.22 54.9001 284.82C55.1001 284.42 57.5001 284.42 57.5001 284.42C57.5001 284.42 59.7001 285.22 61.1001 284.72Z" fill="url(#paint27_linear_9_5169)"/>
<path d="M86.4001 306.22C92.9001 305.32 92.9002 303.22 95.6002 305.32C98.3002 307.52 99.4001 311.82 99.4001 311.82H52.2002C52.2002 305.32 55.2002 303.32 55.2002 303.32C55.2002 303.32 69.5001 308.72 86.4001 306.22Z" fill="url(#paint28_linear_9_5169)"/>
<path d="M52.4001 309.32C52.4001 309.32 56.2002 307.72 59.3002 309.62C62.5002 311.62 62.2001 310.62 65.4001 309.82C68.7001 309.02 70.6002 311.12 74.2002 311.52C77.7002 311.82 87.3002 310.82 92.7002 309.52C98.0002 308.32 99.4001 311.82 99.4001 311.82H52.2002C52.2002 311.82 52.3001 309.92 52.4001 309.32Z" fill="#FF3748"/>
<path d="M26.2001 306.52C26.2001 306.52 29.4001 305.72 31.4001 307.62C33.5001 309.62 37.6001 309.42 40.1001 308.72C42.7001 308.02 46.3001 309.62 48.2001 310.52C50.0001 311.52 52.3001 310.32 52.3001 310.32V311.22C52.3001 311.22 37.1001 311.02 25.1001 309.42C25.1001 309.42 25.8001 307.32 26.2001 306.52Z" fill="#AB1C48"/>
<path d="M20.7001 69.5199C20.7001 69.5199 19.6 68.3199 18.6 68.3199C17.6 68.3199 18.0001 65.5199 17.7001 64.5199C17.4001 63.4199 12.3 67.1199 12.3 67.1199C7.60005 75.4199 5.30005 90.2199 5.30005 90.2199C5.40005 69.4199 12.9 60.6199 12.9 60.6199C22.2 61.3199 25.6 65.9199 25.6 65.9199L20.7001 69.5199Z" fill="#CC4236"/>
<path d="M53 72.2199C45.8 72.2199 38 59.2199 38 59.2199C38 59.2199 38.3 57.2199 38.9 57.1199C39.5 57.1199 40.9 58.2199 40.9 58.2199C40.9 58.2199 47.7 70.0199 53.4 68.4199C59.1 66.8199 56.7 60.1199 56.7 60.1199C57 59.2199 57.3 58.8199 57.5 58.8199C57.5667 58.8199 57.6333 58.8199 57.7 58.8199C58 58.8199 58.8 60.6199 58.8 60.6199C58.8 60.6199 59 61.1199 59.2 61.9199C60 64.9199 58.6 72.2199 53 72.2199Z" fill="url(#paint29_linear_9_5169)"/>
<path d="M14.2002 113.42V110.12C14.2002 110.12 25.8002 101.32 35.6002 101.82L36.0002 104.82C36.0002 104.82 23.7002 106.72 14.2002 113.42Z" fill="url(#paint30_linear_9_5169)"/>
<g style="mix-blend-mode:multiply">
<path d="M45.6 41.6199C48.9 51.3199 54.7 53.8199 54.7 53.8199V57.3199C45.7 65.2199 45 45.6199 45 45.6199L45.6 41.6199Z" fill="#E89FC0"/>
</g>
<g style="mix-blend-mode:multiply">
<path d="M56.7002 60.1199C56.7002 60.1199 56.9002 65.7199 54.2002 68.1199C54.2002 68.1199 59.4002 66.2199 56.7002 60.1199Z" fill="#EA8BC2"/>
</g>
<path style="mix-blend-mode:multiply" opacity="0.5" d="M35.6 101.82C35.6 101.82 36.1 93.3198 36.1 88.0198C36 82.8198 31.5 73.2198 31.5 73.2198C31.5 73.2198 37.6 78.9198 38 85.4198C38.5 92.0198 35.6 101.82 35.6 101.82Z" fill="url(#paint31_linear_9_5169)"/>
<path style="mix-blend-mode:multiply" opacity="0.5" d="M70.4 136.02C68.4 140.12 60.6 144.82 54.6 145.02C48.5 145.22 44.3 142.72 44.3 142.72C46.8 143.92 54.0001 145.42 59.7001 143.12C65.3001 140.72 70.1 132.32 70.1 132.32L70.4 136.02Z" fill="url(#paint32_linear_9_5169)"/>
<path style="mix-blend-mode:multiply" opacity="0.5" d="M72.6002 139.22C72.6002 139.22 71.4002 140.82 69.8002 143.22C68.2002 145.62 66.6002 151.92 60.1002 155.52C53.6002 159.12 43.2002 159.62 43.2002 159.62C43.2002 159.62 56.9002 156.62 63.6002 149.92C70.3002 143.32 72.6002 137.42 72.6002 137.42V139.22Z" fill="url(#paint33_linear_9_5169)"/>
<path style="mix-blend-mode:multiply" opacity="0.5" d="M31.3 164.72C42.7 166.82 55.4 161.52 55.4 161.52C55.4 161.52 51.2001 164.72 43.5001 166.12C35.7001 167.62 31.3 165.52 31.3 165.52V164.72Z" fill="url(#paint34_linear_9_5169)"/>
<g style="mix-blend-mode:multiply">
<path d="M69.5002 125.32L68.9001 118.52L75.8002 118.72C75.8002 118.72 76.6002 121.22 77.0002 123.82C77.3002 126.42 79.1002 132.32 79.1002 132.32L71.8002 130.42L69.5002 125.32Z" fill="#EA8BC2"/>
</g>
<g style="mix-blend-mode:multiply">
<path d="M16 112.32C21.7 108.72 29.5 106.22 29.5 106.22V110.12C21.2 107.22 16.5 116.12 16.5 116.12L16 112.32Z" fill="#EA8BC2"/>
</g>
<path style="mix-blend-mode:multiply" opacity="0.3" d="M28.3 106.62L22.5 108.82L22 70.6199L28.3 106.62Z" fill="url(#paint35_linear_9_5169)"/>
<path style="mix-blend-mode:multiply" opacity="0.5" d="M37.2002 133.52C37.2002 133.52 43.1001 139.22 49.9001 140.82C56.7001 142.42 60.1002 140.82 60.1002 140.82C60.1002 140.82 56.4001 143.12 49.9001 141.82C43.4001 140.52 37.2002 133.52 37.2002 133.52Z" fill="url(#paint36_linear_9_5169)"/>
<path style="mix-blend-mode:multiply" opacity="0.5" d="M80.7 100.22L79.6 100.42C79.6 100.42 80.8 102.82 80.7 103.72C80.6 104.62 80.1 105.12 80.1 105.32C80.1 105.52 80.5 107.02 80.4 108.02C80.3 108.92 79.7 110.12 79.9 110.72C80 111.32 79.1 113.32 78.9 113.62C78.6 114.02 70.8 114.02 68.3 114.02C67.9 114.02 67.5 113.987 67.1 113.92L66.5 113.72C66.5 113.72 76.3 113.22 76.8 112.92C77.3 112.72 77.3 109.62 77.3 109.62C77.8 108.82 77.3 105.72 77.3 105.72C77.7 104.42 77.3 100.42 77.3 100.42L79.8 100.12C79.8 100.12 80.6 99.1199 80.7 98.5199C80.9 97.8199 80 96.4199 80 96.4199C80.6 96.4199 83.9 97.5199 84.1 98.0199C84.4 98.5199 84 99.1199 83.7 99.5199C83.4 99.9199 80.7 100.22 80.7 100.22Z" fill="url(#paint37_linear_9_5169)"/>
<path style="mix-blend-mode:multiply" opacity="0.5" d="M67.1001 97.3199L63.1001 97.5199L67.1001 94.9199V97.3199Z" fill="url(#paint38_linear_9_5169)"/>
<path style="mix-blend-mode:multiply" opacity="0.5" d="M63.1001 97.5199C63.1001 97.5199 61.1001 104.12 60.9001 105.22C60.6001 106.32 57.1001 106.92 57.1001 106.92C57.1001 106.92 58.8001 104.52 59.9001 102.22C61.1001 99.9199 62.6001 97.8199 63.1001 97.5199Z" fill="url(#paint39_linear_9_5169)"/>
<path style="mix-blend-mode:multiply" opacity="0.5" d="M87.0001 184.52L81.3 169.52L92.8 184.62L87.0001 184.52Z" fill="url(#paint40_linear_9_5169)"/>
<path style="mix-blend-mode:multiply" opacity="0.5" d="M67.1002 191.02C66.1002 182.32 62.4001 165.52 62.4001 165.52C65.3001 159.82 64.5002 156.62 64.5002 156.62L67.4001 153.32C66.0001 160.32 62.8002 167.02 62.8002 167.02L70.4001 188.92L67.1002 191.02Z" fill="url(#paint41_linear_9_5169)"/>
<path style="mix-blend-mode:multiply" opacity="0.5" d="M35.7002 192.52L37.2002 174.72V199.72L35.7002 192.52Z" fill="url(#paint42_linear_9_5169)"/>
<path d="M35.7002 175.92C35.7002 175.92 48.6002 171.62 49.2002 171.52C49.8002 171.42 43.8002 178.12 40.8002 179.82C37.9002 181.52 35.7002 175.92 35.7002 175.92Z" fill="#DB5437"/>
<g style="mix-blend-mode:multiply">
<path d="M39.6002 194.62H37.2002L47.4001 191.32L47.1002 174.22L49.2002 171.52C50.6002 180.02 50.9001 191.32 50.9001 191.32C44.9001 192.12 39.6002 194.62 39.6002 194.62Z" fill="#EA8BC2"/>
</g>
<path style="mix-blend-mode:multiply" opacity="0.5" d="M35.7002 175.92C35.7002 175.92 36.9002 180.52 40.5002 179.62C44.2002 178.82 48.3002 171.82 48.3002 171.82L49.2002 171.52C49.2002 171.52 44.4002 178.92 40.6002 180.32C36.8002 181.82 35.7002 175.92 35.7002 175.92Z" fill="url(#paint43_linear_9_5169)"/>
<g style="mix-blend-mode:multiply">
<path d="M59.4 198.82C59.4 198.82 54.3 193.62 41.6 202.62L40.8 198.42C40.8 198.42 51.0001 194.72 59.5001 193.42L59.4 198.82Z" fill="#EA8BC2"/>
</g>
<g style="mix-blend-mode:multiply">
<path d="M41.1001 227.82C43.3001 242.52 49.2002 260.22 49.2002 260.22L48.5001 264.02C41.5001 259.82 37.2002 250.12 37.2002 250.12C36.9002 233.72 41.1001 227.82 41.1001 227.82Z" fill="#EA8BC2"/>
</g>
<path style="mix-blend-mode:multiply" opacity="0.5" d="M50.9001 269.52C50.9001 269.52 58.8002 271.32 61.6002 270.92C61.6002 270.92 57.3002 272.42 52.5002 270.52L50.9001 269.52Z" fill="url(#paint44_linear_9_5169)"/>
<path style="mix-blend-mode:multiply" opacity="0.5" d="M63.9 267.92C63.9 268.52 60.3 269.92 60.3 269.92C60.3 269.92 62.1001 268.12 63.0001 267.02C63.9001 266.02 64.5001 264.42 64.5001 264.42C64.1001 265.52 63.9 267.92 63.9 267.92Z" fill="url(#paint45_linear_9_5169)"/>
<path style="mix-blend-mode:multiply" opacity="0.5" d="M49.9001 209.02C49.9001 209.02 54.4001 211.42 56.4001 211.02C58.4001 210.72 59.0002 208.72 59.0002 208.72C59.0002 208.72 58.2001 213.42 55.9001 216.12C55.9001 216.12 52.5001 214.42 49.9001 209.02Z" fill="url(#paint46_linear_9_5169)"/>
<path style="mix-blend-mode:multiply" opacity="0.5" d="M47.3 270.82L40.8 272.52C41.6 271.52 48.8 268.72 48.8 268.72C47.4 269.92 47.3 270.82 47.3 270.82Z" fill="url(#paint47_linear_9_5169)"/>
<g style="mix-blend-mode:multiply">
<path d="M55.2002 283.62C55.2002 283.62 58.8002 283.52 60.3002 282.92C61.7002 282.22 63.0002 280.92 63.0002 280.92C63.0002 280.92 62.2002 284.12 60.8002 284.82C59.5002 285.42 55.2002 283.62 55.2002 283.62Z" fill="#EA8BC2"/>
</g>
<path style="mix-blend-mode:multiply" opacity="0.5" d="M18.1 69.4199C18.2 71.3199 11.8 88.6199 11 87.5199C10.1 86.4199 12.2001 75.0199 13.2001 71.4199C14.2001 67.8199 17.7001 64.5199 17.7001 64.5199C17.7001 64.5199 18 67.6199 18.1 69.4199Z" fill="url(#paint48_linear_9_5169)"/>
<g style="mix-blend-mode:multiply">
<path d="M67.1001 113.92L78.3001 113.82L78.2001 115.62L67.2001 116.12L67.1001 113.92Z" fill="#E89FC0"/>
</g>
<path style="mix-blend-mode:multiply" opacity="0.5" d="M19.3 125.02C19.3 125.02 22.8 123.22 25.1 122.72C27.4 122.12 34.0001 123.22 34.0001 123.22C34.0001 123.22 22.1 126.62 19.3 125.02Z" fill="url(#paint49_linear_9_5169)"/>
<path style="mix-blend-mode:multiply" opacity="0.5" d="M55.6001 233.32C54.5001 225.42 55.9001 216.12 55.9001 216.12C55.6001 232.52 63.5001 265.32 63.5001 265.32C63.5001 265.32 56.8001 241.12 55.6001 233.32Z" fill="url(#paint50_linear_9_5169)"/>
<g style="mix-blend-mode:multiply">
<path d="M52.4001 267.92C52.4001 267.92 59.3002 267.92 63.5002 265.32C63.5002 265.32 58.9002 269.32 52.6002 268.72L52.4001 267.92Z" fill="#E89FC0"/>
</g>
<path style="mix-blend-mode:multiply" opacity="0.5" d="M36 266.52L38.5 270.92L42 276.72L38.2 272.82L36.8 268.72L36 266.52Z" fill="url(#paint51_linear_9_5169)"/>
<g style="mix-blend-mode:soft-light">
<path d="M79.2002 80.5199L78.8002 95.6199H74.8002L74.4001 80.0199C76.7001 79.5199 79.2002 80.5199 79.2002 80.5199Z" fill="white"/>
</g>
<path d="M71.0002 19.1198C70.8002 20.2198 68.5002 28.2198 68.9002 31.6198L69.0002 31.7198C69.4002 35.1198 69.8002 37.6198 69.8002 40.5198C69.9002 41.6198 69.2002 43.7198 68.2002 46.0198C66.5002 50.0198 63.6002 54.7198 61.2002 55.1198C61.0002 55.1865 60.7669 55.2198 60.5002 55.2198C56.5002 55.3198 48.3002 51.1199 44.4002 44.7198C43.9335 43.9198 43.5002 43.0865 43.1002 42.2198C40.3002 35.8198 40.3002 28.5198 39.1002 23.5198C37.6002 17.9198 42.6002 7.71984 50.2002 5.01984C57.8002 2.31984 64.6002 4.01984 64.6002 4.01984C64.6002 4.01984 68.9002 14.9198 70.7002 17.1198C70.7002 17.1198 71.3002 17.9198 71.0002 19.1198Z" fill="url(#paint52_linear_9_5169)"/>
<path d="M61.8001 19.1199C61.8001 19.1199 61.2001 21.2199 60.3001 22.1199C60.3001 22.1199 57.4001 22.1199 54.1001 22.9199C50.8001 23.6199 49.6001 24.5199 49.6001 24.5199C49.6001 24.5199 51.0001 22.1199 53.3001 20.9199C55.6001 19.8199 61.8001 19.1199 61.8001 19.1199Z" fill="url(#paint53_linear_9_5169)"/>
<path d="M43.1 38.8198C43.1 38.8198 41.8001 41.6198 41.2001 41.9198C40.5001 42.3198 35.9 41.1198 33.5 37.4198C31.1 33.8198 32 27.2198 35.1 26.9198C38.3 26.7198 41.5 30.4198 41.5 30.4198L43.1 38.8198Z" fill="url(#paint54_linear_9_5169)"/>
<path d="M52.9001 16.1199C52.9001 16.1199 47.0002 26.0199 43.2002 29.1199L42.9001 32.6199C42.9001 32.6199 40.6001 29.2199 38.4001 27.8199L38.6002 23.7199C38.6002 23.7199 47.0001 17.9199 52.9001 16.1199Z" fill="url(#paint55_linear_9_5169)"/>
<path d="M41.1001 30.2199L43.2001 29.1199C43.2001 29.1199 43.3001 32.8199 44.1001 34.5199L43.0001 36.3199C43.0001 36.3199 42.2001 32.0199 41.1001 30.2199Z" fill="url(#paint56_linear_9_5169)"/>
<path d="M38.5 25.7198C38.5 25.7198 34.8 15.4198 35 12.1198C35.1 8.81982 45.8 1.31982 45.8 1.31982C45.8 1.31982 59.6 0.119818 63 1.71982C66.5 3.41982 70.4 14.5198 70.4 14.5198C70.4 14.5198 57.6 14.4198 50.5 17.3198C43.4 20.3198 38.5 25.7198 38.5 25.7198Z" fill="url(#paint57_linear_9_5169)"/>
<path d="M37.2 21.6199C33.1 20.1199 27.7 21.3199 27.7 21.3199C25.6 20.7199 26.7 18.3199 26.7 18.3199C31.3 16.8199 36.2 18.5199 36.2 18.5199L37.2 21.6199Z" fill="#A21642"/>
<path d="M44.0002 2.61986C44.0002 2.61986 43.5001 0.619864 43.6001 0.419864C43.8001 0.219864 45.0002 -0.0801371 45.7002 0.0198629C46.4002 0.119863 47.0002 1.11986 47.0002 1.11986L45.8001 1.31986L44.0002 2.61986Z" fill="#A21642"/>
<path d="M62.9 1.3198C65.5 2.3198 69.4 11.4198 69.4 11.4198C57 12.2198 46.8 18.9198 46.8 18.9198C46.8 18.9198 42.1 9.91981 42 7.91981C42 5.91981 45.8 1.3198 45.8 1.3198C50.8 0.319804 60.2 0.419804 62.9 1.3198Z" fill="url(#paint58_linear_9_5169)"/>
<path d="M49.8 9.31988C49.8 9.31988 59 3.71989 65.6 5.21989L67.9 9.11988C67.9 9.11988 60.7 9.11988 51.4 13.1199L49.8 9.31988Z" fill="#FF3748"/>
<path style="mix-blend-mode:multiply" opacity="0.5" d="M38.7002 34.4199C37.9002 35.3199 39.9002 38.9199 39.2002 39.3199C38.5002 39.7199 36.6002 38.8199 36.2002 36.6199C35.9002 34.4199 36.0002 31.9199 36.0002 31.9199C33.6002 32.0199 32.7002 33.1199 32.7002 33.1199C32.7002 33.1199 33.9002 30.9199 36.7002 31.2199C39.6002 31.5199 41.7002 35.6199 41.7002 35.6199C41.7002 35.6199 39.4002 33.4199 38.7002 34.4199Z" fill="url(#paint59_linear_9_5169)"/>
<path style="mix-blend-mode:multiply" opacity="0.5" d="M57.5 29.6199C57.5 29.6199 58.1 33.6199 55.2 33.5199C52.2 33.3199 51 30.3199 51 30.3199L57.5 29.6199Z" fill="url(#paint60_linear_9_5169)"/>
<path style="mix-blend-mode:multiply" opacity="0.5" d="M68.9 30.7199C68.9 30.7199 69.2 33.5199 67.8 33.5199C66.4 33.5199 65.3 30.6199 65.3 30.6199L68.9 30.7199Z" fill="url(#paint61_linear_9_5169)"/>
<path style="mix-blend-mode:multiply" opacity="0.5" d="M41.3 35.2199C41.3 35.2199 39.5 33.7199 38.7 34.4199C37.8 35.1199 39.7999 38.8199 38.8999 39.1199C38.0999 39.5199 36.0999 37.8199 36.0999 35.1199C35.9999 32.4199 37.7 31.5199 37.7 31.5199C39.8 32.3199 41.3 35.2199 41.3 35.2199Z" fill="url(#paint62_linear_9_5169)"/>
<path d="M71.2001 16.8198C71.7001 18.3198 70.7001 20.5198 70.7001 20.5198C66.5001 21.3198 65.8 23.2198 65.8 23.2198C67.7 17.9198 71.2001 16.8198 71.2001 16.8198Z" fill="url(#paint63_linear_9_5169)"/>
<path style="mix-blend-mode:multiply" opacity="0.5" d="M50.7002 29.7199C50.7002 29.7199 51.9002 25.5199 56.7002 23.5199L57.3002 24.8199L50.7002 29.7199Z" fill="url(#paint64_linear_9_5169)"/>
<g style="mix-blend-mode:multiply">
<path d="M70.3 22.4199C70.3 22.4199 66.3 23.0199 59.5 23.7199C52.7 24.4199 46 19.7199 46 19.7199C46 19.7199 52.4 15.6199 57.3 14.0199C62.1 12.4199 68.4 13.9199 68.4 13.9199L70.7 17.1199C70.7 17.1199 72.2 16.0199 70.3 22.4199Z" fill="#C98BC2"/>
</g>
<path style="mix-blend-mode:multiply" opacity="0.5" d="M65.2001 30.2199C65.2001 30.2199 65.0001 25.6199 69.4001 23.1199L69.2001 24.9199L65.2001 30.2199Z" fill="url(#paint65_linear_9_5169)"/>
<path d="M69.2002 24.9198C69.4002 28.1198 68.8002 31.8198 67.7002 32.2198C66.6002 32.6198 65.0002 30.9198 65.2002 29.9198C66.0002 24.8198 69.2002 24.9198 69.2002 24.9198Z" fill="url(#paint66_linear_9_5169)"/>
<path d="M57.4001 31.0198C56.4001 32.8198 52.5002 34.3198 50.7002 29.7198C50.7002 29.7198 52.6002 25.5198 57.3002 24.8198C57.3002 24.8198 59.0001 27.7198 57.4001 31.0198Z" fill="url(#paint67_linear_9_5169)"/>
<path d="M67.5002 30.5198C67.5002 30.5198 66.5002 27.1198 69.2002 24.8198C69.2002 24.8198 70.0002 28.9198 69.2002 30.1198C68.4002 31.3198 67.5002 30.5198 67.5002 30.5198Z" fill="#AD7A90"/>
<g style="mix-blend-mode:multiply">
<path d="M68.2003 30.8198C68.2003 30.8198 67.3002 27.6198 69.4002 25.7198C69.4002 25.7198 69.8003 28.2198 69.5003 29.4198C69.2003 30.5198 68.5003 30.8198 68.2003 30.8198Z" fill="#AB8BC2"/>
</g>
<path d="M65.4001 29.1199C65.4001 29.1199 66.2002 25.8199 69.2002 25.2199L70.3002 24.3199C70.3002 24.3199 66.5001 23.9199 65.4001 29.1199Z" fill="#95344D"/>
<path d="M50.7002 29.7199C52.7002 24.9199 58.3002 23.9199 58.3002 23.9199L57.6002 25.3199C52.5002 26.5199 50.7002 29.7199 50.7002 29.7199Z" fill="#95344D"/>
<path d="M56 32.3199C56 32.3199 54.7 26.9199 57.8 25.9199C57.8 25.9199 59.7 30.6199 56 32.3199Z" fill="#AD7A90"/>
<g style="mix-blend-mode:multiply">
<path d="M58.1 26.6199C58.1 26.6199 55.8 28.1199 56.8 31.8199C56.8 31.8199 58.8 30.4199 58.1 26.6199Z" fill="#AB8BC2"/>
</g>
<path d="M54.1001 29.6198C54.1001 29.6198 55.5001 29.5198 55.8001 30.5198C55.8001 30.5198 54.8001 30.8198 54.1001 29.6198Z" fill="white"/>
<path d="M66.6001 29.5199C66.6001 29.5199 67.5001 29.5199 67.7001 30.2199C67.7001 30.2199 67.1001 30.3199 66.6001 29.5199Z" fill="white"/>
<path style="mix-blend-mode:multiply" opacity="0.3" d="M67.3001 36.0198C67.3001 36.0198 65.1001 34.6198 62.3001 35.1198C59.6001 35.5198 61.5001 32.3198 64.7001 31.8198C64.7001 31.8198 65.0001 33.9198 67.3001 36.0198Z" fill="url(#paint68_linear_9_5169)"/>
<path style="mix-blend-mode:multiply" opacity="0.5" d="M60.3002 22.1199C60.3002 22.1199 59.7002 30.8199 57.7002 33.1199C55.8002 35.4199 52.4002 34.0199 50.2002 31.6199C48.0002 29.1199 49.6002 24.5199 49.6002 24.5199C49.6002 24.5199 53.6002 21.7199 60.3002 22.1199Z" fill="url(#paint69_linear_9_5169)"/>
<path style="mix-blend-mode:multiply" opacity="0.5" d="M60.5 36.1199C60.5 36.1199 59.5 37.0199 59.1 38.0199C58.6 39.1199 59.7 40.0199 60.9 39.3199C62.1 38.7199 62.5 38.8199 62.4 39.2199C62.3 39.7199 63 40.3199 64.7 40.2199C66.5 40.1199 68.2 38.6199 67.7 36.9199C67.7 36.9199 68.7 39.8199 64.7 40.6199C60.7 41.4199 60 39.7199 58.6 39.1199C57.2 38.5199 60.5 36.1199 60.5 36.1199Z" fill="url(#paint70_linear_9_5169)"/>
<path style="mix-blend-mode:multiply" opacity="0.5" d="M60 39.8199C60 39.8199 61.4 39.0199 62 39.1199C62.6 39.2199 62.1 39.9199 61.5 40.2199C60.9 40.5199 60 39.8199 60 39.8199Z" fill="url(#paint71_linear_9_5169)"/>
<path style="mix-blend-mode:multiply" opacity="0.5" d="M58.3 38.5198C58.3 38.5198 58.6001 38.8198 61.0001 38.7198C63.7001 38.5198 65.6001 38.8198 67.7001 38.3198C67.7001 38.3198 66.3 43.3198 63.9 43.4198C60.7 43.5198 58.3 38.5198 58.3 38.5198Z" fill="url(#paint72_linear_9_5169)"/>
<path d="M55.6001 41.3198C55.6001 41.3198 58.6001 43.7198 62.2001 44.3198C63.9001 44.6198 65.9001 44.2198 66.4001 43.7198C67.0001 43.2198 67.8001 42.5198 67.8001 42.5198C67.8001 42.5198 66.4001 43.9198 66.1001 44.2198C65.9001 44.5198 64.4001 48.1198 62.8001 48.1198C61.3001 48.0198 58.2001 43.6198 57.3001 43.0198C56.4001 42.4198 55.6001 41.3198 55.6001 41.3198Z" fill="url(#paint73_linear_9_5169)"/>
<path style="mix-blend-mode:multiply" opacity="0.5" d="M56.8001 40.3198C56.8001 40.3198 55.5001 41.4198 54.8001 43.5198C54.8001 43.5198 54.5001 42.3198 54.7001 41.3198C54.9001 40.3198 56.8001 40.3198 56.8001 40.3198Z" fill="url(#paint74_linear_9_5169)"/>
<path d="M59.6001 44.6199C59.6001 44.6199 61.4001 45.5199 62.2001 45.6199C63.1001 45.7199 65.0001 45.1199 65.0001 45.1199C65.0001 45.1199 63.7001 46.5199 62.3001 46.5199C61.0001 46.5199 59.6001 44.6199 59.6001 44.6199Z" fill="url(#paint75_linear_9_5169)"/>
<path d="M59.8 44.9198L58.5 43.7198L61 45.2198L59.8 44.9198Z" fill="#C22A57"/>
<path d="M64.6001 45.2198L66.1001 44.2198L64.9001 45.2198H64.6001Z" fill="#C22A57"/>
<path style="mix-blend-mode:multiply" opacity="0.5" d="M70.7001 20.5199C70.7001 20.5199 69.2001 26.9199 69.0001 28.8199C68.7001 30.8199 69.2001 34.0199 69.3001 34.1199C69.3001 34.2199 65.1 33.8199 64.9 31.2199C64.7 28.6199 65.8001 23.2199 65.8001 23.2199C67.4001 19.8199 70.7001 20.5199 70.7001 20.5199Z" fill="url(#paint76_linear_9_5169)"/>
<path d="M68.9 11.4199C68.9 11.4199 73.4 11.5199 78.3 11.5199C83.3 12.4199 84.8 15.2199 84.8 15.2199C84.8 15.2199 83.1 11.8199 78.1 12.3199C73.1 12.8199 65.1 16.5199 61.3 18.2199C57.6 19.8199 46.8 19.2199 46.8 19.2199C54.7 12.4199 68.9 11.4199 68.9 11.4199Z" fill="url(#paint77_linear_9_5169)"/>
<path d="M68.9001 14.9198C68.9001 14.9198 70.5001 12.9198 76.4001 12.8198C82.3001 12.6198 84.4001 16.5198 84.4001 16.5198C77.9001 17.7198 70.8002 17.4198 70.8002 17.4198L68.9001 14.9198Z" fill="#A21642"/>
<path d="M84.8 15.2199L84.4 16.5199C84.4 16.5199 81.1 11.6199 73.3 13.5199C65.4 15.5199 64.7 18.2199 60.6 19.6199C56.4 21.0199 46 19.7199 46 19.7199L46.8 18.9199C46.8 18.9199 55.7 19.4199 59.3 18.4199C62.8 17.4199 69.8 12.8199 76.5 12.0199C83.2 11.3199 84.8 15.2199 84.8 15.2199Z" fill="url(#paint78_linear_9_5169)"/>
<path style="mix-blend-mode:multiply" opacity="0.5" d="M38.4001 27.8198C42.2001 26.5198 45.2002 22.8198 45.2002 22.8198C43.7002 26.7198 39.8002 28.9198 39.8002 28.9198L38.4001 27.8198Z" fill="url(#paint79_linear_9_5169)"/>
<path style="mix-blend-mode:multiply" opacity="0.5" d="M69.4002 11.4199C59.5002 11.9199 50.9002 16.1198 47.4002 18.5198C44.0002 21.0198 38.5002 25.7199 38.5002 25.7199C36.7002 20.7199 35.1002 13.9199 35.1002 13.9199C35.1002 13.9199 35.0002 12.1199 42.0002 7.91985C49.1002 3.71985 64.0002 2.21985 64.0002 2.21985C66.5002 4.21985 69.4002 11.4199 69.4002 11.4199Z" fill="url(#paint80_linear_9_5169)"/>
<path style="mix-blend-mode:multiply" opacity="0.3" d="M60.7002 36.2199C61.4002 40.1199 58.8002 43.8199 54.9002 44.5199C51.0002 45.2199 47.3002 42.6199 46.6002 38.7199C45.9002 34.9199 48.5002 31.1199 52.4002 30.4199C56.2002 29.7199 60.0002 32.3199 60.7002 36.2199Z" fill="url(#paint81_radial_9_5169)"/>
<path style="mix-blend-mode:multiply" opacity="0.5" d="M69 31.7199C69.4 35.1199 69.8 37.6198 69.8 40.5198C69.9 41.6198 69.2001 43.7198 68.2001 46.0198C64.8001 46.0198 61.9001 43.5199 61.2001 40.1199C60.5001 36.2199 63.1 32.5199 67 31.8198C67.6667 31.6865 68.3334 31.6532 69 31.7199Z" fill="url(#paint82_radial_9_5169)"/>
<path style="mix-blend-mode:multiply" opacity="0.5" d="M60.7003 47.7198C63.0003 48.7198 63.9002 48.7198 63.9002 48.7198L61.1002 49.7198C61.1002 49.7198 58.5003 46.7198 60.7003 47.7198Z" fill="url(#paint83_linear_9_5169)"/>
<path style="mix-blend-mode:multiply" opacity="0.5" d="M51.6001 50.8198C46.8001 47.9198 43.4001 42.6198 43.1001 42.2198C43.5001 43.0865 43.9334 43.9198 44.4001 44.7198C48.3001 51.1198 56.5001 55.3198 60.5001 55.2198C59.9001 55.0198 56.1001 53.5198 51.6001 50.8198Z" fill="url(#paint84_linear_9_5169)"/>
<defs>
<linearGradient id="paint0_linear_9_5169" x1="25.8001" y1="51.9199" x2="23.3001" y2="38.3199" gradientUnits="userSpaceOnUse">
<stop stop-color="#E05215"/>
<stop offset="1" stop-color="#A73609"/>
</linearGradient>
<linearGradient id="paint1_linear_9_5169" x1="-1.3999" y1="142.22" x2="-1.3999" y2="54.2198" gradientUnits="userSpaceOnUse">
<stop stop-color="#FF4C59"/>
<stop offset="1" stop-color="#FF813B"/>
</linearGradient>
<linearGradient id="paint2_linear_9_5169" x1="11.7002" y1="51.6199" x2="46.1002" y2="51.6199" gradientUnits="userSpaceOnUse">
<stop stop-color="#FFB159"/>
<stop offset="1" stop-color="#FFA73B"/>
</linearGradient>
<linearGradient id="paint3_linear_9_5169" x1="62.3" y1="191.82" x2="62.3" y2="184.02" gradientUnits="userSpaceOnUse">
<stop stop-color="#890F16"/>
<stop offset="1" stop-color="#93252D"/>
</linearGradient>
<linearGradient id="paint4_linear_9_5169" x1="35.2002" y1="268.02" x2="35.2002" y2="188.32" gradientUnits="userSpaceOnUse">
<stop stop-color="#FF9063"/>
<stop offset="1" stop-color="#FF6B59"/>
</linearGradient>
<linearGradient id="paint5_linear_9_5169" x1="62.3" y1="156.12" x2="62.3" y2="110.42" gradientUnits="userSpaceOnUse">
<stop stop-color="#FF8D5B"/>
<stop offset="1" stop-color="#FF6F6B"/>
</linearGradient>
<linearGradient id="paint6_linear_9_5169" x1="65.7" y1="108.62" x2="65.7" y2="70.6199" gradientUnits="userSpaceOnUse">
<stop stop-color="#006F63"/>
<stop offset="1" stop-color="#009993"/>
</linearGradient>
<linearGradient id="paint7_linear_9_5169" x1="57.2002" y1="191.32" x2="57.2002" y2="143.92" gradientUnits="userSpaceOnUse">
<stop stop-color="#B53522"/>
<stop offset="1" stop-color="#BA274B"/>
</linearGradient>
<linearGradient id="paint8_linear_9_5169" x1="30.3" y1="199.72" x2="30.3" y2="159.12" gradientUnits="userSpaceOnUse">
<stop stop-color="#B54822"/>
<stop offset="1" stop-color="#CE3F4B"/>
</linearGradient>
<linearGradient id="paint9_linear_9_5169" x1="38.1001" y1="68.6199" x2="38.1001" y2="41.6199" gradientUnits="userSpaceOnUse">
<stop stop-color="#FF8D5B"/>
<stop offset="1" stop-color="#FF6F6B"/>
</linearGradient>
<linearGradient id="paint10_linear_9_5169" x1="18.5002" y1="166.82" x2="18.5002" y2="57.1199" gradientUnits="userSpaceOnUse">
<stop stop-color="#00956B"/>
<stop offset="1" stop-color="#009993"/>
</linearGradient>
<linearGradient id="paint11_linear_9_5169" x1="39.2002" y1="62.7198" x2="65.5002" y2="62.7198" gradientUnits="userSpaceOnUse">
<stop stop-color="#6175B8"/>
<stop offset="1" stop-color="white"/>
</linearGradient>
<linearGradient id="paint12_linear_9_5169" x1="35.2002" y1="89.4199" x2="51.3002" y2="89.4199" gradientUnits="userSpaceOnUse">
<stop stop-color="#6175B8"/>
<stop offset="1" stop-color="white"/>
</linearGradient>
<linearGradient id="paint13_linear_9_5169" x1="58.6001" y1="93.7198" x2="58.6001" y2="61.7198" gradientUnits="userSpaceOnUse">
<stop stop-color="#FF8459"/>
<stop offset="1" stop-color="#FB8836"/>
</linearGradient>
<linearGradient id="paint14_linear_9_5169" x1="69.0002" y1="78.6198" x2="69.0002" y2="77.1198" gradientUnits="userSpaceOnUse">
<stop stop-color="#B39AD1"/>
<stop offset="1" stop-color="#958EFF"/>
</linearGradient>
<linearGradient id="paint15_linear_9_5169" x1="68.1001" y1="77.3199" x2="68.1001" y2="74.7199" gradientUnits="userSpaceOnUse">
<stop stop-color="#FF273D"/>
<stop offset="1" stop-color="#FF3748"/>
</linearGradient>
<linearGradient id="paint16_linear_9_5169" x1="64.7002" y1="118.32" x2="64.7002" y2="80.7199" gradientUnits="userSpaceOnUse">
<stop stop-color="#D0C7F8"/>
<stop offset="1" stop-color="#E1D6FF"/>
</linearGradient>
<linearGradient id="paint17_linear_9_5169" x1="65.6001" y1="116.62" x2="65.6001" y2="83.1199" gradientUnits="userSpaceOnUse">
<stop stop-color="#8B8BE0"/>
<stop offset="1" stop-color="#A177B7"/>
</linearGradient>
<linearGradient id="paint18_linear_9_5169" x1="16.7001" y1="134.02" x2="16.7001" y2="59.4199" gradientUnits="userSpaceOnUse">
<stop stop-color="#FF8459"/>
<stop offset="1" stop-color="#FB8836"/>
</linearGradient>
<linearGradient id="paint19_linear_9_5169" x1="16.0001" y1="92.9199" x2="84.0001" y2="92.9199" gradientUnits="userSpaceOnUse">
<stop stop-color="#FFB374"/>
<stop offset="1" stop-color="#FF9577"/>
</linearGradient>
<linearGradient id="paint20_linear_9_5169" x1="35.2002" y1="199.52" x2="35.2002" y2="194.52" gradientUnits="userSpaceOnUse">
<stop stop-color="#890F16"/>
<stop offset="1" stop-color="#93252D"/>
</linearGradient>
<linearGradient id="paint21_linear_9_5169" x1="12.3002" y1="113.42" x2="12.3002" y2="70.5199" gradientUnits="userSpaceOnUse">
<stop stop-color="#00BD91"/>
<stop offset="1" stop-color="#009993"/>
</linearGradient>
<linearGradient id="paint22_linear_9_5169" x1="39" y1="268.72" x2="39" y2="193.42" gradientUnits="userSpaceOnUse">
<stop stop-color="#FFB374"/>
<stop offset="1" stop-color="#FF9577"/>
</linearGradient>
<linearGradient id="paint23_linear_9_5169" x1="48.9001" y1="285.42" x2="48.9001" y2="264.02" gradientUnits="userSpaceOnUse">
<stop stop-color="#FFC4BA"/>
<stop offset="1" stop-color="#FFD9D6"/>
</linearGradient>
<linearGradient id="paint24_linear_9_5169" x1="26.9001" y1="307.02" x2="26.9001" y2="284.22" gradientUnits="userSpaceOnUse">
<stop stop-color="#7434A4"/>
<stop offset="1" stop-color="#653BAB"/>
</linearGradient>
<linearGradient id="paint25_linear_9_5169" x1="23.1001" y1="311.12" x2="23.1001" y2="300.02" gradientUnits="userSpaceOnUse">
<stop stop-color="#FFC4BA"/>
<stop offset="1" stop-color="#FFE7E5"/>
</linearGradient>
<linearGradient id="paint26_linear_9_5169" x1="32.5" y1="287.92" x2="32.5" y2="265.32" gradientUnits="userSpaceOnUse">
<stop stop-color="#FFC4BA"/>
<stop offset="1" stop-color="#FFA1A9"/>
</linearGradient>
<linearGradient id="paint27_linear_9_5169" x1="52.9001" y1="309.92" x2="52.9001" y2="277.72" gradientUnits="userSpaceOnUse">
<stop stop-color="#744FD8"/>
<stop offset="1" stop-color="#6566F7"/>
</linearGradient>
<linearGradient id="paint28_linear_9_5169" x1="50.2002" y1="311.82" x2="50.2002" y2="303.42" gradientUnits="userSpaceOnUse">
<stop stop-color="#FFC4BA"/>
<stop offset="1" stop-color="#FFE7E5"/>
</linearGradient>
<linearGradient id="paint29_linear_9_5169" x1="36.1" y1="72.2199" x2="36.1" y2="57.1199" gradientUnits="userSpaceOnUse">
<stop stop-color="#FFC4BA"/>
<stop offset="1" stop-color="#FFD9D6"/>
</linearGradient>
<linearGradient id="paint30_linear_9_5169" x1="12.2002" y1="113.42" x2="12.2002" y2="102.22" gradientUnits="userSpaceOnUse">
<stop stop-color="#FFC4BA"/>
<stop offset="1" stop-color="#FFD9D6"/>
</linearGradient>
<linearGradient id="paint31_linear_9_5169" x1="29.6" y1="101.82" x2="29.6" y2="73.2198" gradientUnits="userSpaceOnUse">
<stop stop-color="#6175B8"/>
<stop offset="1" stop-color="white"/>
</linearGradient>
<linearGradient id="paint32_linear_9_5169" x1="44.3" y1="130.42" x2="70.4" y2="130.42" gradientUnits="userSpaceOnUse">
<stop stop-color="white"/>
<stop offset="1" stop-color="#6175B8"/>
</linearGradient>
<linearGradient id="paint33_linear_9_5169" x1="43.2002" y1="135.42" x2="72.6002" y2="135.42" gradientUnits="userSpaceOnUse">
<stop stop-color="white"/>
<stop offset="1" stop-color="#6175B8"/>
</linearGradient>
<linearGradient id="paint34_linear_9_5169" x1="31.3" y1="159.82" x2="55.4" y2="159.82" gradientUnits="userSpaceOnUse">
<stop stop-color="#6175B8"/>
<stop offset="1" stop-color="white"/>
</linearGradient>
<linearGradient id="paint35_linear_9_5169" x1="20" y1="108.82" x2="20" y2="70.6199" gradientUnits="userSpaceOnUse">
<stop stop-color="#6175B8"/>
<stop offset="1" stop-color="white"/>
</linearGradient>
<linearGradient id="paint36_linear_9_5169" x1="35.2002" y1="141.42" x2="35.2002" y2="133.52" gradientUnits="userSpaceOnUse">
<stop stop-color="#6175B8"/>
<stop offset="1" stop-color="white"/>
</linearGradient>
<linearGradient id="paint37_linear_9_5169" x1="64.5" y1="114.02" x2="64.5" y2="96.5199" gradientUnits="userSpaceOnUse">
<stop stop-color="white"/>
<stop offset="1" stop-color="#E5658E"/>
</linearGradient>
<linearGradient id="paint38_linear_9_5169" x1="61.1001" y1="97.5199" x2="61.1001" y2="94.9199" gradientUnits="userSpaceOnUse">
<stop stop-color="white"/>
<stop offset="1" stop-color="#E5658E"/>
</linearGradient>
<linearGradient id="paint39_linear_9_5169" x1="55.1001" y1="106.92" x2="55.1001" y2="97.5199" gradientUnits="userSpaceOnUse">
<stop stop-color="white"/>
<stop offset="1" stop-color="#E5658E"/>
</linearGradient>
<linearGradient id="paint40_linear_9_5169" x1="79.3" y1="184.62" x2="79.3" y2="169.52" gradientUnits="userSpaceOnUse">
<stop stop-color="#C55B8E"/>
<stop offset="1" stop-color="white"/>
</linearGradient>
<linearGradient id="paint41_linear_9_5169" x1="60.4001" y1="191.02" x2="60.4001" y2="153.32" gradientUnits="userSpaceOnUse">
<stop stop-color="#953D8E"/>
<stop offset="1" stop-color="white"/>
</linearGradient>
<linearGradient id="paint42_linear_9_5169" x1="33.7002" y1="199.72" x2="33.7002" y2="174.72" gradientUnits="userSpaceOnUse">
<stop stop-color="#953D8E"/>
<stop offset="1" stop-color="white"/>
</linearGradient>
<linearGradient id="paint43_linear_9_5169" x1="35.7002" y1="169.82" x2="49.2002" y2="169.82" gradientUnits="userSpaceOnUse">
<stop stop-color="#953D8E"/>
<stop offset="1" stop-color="white"/>
</linearGradient>
<linearGradient id="paint44_linear_9_5169" x1="50.9001" y1="268.12" x2="61.6002" y2="268.12" gradientUnits="userSpaceOnUse">
<stop stop-color="#E5658E"/>
<stop offset="1" stop-color="white"/>
</linearGradient>
<linearGradient id="paint45_linear_9_5169" x1="60.3" y1="262.42" x2="64.5001" y2="262.42" gradientUnits="userSpaceOnUse">
<stop stop-color="white"/>
<stop offset="1" stop-color="#E5658E"/>
</linearGradient>
<linearGradient id="paint46_linear_9_5169" x1="49.9001" y1="206.72" x2="59.0002" y2="206.72" gradientUnits="userSpaceOnUse">
<stop stop-color="white"/>
<stop offset="1" stop-color="#E5658E"/>
</linearGradient>
<linearGradient id="paint47_linear_9_5169" x1="38.8" y1="272.52" x2="38.8" y2="268.72" gradientUnits="userSpaceOnUse">
<stop stop-color="white"/>
<stop offset="1" stop-color="#E5658E"/>
</linearGradient>
<linearGradient id="paint48_linear_9_5169" x1="8.90006" y1="86.5199" x2="8.90006" y2="64.5199" gradientUnits="userSpaceOnUse">
<stop stop-color="white"/>
<stop offset="1" stop-color="#D94075"/>
</linearGradient>
<linearGradient id="paint49_linear_9_5169" x1="19.3" y1="121.22" x2="34.0001" y2="121.22" gradientUnits="userSpaceOnUse">
<stop stop-color="#E5658E"/>
<stop offset="1" stop-color="white"/>
</linearGradient>
<linearGradient id="paint50_linear_9_5169" x1="55.8001" y1="214.12" x2="63.5001" y2="214.12" gradientUnits="userSpaceOnUse">
<stop stop-color="white"/>
<stop offset="1" stop-color="#E5658E"/>
</linearGradient>
<linearGradient id="paint51_linear_9_5169" x1="36" y1="264.52" x2="42" y2="264.52" gradientUnits="userSpaceOnUse">
<stop stop-color="#E5658E"/>
<stop offset="1" stop-color="white"/>
</linearGradient>
<linearGradient id="paint52_linear_9_5169" x1="43.5002" y1="58.4198" x2="34.5002" y2="8.81983" gradientUnits="userSpaceOnUse">
<stop stop-color="#FFB374"/>
<stop offset="1" stop-color="#FF9577"/>
</linearGradient>
<linearGradient id="paint53_linear_9_5169" x1="48.6001" y1="19.0199" x2="61.3001" y2="16.7199" gradientUnits="userSpaceOnUse">
<stop stop-color="#E05215"/>
<stop offset="1" stop-color="#A73609"/>
</linearGradient>
<linearGradient id="paint54_linear_9_5169" x1="32" y1="43.5198" x2="29.3" y2="28.4198" gradientUnits="userSpaceOnUse">
<stop stop-color="#FFB374"/>
<stop offset="1" stop-color="#FF9577"/>
</linearGradient>
<linearGradient id="paint55_linear_9_5169" x1="37.4001" y1="33.6199" x2="34.8001" y2="19.4199" gradientUnits="userSpaceOnUse">
<stop stop-color="#E05215"/>
<stop offset="1" stop-color="#A73609"/>
</linearGradient>
<linearGradient id="paint56_linear_9_5169" x1="40.3001" y1="36.8199" x2="39.0001" y2="29.9199" gradientUnits="userSpaceOnUse">
<stop stop-color="#C23422"/>
<stop offset="1" stop-color="#A73609"/>
</linearGradient>
<linearGradient id="paint57_linear_9_5169" x1="34.9" y1="26.4198" x2="30.9" y2="4.71982" gradientUnits="userSpaceOnUse">
<stop stop-color="#C3041A"/>
<stop offset="1" stop-color="#FF3748"/>
</linearGradient>
<linearGradient id="paint58_linear_9_5169" x1="41.8" y1="19.8198" x2="38.7" y2="2.81981" gradientUnits="userSpaceOnUse">
<stop stop-color="#FFC4BA"/>
<stop offset="1" stop-color="#FFD9D6"/>
</linearGradient>
<linearGradient id="paint59_linear_9_5169" x1="32.0002" y1="40.2199" x2="30.6002" y2="32.4199" gradientUnits="userSpaceOnUse">
<stop stop-color="white"/>
<stop offset="1" stop-color="#E5658E"/>
</linearGradient>
<linearGradient id="paint60_linear_9_5169" x1="50.7" y1="28.4199" x2="56.6" y2="27.3199" gradientUnits="userSpaceOnUse">
<stop stop-color="white"/>
<stop offset="1" stop-color="#E5658E"/>
</linearGradient>
<linearGradient id="paint61_linear_9_5169" x1="65.0001" y1="28.6199" x2="68.2" y2="28.0199" gradientUnits="userSpaceOnUse">
<stop stop-color="white"/>
<stop offset="1" stop-color="#E5658E"/>
</linearGradient>
<linearGradient id="paint62_linear_9_5169" x1="34.4999" y1="39.6199" x2="33.1999" y2="32.3199" gradientUnits="userSpaceOnUse">
<stop stop-color="white"/>
<stop offset="1" stop-color="#E5658E"/>
</linearGradient>
<linearGradient id="paint63_linear_9_5169" x1="64.6" y1="16.0198" x2="70.6001" y2="14.9198" gradientUnits="userSpaceOnUse">
<stop stop-color="#E05215"/>
<stop offset="1" stop-color="#A73609"/>
</linearGradient>
<linearGradient id="paint64_linear_9_5169" x1="48.8002" y1="30.1199" x2="47.9002" y2="25.1199" gradientUnits="userSpaceOnUse">
<stop stop-color="white"/>
<stop offset="1" stop-color="#E5658E"/>
</linearGradient>
<linearGradient id="paint65_linear_9_5169" x1="63.5001" y1="30.6199" x2="62.4001" y2="24.5199" gradientUnits="userSpaceOnUse">
<stop stop-color="white"/>
<stop offset="1" stop-color="#E5658E"/>
</linearGradient>
<linearGradient id="paint66_linear_9_5169" x1="63.7002" y1="32.6198" x2="62.5002" y2="26.1198" gradientUnits="userSpaceOnUse">
<stop stop-color="#F2DEF8"/>
<stop offset="1" stop-color="white"/>
</linearGradient>
<linearGradient id="paint67_linear_9_5169" x1="49.5002" y1="32.3198" x2="48.4002" y2="26.2198" gradientUnits="userSpaceOnUse">
<stop stop-color="#F2DEF8"/>
<stop offset="1" stop-color="white"/>
</linearGradient>
<linearGradient id="paint68_linear_9_5169" x1="61.6001" y1="30.4198" x2="66.3001" y2="29.5198" gradientUnits="userSpaceOnUse">
<stop stop-color="white"/>
<stop offset="1" stop-color="#E5658E"/>
</linearGradient>
<linearGradient id="paint69_linear_9_5169" x1="48.3002" y1="34.6199" x2="46.4002" y2="24.4199" gradientUnits="userSpaceOnUse">
<stop stop-color="white"/>
<stop offset="1" stop-color="#E5658E"/>
</linearGradient>
<linearGradient id="paint70_linear_9_5169" x1="58.5" y1="34.8199" x2="66.4" y2="33.3199" gradientUnits="userSpaceOnUse">
<stop stop-color="#FFC2C4"/>
<stop offset="1" stop-color="#E5658E"/>
</linearGradient>
<linearGradient id="paint71_linear_9_5169" x1="59.6" y1="37.7199" x2="61.6" y2="37.4199" gradientUnits="userSpaceOnUse">
<stop stop-color="#B04C8E"/>
<stop offset="1" stop-color="#FFBDAC"/>
</linearGradient>
<linearGradient id="paint72_linear_9_5169" x1="58" y1="36.6198" x2="67.0001" y2="34.9198" gradientUnits="userSpaceOnUse">
<stop stop-color="white"/>
<stop offset="1" stop-color="#E5658E"/>
</linearGradient>
<linearGradient id="paint73_linear_9_5169" x1="55.1001" y1="49.4198" x2="53.6001" y2="41.6198" gradientUnits="userSpaceOnUse">
<stop stop-color="#FF8D5B"/>
<stop offset="1" stop-color="#FF6F6B"/>
</linearGradient>
<linearGradient id="paint74_linear_9_5169" x1="53.0001" y1="43.9198" x2="52.5001" y2="41.1198" gradientUnits="userSpaceOnUse">
<stop stop-color="white"/>
<stop offset="1" stop-color="#E5658E"/>
</linearGradient>
<linearGradient id="paint75_linear_9_5169" x1="58.1001" y1="47.3199" x2="57.7001" y2="45.0199" gradientUnits="userSpaceOnUse">
<stop stop-color="#F2DEF8"/>
<stop offset="1" stop-color="white"/>
</linearGradient>
<linearGradient id="paint76_linear_9_5169" x1="63.5" y1="35.0199" x2="61.2" y2="22.5199" gradientUnits="userSpaceOnUse">
<stop stop-color="white"/>
<stop offset="1" stop-color="#E5658E"/>
</linearGradient>
<linearGradient id="paint77_linear_9_5169" x1="45.3" y1="21.7199" x2="44.2" y2="15.4199" gradientUnits="userSpaceOnUse">
<stop stop-color="#FF273D"/>
<stop offset="1" stop-color="#FF3748"/>
</linearGradient>
<linearGradient id="paint78_linear_9_5169" x1="44.6" y1="22.6199" x2="43.7" y2="17.6199" gradientUnits="userSpaceOnUse">
<stop stop-color="#C3041A"/>
<stop offset="1" stop-color="#FF3748"/>
</linearGradient>
<linearGradient id="paint79_linear_9_5169" x1="37.4001" y1="22.2198" x2="44.9002" y2="20.9198" gradientUnits="userSpaceOnUse">
<stop stop-color="#A13D7F"/>
<stop offset="1" stop-color="white"/>
</linearGradient>
<linearGradient id="paint80_linear_9_5169" x1="33.5002" y1="4.51985" x2="67.1002" y2="-1.58014" gradientUnits="userSpaceOnUse">
<stop stop-color="#E5658E"/>
<stop offset="1" stop-color="white"/>
</linearGradient>
<radialGradient id="paint81_radial_9_5169" cx="0" cy="0" r="1" gradientUnits="userSpaceOnUse" gradientTransform="translate(53.6002 37.5199) scale(6.60002 6.6)">
<stop stop-color="#E5658E"/>
<stop offset="1" stop-color="white"/>
</radialGradient>
<radialGradient id="paint82_radial_9_5169" cx="0" cy="0" r="1" gradientUnits="userSpaceOnUse" gradientTransform="translate(69.1 39.0199) scale(5.59998 5.6)">
<stop stop-color="#E5658E"/>
<stop offset="1" stop-color="white"/>
</radialGradient>
<linearGradient id="paint83_linear_9_5169" x1="60.4003" y1="45.9198" x2="63.2002" y2="45.4198" gradientUnits="userSpaceOnUse">
<stop stop-color="white"/>
<stop offset="1" stop-color="#E5658E"/>
</linearGradient>
<linearGradient id="paint84_linear_9_5169" x1="42.8001" y1="40.3198" x2="57.3001" y2="37.6198" gradientUnits="userSpaceOnUse">
<stop stop-color="white"/>
<stop offset="1" stop-color="#E5658E"/>
</linearGradient>
</defs>
</svg>
